<?xml version="1.0" encoding="UTF-8"?>
<svg xmlns="http://www.w3.org/2000/svg" xmlns:xlink="http://www.w3.org/1999/xlink" width="64px" height="64px" viewBox="0 0 64 64" version="1.1">
<g id="surface1">
<path style=" stroke:none;fill-rule:nonzero;fill:rgb(33.72549%,23.921569%,48.627451%);fill-opacity:1;" d="M 0 55.746094 C 0 60.304688 3.695312 64 8.253906 64 L 55.746094 64 C 60.304688 64 64 60.304688 64 55.746094 L 64 8.253906 C 64 3.695312 60.304688 0 55.746094 0 L 8.253906 0 C 3.695312 0 0 3.695312 0 8.253906 Z M 0 55.746094 "/>
<path style=" stroke:none;fill-rule:nonzero;fill:rgb(100%,100%,100%);fill-opacity:1;" d="M 26.539062 28.308594 L 26.539062 19.246094 L 34.515625 19.246094 C 35.277344 19.246094 36.007812 19.308594 36.714844 19.4375 C 37.421875 19.5625 38.046875 19.789062 38.585938 20.113281 C 39.128906 20.441406 39.566406 20.890625 39.890625 21.472656 C 40.214844 22.050781 40.378906 22.792969 40.378906 23.695312 C 40.378906 25.324219 39.890625 26.5 38.914062 27.222656 C 37.9375 27.949219 36.6875 28.308594 35.167969 28.308594 Z M 18.019531 12.625 L 18.019531 51.375 L 36.796875 51.375 C 38.535156 51.375 40.226562 51.15625 41.871094 50.722656 C 43.515625 50.289062 44.984375 49.621094 46.265625 48.714844 C 47.550781 47.8125 48.574219 46.644531 49.332031 45.214844 C 50.09375 43.785156 50.472656 42.09375 50.472656 40.140625 C 50.472656 37.714844 49.886719 35.644531 48.710938 33.925781 C 47.535156 32.207031 45.75 31.003906 43.363281 30.316406 C 45.101562 29.484375 46.410156 28.417969 47.296875 27.117188 C 48.183594 25.8125 48.628906 24.183594 48.628906 22.230469 C 48.628906 20.421875 48.328125 18.902344 47.734375 17.671875 C 47.136719 16.441406 46.292969 15.457031 45.207031 14.714844 C 44.125 13.972656 42.820312 13.4375 41.300781 13.113281 C 39.78125 12.789062 38.097656 12.625 36.253906 12.625 Z M 26.539062 44.753906 L 26.539062 34.117188 L 35.820312 34.117188 C 37.664062 34.117188 39.148438 34.542969 40.269531 35.390625 C 41.390625 36.242188 41.953125 37.664062 41.953125 39.652344 C 41.953125 40.664062 41.78125 41.496094 41.4375 42.148438 C 41.09375 42.800781 40.632812 43.316406 40.054688 43.695312 C 39.472656 44.074219 38.804688 44.347656 38.046875 44.507812 C 37.285156 44.671875 36.488281 44.753906 35.65625 44.753906 Z M 26.539062 44.753906 "/>
</g>
</svg>
