<?xml version="1.0" encoding="UTF-8"?>
<svg xmlns="http://www.w3.org/2000/svg" xmlns:xlink="http://www.w3.org/1999/xlink" width="64px" height="64px" viewBox="0 0 64 72" version="1.1">
<g id="surface1">
<path style=" stroke:none;fill-rule:nonzero;fill:rgb(63.137255%,47.45098%,86.27451%);fill-opacity:1;" d="M 63.714844 21.3125 C 63.714844 20.117188 63.457031 19.054688 62.941406 18.148438 C 62.429688 17.253906 61.667969 16.503906 60.644531 15.910156 C 52.199219 11.042969 43.746094 6.1875 35.304688 1.3125 C 33.027344 0 30.820312 0.046875 28.5625 1.382812 C 25.199219 3.363281 8.371094 13.003906 3.355469 15.910156 C 1.289062 17.105469 0.285156 18.933594 0.285156 21.3125 C 0.28125 31.105469 0.285156 40.894531 0.28125 50.6875 C 0.28125 51.859375 0.527344 52.898438 1.023438 53.792969 C 1.53125 54.714844 2.304688 55.484375 3.351562 56.089844 C 8.367188 58.996094 25.199219 68.636719 28.5625 70.617188 C 30.820312 71.953125 33.027344 72 35.304688 70.6875 C 43.746094 65.8125 52.203125 60.957031 60.648438 56.089844 C 61.695312 55.484375 62.46875 54.710938 62.976562 53.792969 C 63.472656 52.898438 63.71875 51.859375 63.71875 50.683594 C 63.71875 50.683594 63.71875 31.105469 63.714844 21.3125 "/>
<path style=" stroke:none;fill-rule:nonzero;fill:rgb(15.686275%,0%,40.784314%);fill-opacity:1;" d="M 32.097656 35.90625 L 1.023438 53.792969 C 1.53125 54.714844 2.304688 55.484375 3.351562 56.089844 C 8.367188 58.996094 25.199219 68.636719 28.5625 70.617188 C 30.820312 71.953125 33.027344 72 35.304688 70.6875 C 43.746094 65.8125 52.203125 60.957031 60.648438 56.089844 C 61.695312 55.484375 62.46875 54.710938 62.976562 53.792969 Z M 32.097656 35.90625 "/>
<path style=" stroke:none;fill-rule:nonzero;fill:rgb(22.352941%,0%,56.862745%);fill-opacity:1;" d="M 63.714844 21.3125 C 63.714844 20.117188 63.457031 19.054688 62.941406 18.148438 L 32.097656 35.90625 L 62.976562 53.792969 C 63.472656 52.898438 63.71875 51.859375 63.71875 50.683594 C 63.71875 50.683594 63.71875 31.105469 63.714844 21.3125 "/>
<path style=" stroke:none;fill-rule:nonzero;fill:rgb(100%,100%,100%);fill-opacity:1;" d="M 50.390625 29.214844 L 50.390625 32.5625 L 53.738281 32.5625 L 53.738281 29.214844 L 55.410156 29.214844 L 55.410156 32.5625 L 58.753906 32.5625 L 58.753906 34.234375 L 55.410156 34.234375 L 55.410156 37.578125 L 58.753906 37.578125 L 58.753906 39.25 L 55.410156 39.25 L 55.410156 42.59375 L 53.738281 42.59375 L 53.738281 39.25 L 50.390625 39.25 L 50.390625 42.59375 L 48.71875 42.59375 L 48.71875 39.25 L 45.375 39.25 L 45.375 37.578125 L 48.71875 37.578125 L 48.71875 34.234375 L 45.375 34.234375 L 45.375 32.5625 L 48.71875 32.5625 L 48.71875 29.214844 Z M 53.738281 34.234375 L 50.390625 34.234375 L 50.390625 37.578125 L 53.738281 37.578125 Z M 53.738281 34.234375 "/>
<path style=" stroke:none;fill-rule:nonzero;fill:rgb(100%,100%,100%);fill-opacity:1;" d="M 32.164062 12.421875 C 40.886719 12.421875 48.503906 17.160156 52.582031 24.199219 L 52.542969 24.132812 L 42.28125 30.042969 C 40.257812 26.617188 36.550781 24.308594 32.300781 24.261719 L 32.164062 24.257812 C 25.679688 24.257812 20.421875 29.515625 20.421875 36 C 20.421875 38.042969 20.957031 40.050781 21.972656 41.824219 C 23.996094 45.359375 27.800781 47.742188 32.164062 47.742188 C 36.558594 47.742188 40.382812 45.328125 42.398438 41.757812 L 42.347656 41.84375 L 52.59375 47.777344 C 48.5625 54.757812 41.050781 59.480469 32.429688 59.574219 L 32.164062 59.578125 C 23.414062 59.578125 15.777344 54.8125 11.707031 47.734375 C 9.722656 44.277344 8.585938 40.273438 8.585938 36 C 8.585938 22.980469 19.140625 12.421875 32.164062 12.421875 Z M 32.164062 12.421875 "/>
</g>
</svg>
