<?xml version="1.0" encoding="UTF-8"?>
<svg xmlns="http://www.w3.org/2000/svg" xmlns:xlink="http://www.w3.org/1999/xlink" width="64px" height="64px" viewBox="0 0 64 72" version="1.1">
<g id="surface1">
<path style=" stroke:none;fill-rule:nonzero;fill:rgb(36.078431%,55.294118%,73.72549%);fill-opacity:1;" d="M 63.890625 21.179688 C 63.890625 19.96875 63.632812 18.902344 63.109375 17.988281 C 62.597656 17.085938 61.828125 16.332031 60.800781 15.734375 C 52.292969 10.832031 43.777344 5.941406 35.273438 1.035156 C 32.984375 -0.289062 30.761719 -0.242188 28.484375 1.101562 C 25.097656 3.097656 8.148438 12.808594 3.097656 15.734375 C 1.015625 16.9375 0.00390625 18.78125 0.00390625 21.175781 C 0 31.039062 0.00390625 40.902344 0 50.765625 C 0 51.945312 0.246094 52.992188 0.746094 53.894531 C 1.261719 54.820312 2.039062 55.597656 3.09375 56.207031 C 8.144531 59.132812 25.097656 68.839844 28.484375 70.839844 C 30.761719 72.183594 32.984375 72.230469 35.277344 70.90625 C 43.78125 65.996094 52.292969 61.105469 60.800781 56.203125 C 61.855469 55.59375 62.636719 54.816406 63.148438 53.890625 C 63.648438 52.988281 63.894531 51.941406 63.894531 50.761719 C 63.894531 50.761719 63.894531 31.039062 63.890625 21.179688 "/>
<path style=" stroke:none;fill-rule:nonzero;fill:rgb(10.196078%,27.45098%,45.490196%);fill-opacity:1;" d="M 32.046875 35.875 L 0.746094 53.894531 C 1.261719 54.820312 2.039062 55.597656 3.09375 56.207031 C 8.144531 59.132812 25.097656 68.839844 28.484375 70.839844 C 30.761719 72.183594 32.984375 72.230469 35.277344 70.90625 C 43.78125 65.996094 52.292969 61.105469 60.800781 56.203125 C 61.855469 55.59375 62.636719 54.816406 63.148438 53.890625 L 32.046875 35.875 "/>
<path style=" stroke:none;fill-rule:nonzero;fill:rgb(10.196078%,27.45098%,45.490196%);fill-opacity:1;" d="M 22.773438 41.210938 C 24.597656 44.390625 28.019531 46.535156 31.949219 46.535156 C 35.898438 46.535156 39.34375 44.363281 41.15625 41.148438 L 32.046875 35.875 L 22.773438 41.210938 "/>
<path style=" stroke:none;fill-rule:nonzero;fill:rgb(10.588235%,34.901961%,55.686275%);fill-opacity:1;" d="M 63.890625 21.179688 C 63.890625 19.96875 63.632812 18.902344 63.109375 17.988281 L 32.046875 35.875 L 63.148438 53.890625 C 63.648438 52.988281 63.894531 51.941406 63.894531 50.761719 C 63.894531 50.761719 63.894531 31.039062 63.890625 21.179688 "/>
<path style=" stroke:none;fill-rule:nonzero;fill:rgb(100%,100%,100%);fill-opacity:1;" d="M 62.183594 37.160156 L 59.75 37.160156 L 59.75 39.59375 L 57.320312 39.59375 L 57.320312 37.160156 L 54.890625 37.160156 L 54.890625 34.730469 L 57.320312 34.730469 L 57.320312 32.300781 L 59.75 32.300781 L 59.75 34.730469 L 62.183594 34.730469 L 62.183594 37.160156 M 53.3125 37.160156 L 50.882812 37.160156 L 50.882812 39.59375 L 48.453125 39.59375 L 48.453125 37.160156 L 46.023438 37.160156 L 46.023438 34.730469 L 48.453125 34.730469 L 48.453125 32.300781 L 50.882812 32.300781 L 50.882812 34.730469 L 53.3125 34.730469 L 53.3125 37.160156 "/>
<path style=" stroke:none;fill-rule:nonzero;fill:rgb(100%,100%,100%);fill-opacity:1;" d="M 41.15625 41.148438 C 39.34375 44.363281 35.898438 46.535156 31.949219 46.535156 C 28.019531 46.535156 24.597656 44.390625 22.773438 41.210938 C 21.859375 39.617188 21.378906 37.808594 21.382812 35.96875 C 21.382812 30.136719 26.113281 25.40625 31.949219 25.40625 C 35.851562 25.40625 39.253906 27.523438 41.085938 30.667969 L 50.320312 25.351562 C 46.652344 19.015625 39.796875 14.753906 31.949219 14.753906 C 20.230469 14.753906 10.730469 24.253906 10.730469 35.96875 C 10.730469 39.8125 11.75 43.417969 13.539062 46.527344 C 17.199219 52.898438 24.074219 57.1875 31.949219 57.1875 C 39.835938 57.1875 46.71875 52.878906 50.375 46.492188 L 41.15625 41.148438 "/>
</g>
</svg>
