<?xml version="1.0" encoding="UTF-8"?>
<svg xmlns="http://www.w3.org/2000/svg" xmlns:xlink="http://www.w3.org/1999/xlink" width="64px" height="64px" viewBox="0 0 64 73" version="1.1">
<g id="surface1">
<path style=" stroke:none;fill-rule:nonzero;fill:rgb(10.588235%,45.098039%,72.941176%);fill-opacity:1;" d="M 5.359375 65.351562 L 0 0.121094 L 64 0.253906 L 58.332031 65.351562 L 32.242188 72.878906 Z M 5.359375 65.351562 "/>
<path style=" stroke:none;fill-rule:nonzero;fill:rgb(10.980392%,53.333333%,78.039216%);fill-opacity:1;" d="M 32.242188 66.578125 L 32.242188 6.335938 L 58.597656 6.421875 L 53.898438 60.320312 Z M 32.242188 66.578125 "/>
<path style=" stroke:none;fill-rule:nonzero;fill:rgb(100%,100%,100%);fill-opacity:1;" d="M 52.050781 14.035156 L 11.507812 14.035156 L 12.605469 21.910156 L 31.847656 21.910156 L 12.914062 30.003906 L 14.011719 37.617188 L 41.90625 37.617188 L 40.894531 48.246094 L 31.449219 50.085938 L 22.886719 47.898438 L 22.226562 41.859375 L 14.363281 41.859375 L 15.417969 54.414062 L 32.285156 59.097656 L 48.449219 53.976562 L 50.515625 29.433594 L 33.425781 29.433594 L 52.050781 21.734375 Z M 52.050781 14.035156 "/>
</g>
</svg>
