<?xml version="1.0" encoding="UTF-8"?>
<svg xmlns="http://www.w3.org/2000/svg" xmlns:xlink="http://www.w3.org/1999/xlink" width="64px" height="64px" viewBox="0 0 64 64" version="1.1">
<g id="surface1">
<path style=" stroke:none;fill-rule:nonzero;fill:rgb(0.392157%,60.784314%,77.647059%);fill-opacity:1;" d="M 62.398438 26.050781 C 60.25 24.800781 57.398438 24.648438 55 25.351562 C 54.699219 22.75 53 20.5 51 18.898438 L 50.199219 18.25 L 49.5 19.050781 C 48.148438 20.601562 47.75 23.199219 47.949219 25.199219 C 48.101562 26.648438 48.550781 28.148438 49.449219 29.351562 C 48.75 29.75 48 30.300781 47.300781 30.550781 C 45.898438 31.050781 44.351562 31.550781 42.851562 31.550781 L 39.5 31.550781 L 39.5 24.5 L 33 24.5 L 33 12 L 25.5 12 L 25.5 18 L 13 18 L 13 24.5 L 6.5 24.5 L 6.5 31.5 L 0.898438 31.5 L 0.800781 32.25 C 0.550781 35.449219 0.949219 38.550781 2.300781 41.5 L 2.851562 42.601562 L 2.898438 42.699219 C 6.851562 49.398438 13.75 52.199219 21.300781 52.199219 C 35.898438 52.199219 47.949219 45.648438 53.449219 31.898438 C 57.148438 32.101562 60.949219 31 62.75 27.449219 L 63.199219 26.550781 Z M 14 19.5 L 19 19.5 L 19 25 L 14 25 Z M 20.550781 41.601562 C 20.550781 42.449219 19.851562 43.148438 19 43.148438 C 18.148438 43.148438 17.449219 42.449219 17.449219 41.601562 C 17.449219 40.75 18.148438 40.050781 19 40.050781 C 19.851562 40.101562 20.550781 40.75 20.550781 41.601562 Z M 14 26 L 19 26 L 19 31.5 L 14 31.5 Z M 7.5 26 L 13 26 L 13 31.5 L 7.5 31.5 Z M 21.351562 51.101562 C 13.449219 51.050781 9.199219 48.398438 5.699219 44.898438 C 6.75 44.949219 7.75 45 8.648438 45 C 9.449219 45 10.25 45 11 44.949219 C 12.949219 44.851562 14.648438 44.601562 16.050781 44.199219 C 17.199219 46.851562 19.300781 49.300781 23.050781 51.101562 Z M 25.5 31.5 L 20 31.5 L 20 26 L 25.5 26 Z M 25.5 25 L 20 25 L 20 19.5 L 25.5 19.5 Z M 32 31.5 L 26.5 31.5 L 26.5 26 L 32 26 Z M 32 25 L 26.5 25 L 26.5 19.5 L 32 19.5 Z M 32 18.5 L 26.5 18.5 L 26.5 13 L 32 13 Z M 38.5 31.5 L 33 31.5 L 33 26 L 38.5 26 Z M 19.398438 40.601562 C 19.300781 40.550781 19.148438 40.5 19 40.5 C 18.398438 40.5 17.898438 41 17.898438 41.601562 C 17.898438 42.199219 18.398438 42.699219 19 42.699219 C 19.601562 42.699219 20.101562 42.199219 20.101562 41.601562 C 20.101562 41.449219 20.050781 41.300781 20 41.199219 C 19.898438 41.351562 19.800781 41.449219 19.601562 41.449219 C 19.351562 41.449219 19.148438 41.25 19.148438 41 C 19.199219 40.800781 19.300781 40.648438 19.398438 40.601562 Z M 19.398438 40.601562 "/>
</g>
</svg>
