<?xml version="1.0" encoding="UTF-8"?>
<svg xmlns="http://www.w3.org/2000/svg" xmlns:xlink="http://www.w3.org/1999/xlink" width="64px" height="64px" viewBox="0 0 64 40" version="1.1">
<g id="surface1">
<path style=" stroke:none;fill-rule:nonzero;fill:rgb(38.431373%,11.764706%,89.803922%);fill-opacity:1;" d="M 3.25 20.367188 C 3.085938 20.195312 2.886719 20.058594 2.667969 19.960938 C 2.449219 19.867188 2.214844 19.820312 1.976562 19.820312 C 1.734375 19.816406 1.5 19.867188 1.28125 19.957031 C 1.0625 20.054688 0.863281 20.191406 0.699219 20.363281 C 0.53125 20.53125 0.398438 20.726562 0.3125 20.945312 C 0.226562 21.167969 0.179688 21.398438 0.179688 21.632812 C 0.175781 21.871094 0.222656 22.101562 0.3125 22.320312 C 0.40625 22.539062 0.535156 22.734375 0.707031 22.902344 C 1.035156 23.25 1.5 23.445312 1.980469 23.433594 C 2.460938 23.4375 2.921875 23.246094 3.253906 22.902344 C 3.429688 22.742188 3.5625 22.542969 3.652344 22.324219 C 3.746094 22.109375 3.792969 21.875 3.792969 21.636719 C 3.792969 21.398438 3.746094 21.167969 3.652344 20.949219 C 3.554688 20.726562 3.425781 20.53125 3.25 20.367188 Z M 24.597656 16.257812 C 24.570312 17.390625 24.628906 18.53125 24.761719 19.660156 L 24.699219 19.660156 C 24.554688 19.378906 24.238281 18.863281 23.753906 18.109375 L 12.125 0 L 8.597656 0 L 8.597656 23.121094 L 11.308594 23.121094 L 11.308594 6.40625 C 11.339844 5.347656 11.292969 4.292969 11.183594 3.234375 L 11.285156 3.234375 C 11.476562 3.738281 11.726562 4.226562 12.023438 4.679688 L 23.96875 23.121094 L 27.3125 23.121094 L 27.3125 0 L 24.597656 0 Z M 45.707031 20.578125 L 36.121094 20.578125 L 36.121094 12.570312 L 44.511719 12.570312 L 44.511719 10.128906 L 36.121094 10.128906 L 36.121094 2.449219 L 45.121094 2.449219 L 45.121094 0 L 33.339844 0 L 33.339844 23.121094 L 45.695312 23.121094 Z M 47.785156 0 L 47.785156 2.449219 L 54.46875 2.449219 L 54.46875 23.121094 L 57.179688 23.121094 L 57.179688 2.449219 L 63.9375 2.449219 L 63.9375 0 Z M 21.191406 28.867188 C 20.511719 29.136719 19.898438 29.546875 19.394531 30.066406 C 18.875 30.621094 18.464844 31.265625 18.199219 31.980469 C 17.933594 32.695312 17.816406 33.449219 17.847656 34.203125 C 17.796875 35.597656 18.289062 36.964844 19.226562 38.007812 C 19.695312 38.5 20.265625 38.878906 20.898438 39.128906 C 21.53125 39.382812 22.210938 39.496094 22.886719 39.464844 C 23.910156 39.5 24.921875 39.289062 25.847656 38.84375 L 25.855469 37.664062 C 25.011719 38.152344 24.046875 38.398438 23.066406 38.371094 C 22.542969 38.390625 22.015625 38.300781 21.53125 38.105469 C 21.046875 37.90625 20.609375 37.601562 20.25 37.21875 C 19.503906 36.359375 19.121094 35.246094 19.179688 34.109375 C 19.117188 32.910156 19.53125 31.738281 20.328125 30.835938 C 20.707031 30.421875 21.167969 30.097656 21.683594 29.875 C 22.203125 29.65625 22.761719 29.550781 23.320312 29.566406 C 24.214844 29.550781 25.09375 29.769531 25.871094 30.199219 L 25.871094 28.929688 C 25.0625 28.605469 24.195312 28.453125 23.320312 28.484375 C 22.59375 28.472656 21.863281 28.601562 21.191406 28.867188 Z M 33.90625 32.492188 C 33.214844 31.773438 32.242188 31.386719 31.242188 31.4375 C 30.71875 31.414062 30.199219 31.5 29.707031 31.6875 C 29.21875 31.875 28.773438 32.15625 28.398438 32.515625 C 28.03125 32.921875 27.75 33.390625 27.566406 33.910156 C 27.382812 34.425781 27.304688 34.964844 27.339844 35.511719 C 27.289062 36.550781 27.652344 37.566406 28.347656 38.339844 C 28.691406 38.710938 29.109375 39.003906 29.582031 39.203125 C 30.050781 39.394531 30.554688 39.488281 31.058594 39.46875 C 31.574219 39.484375 32.089844 39.390625 32.570312 39.191406 C 33.050781 38.996094 33.476562 38.695312 33.828125 38.316406 C 34.542969 37.515625 34.914062 36.46875 34.859375 35.402344 C 34.921875 34.339844 34.578125 33.300781 33.90625 32.492188 Z M 32.972656 37.6875 C 32.519531 38.210938 31.84375 38.492188 31.152344 38.453125 C 30.800781 38.46875 30.453125 38.402344 30.132812 38.269531 C 29.808594 38.132812 29.523438 37.929688 29.289062 37.667969 C 28.800781 37.066406 28.554688 36.308594 28.601562 35.539062 C 28.554688 34.742188 28.800781 33.960938 29.289062 33.332031 C 29.519531 33.070312 29.804688 32.859375 30.125 32.71875 C 30.449219 32.582031 30.800781 32.515625 31.144531 32.53125 C 31.492188 32.511719 31.835938 32.578125 32.152344 32.714844 C 32.46875 32.851562 32.746094 33.058594 32.972656 33.320312 C 33.4375 33.957031 33.660156 34.734375 33.609375 35.519531 C 33.660156 36.285156 33.4375 37.0625 32.972656 37.6875 Z M 38.882812 31.996094 C 38.5 32.335938 38.222656 32.773438 38.082031 33.265625 L 38.082031 31.675781 L 36.808594 31.675781 L 36.808594 39.289062 L 38.082031 39.289062 L 38.082031 35.40625 C 38.042969 34.703125 38.226562 34 38.605469 33.402344 C 38.742188 33.183594 38.925781 33.003906 39.148438 32.875 C 39.375 32.75 39.625 32.675781 39.878906 32.667969 C 40.207031 32.644531 40.53125 32.730469 40.808594 32.910156 L 40.808594 31.65625 C 40.574219 31.582031 40.328125 31.546875 40.082031 31.554688 C 39.644531 31.550781 39.222656 31.707031 38.882812 31.996094 Z M 48.269531 35.136719 C 48.332031 34.171875 48.039062 33.21875 47.453125 32.453125 C 47.164062 32.128906 46.804688 31.871094 46.402344 31.703125 C 46 31.535156 45.566406 31.460938 45.132812 31.484375 C 44.652344 31.46875 44.171875 31.566406 43.730469 31.757812 C 43.292969 31.949219 42.898438 32.238281 42.582031 32.601562 C 41.890625 33.40625 41.53125 34.4375 41.578125 35.492188 C 41.511719 36.546875 41.84375 37.585938 42.503906 38.40625 C 42.828125 38.757812 43.226562 39.03125 43.664062 39.210938 C 44.101562 39.394531 44.582031 39.46875 45.054688 39.449219 C 46 39.496094 46.933594 39.242188 47.71875 38.726562 L 47.71875 37.582031 C 47.046875 38.125 46.210938 38.421875 45.347656 38.433594 C 45.015625 38.453125 44.679688 38.402344 44.367188 38.28125 C 44.054688 38.160156 43.769531 37.980469 43.535156 37.746094 C 43.082031 37.195312 42.847656 36.5 42.886719 35.789062 L 48.28125 35.789062 Z M 42.878906 34.785156 C 42.945312 34.183594 43.210938 33.613281 43.628906 33.175781 C 44.007812 32.769531 44.539062 32.542969 45.097656 32.550781 C 45.363281 32.539062 45.621094 32.582031 45.867188 32.683594 C 46.113281 32.785156 46.324219 32.9375 46.5 33.132812 C 46.855469 33.605469 47.035156 34.183594 47.007812 34.769531 Z M 42.878906 34.785156 "/>
</g>
</svg>
