<?xml version="1.0" encoding="UTF-8"?>
<svg xmlns="http://www.w3.org/2000/svg" xmlns:xlink="http://www.w3.org/1999/xlink" width="64px" height="64px" viewBox="0 0 64 64" version="1.1">
<g id="surface1">
<path style=" stroke:none;fill-rule:nonzero;fill:rgb(87.058824%,29.803922%,21.176471%);fill-opacity:1;" d="M 62.792969 29.148438 L 34.851562 1.207031 C 33.242188 -0.402344 30.632812 -0.402344 29.023438 1.207031 L 23.21875 7.007812 L 30.578125 14.371094 C 32.289062 13.792969 34.25 14.179688 35.617188 15.542969 C 36.984375 16.914062 37.371094 18.894531 36.777344 20.609375 L 43.871094 27.703125 C 45.589844 27.113281 47.570312 27.496094 48.9375 28.867188 C 50.855469 30.785156 50.855469 33.886719 48.9375 35.804688 C 47.023438 37.71875 43.917969 37.71875 42.003906 35.804688 C 40.5625 34.359375 40.203125 32.246094 40.933594 30.46875 L 34.320312 23.855469 L 34.316406 41.261719 C 34.796875 41.5 35.234375 41.8125 35.617188 42.191406 C 37.53125 44.105469 37.53125 47.210938 35.617188 49.128906 C 33.699219 51.042969 30.59375 51.042969 28.679688 49.128906 C 26.765625 47.210938 26.765625 44.105469 28.679688 42.191406 C 29.140625 41.730469 29.683594 41.367188 30.285156 41.121094 L 30.285156 23.550781 C 29.683594 23.304688 29.136719 22.941406 28.679688 22.480469 C 27.230469 21.027344 26.878906 18.898438 27.625 17.117188 L 20.367188 9.859375 L 1.207031 29.019531 C -0.402344 30.628906 -0.402344 33.242188 1.207031 34.851562 L 29.152344 62.792969 C 30.757812 64.402344 33.371094 64.402344 34.980469 62.792969 L 62.792969 34.980469 C 64.402344 33.371094 64.402344 30.757812 62.792969 29.148438 "/>
</g>
</svg>
