<?xml version="1.0" encoding="UTF-8"?>
<svg xmlns="http://www.w3.org/2000/svg" xmlns:xlink="http://www.w3.org/1999/xlink" width="64px" height="64px" viewBox="0 0 64 24" version="1.1">
<g id="surface1">
<path style=" stroke:none;fill-rule:nonzero;fill:rgb(0%,0%,0%);fill-opacity:1;" d="M 4.828125 7.460938 C 4.703125 7.460938 4.671875 7.402344 4.734375 7.3125 L 5.386719 6.492188 C 5.445312 6.402344 5.601562 6.34375 5.726562 6.34375 L 16.773438 6.34375 C 16.898438 6.34375 16.929688 6.433594 16.867188 6.523438 L 16.339844 7.3125 C 16.277344 7.402344 16.125 7.492188 16.03125 7.492188 Z M 0.15625 10.246094 C 0.03125 10.246094 0 10.183594 0.0625 10.09375 L 0.710938 9.277344 C 0.773438 9.1875 0.929688 9.125 1.050781 9.125 L 15.164062 9.125 C 15.289062 9.125 15.351562 9.214844 15.320312 9.308594 L 15.070312 10.035156 C 15.039062 10.15625 14.917969 10.214844 14.792969 10.214844 Z M 7.644531 13.027344 C 7.519531 13.027344 7.488281 12.9375 7.550781 12.847656 L 7.984375 12.089844 C 8.046875 12 8.171875 11.910156 8.292969 11.910156 L 14.484375 11.910156 C 14.605469 11.910156 14.667969 12 14.667969 12.121094 L 14.605469 12.847656 C 14.605469 12.96875 14.484375 13.058594 14.390625 13.058594 Z M 39.769531 6.917969 C 37.816406 7.402344 36.488281 7.765625 34.570312 8.25 C 34.105469 8.371094 34.074219 8.398438 33.671875 7.945312 C 33.207031 7.433594 32.867188 7.097656 32.214844 6.796875 C 30.265625 5.859375 28.378906 6.128906 26.613281 7.25 C 24.511719 8.582031 23.425781 10.546875 23.457031 13 C 23.488281 15.417969 25.191406 17.414062 27.636719 17.75 C 29.742188 18.019531 31.503906 17.292969 32.898438 15.75 C 33.175781 15.417969 33.421875 15.054688 33.734375 14.632812 L 27.761719 14.632812 C 27.109375 14.632812 26.957031 14.238281 27.171875 13.722656 C 27.574219 12.785156 28.316406 11.214844 28.75 10.425781 C 28.84375 10.246094 29.058594 9.941406 29.523438 9.941406 L 40.789062 9.941406 C 40.726562 10.757812 40.726562 11.578125 40.601562 12.394531 C 40.261719 14.570312 39.425781 16.566406 38.066406 18.324219 C 35.835938 21.195312 32.929688 22.980469 29.246094 23.464844 C 26.210938 23.859375 23.398438 23.285156 20.921875 21.46875 C 18.628906 19.773438 17.332031 17.535156 16.992188 14.753906 C 16.589844 11.457031 17.578125 8.492188 19.621094 5.890625 C 21.816406 3.074219 24.726562 1.289062 28.285156 0.65625 C 31.195312 0.140625 33.980469 0.472656 36.488281 2.136719 C 38.128906 3.195312 39.304688 4.648438 40.078125 6.402344 C 40.261719 6.675781 40.140625 6.828125 39.769531 6.917969 Z M 39.769531 6.917969 "/>
<path style=" stroke:none;fill-rule:nonzero;fill:rgb(0%,0%,0%);fill-opacity:1;" d="M 50.011719 23.648438 C 47.195312 23.585938 44.625 22.800781 42.460938 20.984375 C 40.632812 19.441406 39.488281 17.476562 39.117188 15.144531 C 38.5625 11.726562 39.519531 8.703125 41.625 6.007812 C 43.882812 3.105469 46.605469 1.59375 50.289062 0.957031 C 53.445312 0.414062 56.417969 0.714844 59.109375 2.5 C 61.554688 4.132812 63.070312 6.34375 63.472656 9.246094 C 64 13.332031 62.792969 16.660156 59.914062 19.503906 C 57.871094 21.53125 55.367188 22.800781 52.488281 23.375 C 51.652344 23.527344 50.816406 23.558594 50.011719 23.648438 Z M 57.378906 11.425781 C 57.347656 11.03125 57.347656 10.730469 57.285156 10.425781 C 56.726562 7.433594 53.910156 5.738281 50.972656 6.402344 C 48.09375 7.039062 46.234375 8.824219 45.554688 11.667969 C 45 14.027344 46.175781 16.417969 48.402344 17.386719 C 50.105469 18.109375 51.804688 18.019531 53.445312 17.203125 C 55.890625 15.964844 57.222656 14.027344 57.378906 11.425781 Z M 57.378906 11.425781 "/>
</g>
</svg>
