<?xml version="1.0" encoding="UTF-8"?>
<svg xmlns="http://www.w3.org/2000/svg" xmlns:xlink="http://www.w3.org/1999/xlink" width="64px" height="64px" viewBox="0 0 64 32" version="1.1">
<g id="surface1">
<path style=" stroke:none;fill-rule:nonzero;fill:rgb(100%,100%,100%);fill-opacity:1;" d="M 45.765625 21.605469 C 45.765625 21.605469 45.71875 21.324219 45.695312 21.324219 L 40.597656 21.816406 C 40.195312 21.855469 39.878906 22.179688 39.851562 22.585938 L 39.710938 24.589844 L 35.769531 24.871094 L 35.5 23.054688 C 35.4375 22.648438 35.089844 22.347656 34.679688 22.34375 L 29.300781 22.34375 C 28.894531 22.34375 28.539062 22.648438 28.480469 23.054688 L 28.210938 24.871094 L 24.269531 24.589844 L 24.128906 22.585938 C 24.101562 22.179688 23.785156 21.855469 23.382812 21.816406 L 18.285156 21.324219 C 18.257812 21.324219 18.238281 21.605469 18.210938 21.605469 L 18.203125 22.707031 L 22.523438 23.402344 L 22.664062 25.425781 C 22.691406 25.839844 23.019531 26.167969 23.433594 26.199219 L 28.859375 26.585938 C 29.292969 26.613281 29.675781 26.308594 29.742188 25.878906 L 30.019531 24.007812 L 33.960938 24.007812 L 34.238281 25.878906 C 34.300781 26.304688 34.683594 26.613281 35.117188 26.585938 L 40.546875 26.199219 C 40.957031 26.167969 41.285156 25.839844 41.316406 25.425781 L 41.457031 23.402344 L 45.773438 22.703125 Z M 45.765625 21.605469 "/>
<path style=" stroke:none;fill-rule:nonzero;fill:rgb(100%,100%,100%);fill-opacity:1;" d="M 28.820312 0.492188 C 28.742188 0.492188 28.664062 0.5 28.589844 0.515625 C 27.105469 0.847656 25.609375 1.3125 24.1875 2.027344 C 23.859375 2.191406 23.652344 2.53125 23.664062 2.902344 C 23.6875 3.890625 23.777344 4.855469 23.882812 5.828125 C 23.515625 6.050781 23.144531 6.253906 22.738281 6.578125 C 22.449219 6.800781 22.125 7.085938 21.808594 7.347656 C 21.070312 6.882812 20.324219 6.421875 19.535156 6.023438 C 19.15625 5.835938 18.699219 5.917969 18.410156 6.226562 C 17.335938 7.382812 16.316406 8.648438 15.472656 10.082031 C 15.292969 10.386719 15.300781 10.761719 15.484375 11.0625 C 16.042969 11.964844 16.636719 12.808594 17.261719 13.625 L 17.261719 23.855469 C 17.261719 26.675781 19.136719 28.832031 21.824219 30.113281 C 24.511719 31.398438 28.066406 31.984375 31.976562 32 L 32.003906 32 C 35.914062 31.984375 39.46875 31.398438 42.15625 30.113281 C 44.839844 28.832031 46.71875 26.675781 46.71875 23.855469 L 46.71875 13.890625 C 47.355469 12.957031 47.878906 12.058594 48.496094 11.0625 C 48.679688 10.765625 48.683594 10.386719 48.507812 10.082031 C 47.664062 8.648438 46.644531 7.382812 45.570312 6.230469 C 45.28125 5.917969 44.824219 5.835938 44.445312 6.027344 C 43.65625 6.421875 42.910156 6.886719 42.171875 7.347656 C 41.855469 7.085938 41.535156 6.804688 41.242188 6.578125 C 41.242188 6.578125 41.242188 6.578125 41.238281 6.578125 C 40.832031 6.25 40.464844 6.050781 40.09375 5.828125 C 40.203125 4.855469 40.292969 3.890625 40.316406 2.902344 C 40.324219 2.53125 40.121094 2.191406 39.792969 2.027344 C 38.371094 1.308594 36.875 0.84375 35.386719 0.515625 C 34.988281 0.425781 34.574219 0.605469 34.363281 0.957031 C 33.882812 1.765625 33.472656 2.625 33.070312 3.472656 C 32.714844 3.441406 32.355469 3.390625 32.011719 3.386719 L 31.96875 3.386719 C 31.625 3.390625 31.261719 3.441406 30.90625 3.472656 C 30.523438 2.65625 30.125 1.835938 29.667969 1.058594 C 29.515625 0.722656 29.1875 0.5 28.820312 0.492188 Z M 28.820312 0.492188 "/>
<path style=" stroke:none;fill-rule:nonzero;fill:rgb(27.843137%,54.901961%,74.901961%);fill-opacity:1;" d="M 28.796875 1.421875 C 27.363281 1.738281 25.945312 2.183594 24.613281 2.851562 C 24.644531 4.027344 24.722656 5.152344 24.875 6.292969 C 24.359375 6.625 23.816406 6.910156 23.332031 7.296875 C 22.84375 7.675781 22.34375 8.035156 21.898438 8.476562 C 21 7.878906 20.066406 7.339844 19.105469 6.851562 C 18.0625 7.972656 17.089844 9.183594 16.292969 10.539062 C 16.894531 11.507812 17.519531 12.414062 18.191406 13.277344 L 18.210938 13.277344 L 18.210938 21.589844 C 18.226562 21.589844 18.242188 21.589844 18.257812 21.59375 L 23.355469 22.085938 C 23.621094 22.113281 23.832031 22.328125 23.847656 22.59375 L 24.007812 24.84375 L 28.453125 25.160156 L 28.757812 23.085938 C 28.796875 22.816406 29.027344 22.617188 29.300781 22.617188 L 34.679688 22.617188 C 34.949219 22.617188 35.179688 22.816406 35.222656 23.085938 L 35.527344 25.160156 L 39.972656 24.84375 L 40.132812 22.59375 C 40.148438 22.328125 40.359375 22.113281 40.625 22.085938 L 45.71875 21.59375 C 45.734375 21.59375 45.75 21.589844 45.765625 21.589844 L 45.765625 20.925781 L 45.769531 20.925781 L 45.769531 13.277344 L 45.785156 13.277344 C 46.460938 12.417969 47.085938 11.507812 47.6875 10.539062 C 46.890625 9.183594 45.914062 7.972656 44.871094 6.851562 C 43.910156 7.339844 42.980469 7.882812 42.082031 8.476562 C 41.636719 8.035156 41.136719 7.675781 40.648438 7.296875 C 40.164062 6.910156 39.621094 6.625 39.105469 6.296875 C 39.257812 5.152344 39.335938 4.027344 39.363281 2.851562 C 38.035156 2.183594 36.617188 1.738281 35.183594 1.421875 C 34.609375 2.382812 34.085938 3.425781 33.628906 4.445312 C 33.089844 4.355469 32.542969 4.320312 32 4.316406 L 31.980469 4.316406 C 31.433594 4.320312 30.890625 4.355469 30.351562 4.445312 C 29.894531 3.425781 29.371094 2.382812 28.796875 1.421875 Z M 18.203125 22.691406 C 18.207031 23.183594 18.210938 23.722656 18.210938 23.832031 C 18.210938 28.671875 24.351562 30.996094 31.980469 31.023438 L 32 31.023438 C 39.628906 30.996094 45.765625 28.671875 45.765625 23.832031 C 45.765625 23.71875 45.773438 23.183594 45.773438 22.691406 L 41.195312 23.132812 L 41.035156 25.394531 C 41.015625 25.667969 40.800781 25.882812 40.527344 25.902344 L 35.097656 26.289062 L 35.058594 26.289062 C 34.785156 26.289062 34.554688 26.089844 34.515625 25.820312 L 34.207031 23.710938 L 29.777344 23.710938 L 29.464844 25.820312 C 29.421875 26.105469 29.167969 26.308594 28.882812 26.289062 L 23.453125 25.902344 C 23.179688 25.882812 22.964844 25.664062 22.945312 25.394531 L 22.789062 23.132812 Z M 18.203125 22.691406 "/>
<path style=" stroke:none;fill-rule:nonzero;fill:rgb(100%,100%,100%);fill-opacity:1;" d="M 27.835938 16.660156 C 27.820312 18.34375 26.449219 19.699219 24.765625 19.699219 C 23.082031 19.699219 21.710938 18.34375 21.695312 16.660156 C 21.695312 14.964844 23.070312 13.589844 24.765625 13.589844 C 26.460938 13.589844 27.835938 14.964844 27.835938 16.660156 M 31.988281 20.023438 C 31.445312 20.023438 31 19.621094 31 19.125 L 31 16.296875 C 31 15.804688 31.445312 15.398438 31.988281 15.398438 C 32.535156 15.398438 32.980469 15.804688 32.980469 16.296875 L 32.980469 19.125 C 32.980469 19.621094 32.535156 20.023438 31.988281 20.023438 M 36.144531 16.660156 C 36.144531 18.359375 37.519531 19.734375 39.214844 19.734375 C 40.910156 19.734375 42.285156 18.355469 42.285156 16.660156 C 42.285156 14.964844 40.910156 13.589844 39.214844 13.589844 C 37.519531 13.589844 36.144531 14.964844 36.144531 16.660156 "/>
<path style=" stroke:none;fill-rule:nonzero;fill:rgb(25.490196%,25.098039%,25.882353%);fill-opacity:1;" d="M 25.058594 14.808594 C 23.933594 14.808594 23.019531 15.71875 23.019531 16.84375 C 23.019531 17.972656 23.933594 18.882812 25.058594 18.882812 C 26.167969 18.859375 27.050781 17.953125 27.050781 16.84375 C 27.050781 15.738281 26.167969 14.832031 25.058594 14.808594 Z M 38.921875 14.808594 C 37.792969 14.808594 36.882812 15.71875 36.882812 16.847656 C 36.882812 17.972656 37.792969 18.882812 38.921875 18.882812 C 40.035156 18.871094 40.933594 17.960938 40.933594 16.84375 C 40.933594 15.730469 40.035156 14.820312 38.921875 14.808594 Z M 38.921875 14.808594 "/>
</g>
</svg>
