<?xml version="1.0" encoding="UTF-8"?>
<svg xmlns="http://www.w3.org/2000/svg" xmlns:xlink="http://www.w3.org/1999/xlink" width="64px" height="64px" viewBox="0 0 64 119" version="1.1">
<g id="surface1">
<path style=" stroke:none;fill-rule:nonzero;fill:rgb(90.588235%,43.529412%,0%);fill-opacity:1;" d="M 61.304688 93.835938 L 60.855469 93.835938 L 60.855469 93.585938 L 62.0625 93.585938 L 62.0625 93.835938 L 61.617188 93.835938 L 61.617188 95.085938 L 61.304688 95.085938 Z M 63.710938 93.902344 L 63.703125 93.902344 L 63.261719 95.085938 L 63.058594 95.085938 L 62.617188 93.902344 L 62.609375 93.902344 L 62.609375 95.085938 L 62.316406 95.085938 L 62.316406 93.585938 L 62.75 93.585938 L 63.160156 94.648438 L 63.566406 93.585938 L 64 93.585938 L 64 95.085938 L 63.710938 95.085938 Z M 63.710938 93.902344 "/>
<path style=" stroke:none;fill-rule:nonzero;fill:rgb(32.54902%,50.980392%,63.137255%);fill-opacity:1;" d="M 21.160156 63.125 C 21.160156 63.125 18.039062 64.9375 23.378906 65.550781 C 29.851562 66.289062 33.15625 66.183594 40.285156 64.832031 C 40.285156 64.832031 42.160156 66.007812 44.777344 67.027344 C 28.796875 73.875 8.605469 66.628906 21.160156 63.125 M 19.207031 54.1875 C 19.207031 54.1875 15.707031 56.777344 21.050781 57.328125 C 27.960938 58.042969 33.421875 58.101562 42.863281 56.28125 C 42.863281 56.28125 44.171875 57.605469 46.226562 58.332031 C 26.902344 63.980469 5.378906 58.777344 19.207031 54.1875 "/>
<path style=" stroke:none;fill-rule:nonzero;fill:rgb(90.588235%,43.529412%,0%);fill-opacity:1;" d="M 35.671875 39.03125 C 39.609375 43.5625 34.636719 47.640625 34.636719 47.640625 C 34.636719 47.640625 44.636719 42.480469 40.042969 36.019531 C 35.753906 29.992188 32.464844 27 50.273438 16.675781 C 50.273438 16.675781 22.320312 23.65625 35.671875 39.03125 "/>
<path style=" stroke:none;fill-rule:nonzero;fill:rgb(32.54902%,50.980392%,63.137255%);fill-opacity:1;" d="M 56.808594 69.734375 C 56.808594 69.734375 59.117188 71.632812 54.265625 73.105469 C 45.042969 75.898438 15.871094 76.742188 7.765625 73.21875 C 4.851562 71.949219 10.316406 70.191406 12.035156 69.824219 C 13.824219 69.433594 14.851562 69.507812 14.851562 69.507812 C 11.609375 67.226562 -6.089844 73.984375 5.859375 75.921875 C 38.445312 81.207031 65.261719 73.542969 56.808594 69.734375 M 22.660156 44.929688 C 22.660156 44.929688 7.820312 48.453125 17.40625 49.734375 C 21.453125 50.273438 29.519531 50.152344 37.03125 49.523438 C 43.175781 49.003906 49.339844 47.902344 49.339844 47.902344 C 49.339844 47.902344 47.175781 48.832031 45.609375 49.898438 C 30.539062 53.863281 1.429688 52.019531 9.808594 47.964844 C 16.898438 44.542969 22.660156 44.929688 22.660156 44.929688 M 49.277344 59.804688 C 64.597656 51.847656 57.515625 44.199219 52.570312 45.230469 C 51.359375 45.484375 50.820312 45.699219 50.820312 45.699219 C 50.820312 45.699219 51.269531 44.996094 52.128906 44.691406 C 61.90625 41.253906 69.429688 54.828125 48.972656 60.203125 C 48.972656 60.203125 49.207031 59.992188 49.277344 59.804688 "/>
<path style=" stroke:none;fill-rule:nonzero;fill:rgb(90.588235%,43.529412%,0%);fill-opacity:1;" d="M 40.042969 0.0078125 C 40.042969 0.0078125 48.527344 8.492188 31.996094 21.535156 C 18.742188 32 28.976562 37.964844 31.992188 44.78125 C 24.253906 37.804688 18.578125 31.660156 22.386719 25.941406 C 27.976562 17.550781 43.46875 13.480469 40.042969 0.0078125 "/>
<path style=" stroke:none;fill-rule:nonzero;fill:rgb(32.54902%,50.980392%,63.137255%);fill-opacity:1;" d="M 24.164062 81.363281 C 38.867188 82.304688 61.449219 80.84375 61.980469 73.886719 C 61.980469 73.886719 60.953125 76.523438 49.832031 78.617188 C 37.28125 80.976562 21.800781 80.703125 12.621094 79.191406 C 12.621094 79.191406 14.5 80.746094 24.164062 81.363281 "/>
<path style=" stroke:none;fill-rule:nonzero;fill:rgb(90.588235%,43.529412%,0%);fill-opacity:1;" d="M 21.753906 107.9375 C 20.367188 109.140625 18.902344 109.816406 17.589844 109.816406 C 15.710938 109.816406 14.699219 108.691406 14.699219 106.886719 C 14.699219 104.933594 15.785156 103.507812 20.144531 103.507812 L 21.753906 103.507812 L 21.753906 107.9375 M 25.582031 112.253906 L 25.582031 98.890625 C 25.582031 95.480469 23.636719 93.226562 18.941406 93.226562 C 16.199219 93.226562 13.796875 93.902344 11.84375 94.765625 L 12.410156 97.132812 C 13.945312 96.566406 15.933594 96.042969 17.886719 96.042969 C 20.59375 96.042969 21.753906 97.132812 21.753906 99.382812 L 21.753906 101.070312 L 20.40625 101.070312 C 13.832031 101.070312 10.867188 103.621094 10.867188 107.449219 C 10.867188 110.753906 12.824219 112.628906 16.5 112.628906 C 18.867188 112.628906 20.628906 111.652344 22.28125 110.226562 L 22.582031 112.253906 Z M 38.355469 112.253906 L 33.582031 112.253906 L 27.835938 93.566406 L 32.007812 93.566406 L 35.570312 105.046875 L 36.363281 108.5 C 38.167969 103.507812 39.441406 98.441406 40.082031 93.566406 L 44.136719 93.566406 C 43.050781 99.71875 41.09375 106.472656 38.355469 112.253906 M 56.667969 107.9375 C 55.277344 109.140625 53.8125 109.816406 52.496094 109.816406 C 50.621094 109.816406 49.605469 108.691406 49.605469 106.886719 C 49.605469 104.933594 50.695312 103.507812 55.050781 103.507812 L 56.667969 103.507812 L 56.667969 107.9375 M 60.496094 112.253906 L 60.496094 98.890625 C 60.496094 95.480469 58.542969 93.226562 53.851562 93.226562 C 51.109375 93.226562 48.707031 93.902344 46.757812 94.765625 L 47.320312 97.132812 C 48.855469 96.566406 50.847656 96.042969 52.800781 96.042969 C 55.503906 96.042969 56.667969 97.132812 56.667969 99.382812 L 56.667969 101.070312 L 55.316406 101.070312 C 48.742188 101.070312 45.777344 103.621094 45.777344 107.449219 C 45.777344 110.753906 47.730469 112.628906 51.40625 112.628906 C 53.773438 112.628906 55.539062 111.652344 57.191406 110.226562 L 57.492188 112.253906 Z M 6.671875 115.425781 C 5.582031 117.019531 3.820312 118.28125 1.890625 118.992188 L 0 116.769531 C 1.46875 116.015625 2.726562 114.800781 3.3125 113.667969 C 3.820312 112.660156 4.027344 111.359375 4.027344 108.253906 L 4.027344 86.917969 L 8.09375 86.917969 L 8.09375 107.960938 C 8.09375 112.113281 7.761719 113.792969 6.671875 115.425781 "/>
</g>
</svg>
