<?xml version="1.0" encoding="UTF-8"?>
<svg xmlns="http://www.w3.org/2000/svg" xmlns:xlink="http://www.w3.org/1999/xlink" width="64px" height="64px" viewBox="0 0 64 58" version="1.1">
<g id="surface1">
<path style=" stroke:none;fill-rule:nonzero;fill:rgb(7.058824%,40%,66.27451%);fill-opacity:1;" d="M 8.242188 37.386719 C 8.296875 37.511719 8.355469 37.625 8.421875 37.738281 C 8.453125 37.804688 8.496094 37.871094 8.535156 37.933594 C 8.597656 38.054688 8.664062 38.171875 8.726562 38.292969 L 9.101562 38.914062 C 9.167969 39.03125 9.238281 39.144531 9.316406 39.257812 C 9.445312 39.476562 9.601562 39.695312 9.734375 39.917969 C 9.796875 40.007812 9.855469 40.101562 9.921875 40.191406 C 10.183594 40.597656 10.421875 40.933594 10.675781 41.257812 C 10.855469 41.5 11.039062 41.738281 11.234375 41.976562 C 11.296875 42.066406 11.367188 42.15625 11.433594 42.246094 L 11.960938 42.878906 C 12.023438 42.953125 12.089844 43.035156 12.15625 43.113281 C 12.390625 43.390625 12.636719 43.660156 12.882812 43.933594 C 12.882812 43.9375 12.890625 43.941406 12.894531 43.949219 C 13.203125 44.332031 13.53125 44.671875 13.894531 44.972656 L 13.902344 44.984375 C 14.09375 45.175781 14.285156 45.367188 14.484375 45.554688 L 14.726562 45.785156 C 14.988281 46.03125 15.253906 46.273438 15.53125 46.507812 C 15.535156 46.507812 15.539062 46.515625 15.542969 46.515625 L 15.679688 46.632812 C 15.921875 46.84375 16.167969 47.050781 16.414062 47.246094 L 16.710938 47.492188 C 16.914062 47.652344 17.125 47.804688 17.332031 47.964844 L 17.652344 48.207031 C 17.875 48.375 18.109375 48.535156 18.335938 48.695312 C 18.417969 48.753906 18.503906 48.8125 18.589844 48.867188 L 18.65625 48.921875 L 19.324219 49.355469 L 19.609375 49.542969 C 19.960938 49.765625 20.304688 49.972656 20.652344 50.179688 C 20.753906 50.230469 20.851562 50.285156 20.945312 50.339844 C 21.203125 50.488281 21.46875 50.636719 21.726562 50.769531 C 21.871094 50.851562 22.015625 50.917969 22.164062 50.992188 C 22.34375 51.089844 22.527344 51.1875 22.71875 51.289062 C 22.769531 51.304688 22.8125 51.320312 22.855469 51.34375 L 22.867188 51.335938 C 22.945312 51.371094 23.019531 51.40625 23.09375 51.445312 C 23.378906 51.585938 23.675781 51.722656 23.984375 51.855469 C 24.042969 51.878906 24.105469 51.902344 24.164062 51.933594 C 24.507812 52.082031 24.851562 52.222656 25.203125 52.359375 C 25.285156 52.382812 25.371094 52.425781 25.453125 52.457031 C 25.773438 52.574219 26.105469 52.699219 26.433594 52.8125 L 26.550781 52.855469 C 26.914062 52.980469 27.273438 53.097656 27.644531 53.207031 C 27.730469 53.230469 27.816406 53.261719 27.910156 53.285156 C 28.285156 53.398438 28.652344 53.535156 29.035156 53.605469 C 53.449219 58 60.542969 39.101562 60.542969 39.101562 C 54.582031 46.769531 44.003906 48.792969 33.988281 46.542969 C 33.617188 46.457031 33.246094 46.339844 32.871094 46.230469 C 32.339844 46.082031 31.816406 45.917969 31.296875 45.738281 L 31.519531 45.804688 L 31.375 45.75 C 31.050781 45.640625 30.738281 45.519531 30.421875 45.402344 C 30.34375 45.367188 30.265625 45.339844 30.1875 45.3125 L 30.160156 45.304688 C 29.8125 45.164062 29.472656 45.023438 29.136719 44.875 C 29.0625 44.851562 29 44.816406 28.925781 44.789062 C 28.527344 44.617188 28.128906 44.4375 27.738281 44.246094 L 28.066406 44.390625 C 27.980469 44.351562 27.894531 44.3125 27.8125 44.269531 C 27.589844 44.164062 27.367188 44.046875 27.148438 43.933594 C 26.980469 43.855469 26.816406 43.773438 26.65625 43.683594 L 26.703125 43.707031 C 26.433594 43.566406 26.167969 43.414062 25.894531 43.269531 C 25.816406 43.214844 25.722656 43.167969 25.628906 43.113281 C 25.226562 42.882812 24.828125 42.640625 24.4375 42.390625 L 24.585938 42.480469 C 24.484375 42.421875 24.386719 42.355469 24.292969 42.285156 L 24.304688 42.296875 C 24.050781 42.140625 23.800781 41.976562 23.554688 41.804688 C 23.472656 41.753906 23.398438 41.695312 23.316406 41.640625 C 23.0625 41.464844 22.808594 41.285156 22.5625 41.101562 L 22.617188 41.140625 C 22.519531 41.0625 22.410156 40.984375 22.304688 40.90625 C 22.09375 40.746094 21.882812 40.589844 21.675781 40.417969 L 21.394531 40.199219 C 21.09375 39.960938 20.800781 39.71875 20.515625 39.46875 L 20.511719 39.464844 L 19.6875 38.722656 L 19.449219 38.5 C 19.253906 38.304688 19.054688 38.121094 18.855469 37.925781 L 18.625 37.691406 C 18.378906 37.449219 18.140625 37.199219 17.90625 36.945312 L 17.890625 36.929688 L 17.851562 36.898438 C 17.597656 36.621094 17.351562 36.34375 17.105469 36.0625 C 17.042969 35.992188 16.984375 35.914062 16.917969 35.835938 L 16.378906 35.1875 C 16.132812 34.882812 15.898438 34.574219 15.664062 34.265625 L 15.570312 34.132812 C 10.011719 26.636719 8.003906 16.296875 12.449219 7.8125 L 8.523438 12.742188 C 3.472656 19.910156 4.097656 29.234375 7.960938 36.851562 C 8.046875 37.035156 8.144531 37.210938 8.242188 37.386719 Z M 8.242188 37.386719 "/>
<path style=" stroke:none;fill-rule:nonzero;fill:rgb(0%,0%,0%);fill-opacity:1;" d="M 25.25 27.058594 L 25.222656 27.019531 L 25.203125 26.992188 Z M 25.25 27.058594 "/>
<path style=" stroke:none;fill-rule:nonzero;fill:rgb(7.058824%,40%,66.27451%);fill-opacity:1;" d="M 27.90625 30.152344 L 28.121094 30.367188 C 28.390625 30.625 28.667969 30.878906 28.953125 31.128906 L 28.988281 31.160156 C 29.273438 31.410156 29.59375 31.671875 29.925781 31.929688 L 29.972656 31.964844 C 30.054688 32.019531 30.125 32.082031 30.203125 32.136719 C 30.535156 32.394531 30.871094 32.636719 31.21875 32.878906 L 31.253906 32.898438 C 31.402344 33.007812 31.558594 33.101562 31.726562 33.207031 C 31.792969 33.25 31.867188 33.304688 31.9375 33.347656 C 32.191406 33.507812 32.4375 33.65625 32.691406 33.8125 C 32.734375 33.828125 32.769531 33.847656 32.804688 33.863281 C 33.019531 33.996094 33.253906 34.121094 33.476562 34.234375 C 33.554688 34.28125 33.632812 34.316406 33.710938 34.359375 C 33.871094 34.4375 34.027344 34.519531 34.179688 34.601562 L 34.257812 34.632812 C 34.578125 34.789062 34.90625 34.9375 35.226562 35.082031 C 35.304688 35.109375 35.375 35.136719 35.445312 35.171875 C 35.707031 35.285156 35.976562 35.390625 36.242188 35.492188 C 36.359375 35.53125 36.472656 35.578125 36.582031 35.613281 C 36.824219 35.703125 37.078125 35.785156 37.320312 35.867188 L 37.652344 35.972656 C 38 36.082031 38.351562 36.21875 38.71875 36.277344 C 57.570312 39.359375 61.933594 25.019531 61.933594 25.019531 C 58.007812 30.605469 50.40625 33.265625 42.304688 31.1875 C 41.898438 31.085938 41.496094 30.972656 41.101562 30.84375 L 41.234375 30.882812 C 41.121094 30.851562 41.023438 30.816406 40.914062 30.785156 C 40.664062 30.699219 40.410156 30.617188 40.171875 30.527344 L 39.828125 30.402344 C 39.5625 30.296875 39.292969 30.195312 39.03125 30.082031 C 38.953125 30.046875 38.878906 30.023438 38.816406 29.988281 C 38.484375 29.839844 38.148438 29.695312 37.824219 29.539062 L 37.332031 29.285156 L 37.050781 29.144531 C 36.832031 29.03125 36.628906 28.914062 36.421875 28.792969 C 36.367188 28.765625 36.316406 28.738281 36.265625 28.707031 L 36.273438 28.710938 C 36.023438 28.554688 35.761719 28.402344 35.519531 28.246094 C 35.4375 28.199219 35.363281 28.144531 35.289062 28.097656 L 34.792969 27.78125 C 34.449219 27.542969 34.117188 27.292969 33.777344 27.046875 C 33.699219 26.976562 33.625 26.921875 33.554688 26.859375 C 29.992188 24.09375 27.179688 20.308594 25.847656 16.027344 C 24.445312 11.574219 24.753906 6.582031 27.179688 2.53125 L 24.195312 6.703125 C 20.535156 11.894531 20.742188 18.835938 23.59375 24.332031 C 24.113281 25.34375 24.640625 26.203125 25.222656 27.019531 C 25.765625 27.789062 26.363281 28.6875 27.085938 29.308594 C 27.34375 29.597656 27.617188 29.871094 27.90625 30.152344 Z M 27.90625 30.152344 "/>
<path style=" stroke:none;fill-rule:nonzero;fill:rgb(0%,0%,0%);fill-opacity:1;" d="M 10.6875 41.273438 L 10.679688 41.257812 L 10.664062 41.234375 Z M 20.570312 39.515625 L 20.59375 39.53125 L 20.597656 39.539062 Z M 20.570312 39.515625 "/>
<path style=" stroke:none;fill-rule:nonzero;fill:rgb(7.058824%,40%,66.27451%);fill-opacity:1;" d="M 37.375 2.1875 C 35.214844 5.316406 35.007812 9.207031 36.496094 12.660156 C 38.078125 16.324219 41.308594 19.203125 45.070312 20.566406 C 45.226562 20.625 45.375 20.675781 45.535156 20.734375 L 45.746094 20.796875 C 45.960938 20.863281 46.183594 20.945312 46.410156 20.996094 C 56.820312 22.980469 59.640625 15.714844 60.398438 14.644531 C 57.917969 18.160156 53.761719 19.003906 48.664062 17.78125 C 48.21875 17.671875 47.78125 17.539062 47.355469 17.378906 L 47.433594 17.40625 C 46.902344 17.222656 46.382812 17.011719 45.875 16.769531 L 45.964844 16.808594 C 44.992188 16.335938 44.15625 15.828125 43.378906 15.242188 C 38.820312 11.820312 36 5.304688 38.976562 0 Z M 37.375 2.1875 "/>
</g>
</svg>
