<?xml version="1.0" encoding="UTF-8"?>
<svg xmlns="http://www.w3.org/2000/svg" xmlns:xlink="http://www.w3.org/1999/xlink" width="64px" height="64px" viewBox="0 0 64 64" version="1.1">
<g id="surface1">
<path style=" stroke:none;fill-rule:nonzero;fill:rgb(79.215686%,23.529412%,19.607843%);fill-opacity:1;" d="M 14.523438 61.664062 C 6.5 61.652344 0 55.140625 0.0078125 47.117188 C 0.0117188 39.09375 6.519531 32.59375 14.542969 32.597656 C 22.570312 32.601562 29.074219 39.105469 29.074219 47.128906 C 29.0625 55.160156 22.554688 61.664062 14.523438 61.664062 Z M 14.523438 61.664062 "/>
<path style=" stroke:none;fill-rule:nonzero;fill:rgb(57.254902%,34.901961%,63.921569%);fill-opacity:1;" d="M 49.453125 61.664062 C 41.425781 61.652344 34.929688 55.144531 34.933594 47.117188 C 34.941406 39.09375 41.449219 32.59375 49.472656 32.597656 C 57.496094 32.601562 64 39.105469 64 47.128906 C 63.988281 55.15625 57.480469 61.660156 49.453125 61.660156 Z M 49.453125 61.664062 "/>
<path style=" stroke:none;fill-rule:nonzero;fill:rgb(22.352941%,59.215686%,27.45098%);fill-opacity:1;" d="M 31.996094 31.402344 C 23.96875 31.402344 17.460938 24.898438 17.460938 16.871094 C 17.460938 8.84375 23.96875 2.335938 31.996094 2.335938 C 40.019531 2.335938 46.527344 8.84375 46.527344 16.871094 C 46.53125 20.726562 45 24.425781 42.273438 27.152344 C 39.550781 29.878906 35.851562 31.40625 31.996094 31.402344 Z M 31.996094 31.402344 "/>
</g>
</svg>
