<?xml version="1.0" encoding="UTF-8"?>
<svg xmlns="http://www.w3.org/2000/svg" xmlns:xlink="http://www.w3.org/1999/xlink" width="64px" height="64px" viewBox="0 0 64 63" version="1.1">
<g id="surface1">
<path style=" stroke:none;fill-rule:nonzero;fill:rgb(0%,32.941176%,41.960784%);fill-opacity:1;" d="M 58.910156 48.550781 C 55.433594 48.464844 52.734375 48.8125 50.472656 49.769531 C 49.820312 50.03125 48.777344 50.03125 48.691406 50.855469 C 49.039062 51.207031 49.082031 51.769531 49.386719 52.25 C 49.910156 53.117188 50.820312 54.292969 51.648438 54.902344 C 52.5625 55.597656 53.476562 56.292969 54.433594 56.902344 C 56.128906 57.945312 58.042969 58.554688 59.695312 59.597656 C 60.652344 60.207031 61.609375 60.992188 62.566406 61.644531 C 63.042969 61.992188 63.347656 62.558594 63.957031 62.773438 L 63.957031 62.644531 C 63.652344 62.253906 63.566406 61.6875 63.261719 61.253906 C 62.828125 60.816406 62.390625 60.425781 61.957031 59.992188 C 60.695312 58.292969 59.128906 56.816406 57.433594 55.597656 C 56.042969 54.640625 52.996094 53.335938 52.429688 51.726562 C 52.429688 51.726562 52.386719 51.683594 52.34375 51.640625 C 53.300781 51.554688 54.433594 51.207031 55.34375 50.945312 C 56.824219 50.550781 58.171875 50.640625 59.695312 50.25 C 60.390625 50.074219 61.085938 49.855469 61.78125 49.640625 L 61.78125 49.246094 C 61 48.464844 60.433594 47.421875 59.609375 46.683594 C 57.390625 44.769531 54.953125 42.898438 52.429688 41.332031 C 51.082031 40.460938 49.34375 39.898438 47.90625 39.15625 C 47.386719 38.894531 46.515625 38.765625 46.210938 38.332031 C 45.429688 37.375 44.992188 36.113281 44.429688 34.980469 C 43.167969 32.589844 41.949219 29.9375 40.859375 27.414062 C 40.078125 25.71875 39.601562 24.019531 38.644531 22.457031 C 34.164062 15.0625 29.292969 10.582031 21.8125 6.1875 C 20.203125 5.273438 18.289062 4.882812 16.242188 4.40625 C 15.15625 4.363281 14.070312 4.273438 12.980469 4.230469 C 12.285156 3.925781 11.589844 3.101562 10.980469 2.710938 C 8.5 1.144531 2.105469 -2.25 0.28125 2.230469 C -0.894531 5.058594 2.019531 7.839844 3.019531 9.277344 C 3.761719 10.277344 4.71875 11.40625 5.238281 12.539062 C 5.542969 13.277344 5.628906 14.0625 5.933594 14.84375 C 6.632812 16.757812 7.28125 18.890625 8.195312 20.671875 C 8.675781 21.585938 9.195312 22.542969 9.804688 23.367188 C 10.152344 23.847656 10.761719 24.066406 10.894531 24.847656 C 10.285156 25.71875 10.242188 27.023438 9.894531 28.109375 C 8.328125 33.023438 8.9375 39.113281 11.152344 42.722656 C 11.851562 43.8125 13.503906 46.203125 15.722656 45.289062 C 17.679688 44.507812 17.242188 42.027344 17.808594 39.851562 C 17.941406 39.332031 17.851562 38.984375 18.113281 38.636719 L 18.113281 38.722656 C 18.722656 39.941406 19.332031 41.113281 19.898438 42.332031 C 21.246094 44.464844 23.59375 46.683594 25.550781 48.160156 C 26.59375 48.941406 27.421875 50.292969 28.726562 50.769531 L 28.726562 50.640625 L 28.640625 50.640625 C 28.378906 50.246094 27.988281 50.074219 27.640625 49.769531 C 26.855469 48.988281 25.984375 48.03125 25.378906 47.160156 C 23.550781 44.722656 21.941406 42.027344 20.503906 39.242188 C 19.808594 37.894531 19.199219 36.417969 18.636719 35.070312 C 18.375 34.546875 18.375 33.765625 17.941406 33.503906 C 17.285156 34.460938 16.332031 35.285156 15.851562 36.460938 C 15.027344 38.332031 14.9375 40.636719 14.632812 43.027344 C 14.460938 43.070312 14.546875 43.027344 14.460938 43.117188 C 13.066406 42.765625 12.589844 41.332031 12.066406 40.113281 C 10.761719 37.027344 10.546875 32.066406 11.675781 28.5 C 11.980469 27.585938 13.285156 24.71875 12.765625 23.847656 C 12.503906 23.019531 11.632812 22.542969 11.152344 21.890625 C 10.589844 21.0625 9.980469 20.019531 9.589844 19.105469 C 8.542969 16.671875 8.023438 13.972656 6.890625 11.539062 C 6.371094 10.40625 5.457031 9.234375 4.71875 8.191406 C 3.890625 7.015625 2.976562 6.1875 2.324219 4.796875 C 2.109375 4.320312 1.804688 3.535156 2.152344 3.015625 C 2.238281 2.664062 2.410156 2.535156 2.757812 2.449219 C 3.324219 1.96875 4.933594 2.578125 5.5 2.839844 C 7.109375 3.492188 8.457031 4.101562 9.804688 5.015625 C 10.414062 5.449219 11.066406 6.277344 11.851562 6.492188 L 12.761719 6.492188 C 14.15625 6.796875 15.722656 6.582031 17.027344 6.972656 C 19.332031 7.710938 21.417969 8.796875 23.289062 9.972656 C 28.988281 13.582031 33.683594 18.714844 36.859375 24.847656 C 37.382812 25.847656 37.597656 26.761719 38.078125 27.804688 C 38.992188 29.9375 40.121094 32.109375 41.035156 34.199219 C 41.949219 36.242188 42.820312 38.332031 44.125 40.027344 C 44.777344 40.941406 47.386719 41.417969 48.558594 41.898438 C 49.429688 42.289062 50.777344 42.636719 51.5625 43.113281 C 53.039062 44.027344 54.519531 45.074219 55.910156 46.074219 C 56.605469 46.59375 58.78125 47.683594 58.910156 48.550781 Z M 58.910156 48.550781 "/>
<path style=" stroke:none;fill-rule:nonzero;fill:rgb(0%,32.941176%,41.960784%);fill-opacity:1;" d="M 14.546875 10.753906 C 13.808594 10.753906 13.285156 10.84375 12.761719 10.972656 L 12.761719 11.058594 L 12.851562 11.058594 C 13.199219 11.757812 13.808594 12.234375 14.242188 12.84375 C 14.589844 13.539062 14.894531 14.234375 15.242188 14.929688 C 15.285156 14.886719 15.328125 14.84375 15.328125 14.84375 C 15.9375 14.410156 16.242188 13.714844 16.242188 12.667969 C 15.980469 12.363281 15.9375 12.058594 15.722656 11.757812 C 15.460938 11.320312 14.894531 11.101562 14.546875 10.753906 Z M 14.546875 10.753906 "/>
</g>
</svg>
