<?xml version="1.0" encoding="UTF-8"?>
<svg xmlns="http://www.w3.org/2000/svg" xmlns:xlink="http://www.w3.org/1999/xlink" width="64px" height="64px" viewBox="0 0 64 64" version="1.1">
<g id="surface1">
<path style=" stroke:none;fill-rule:nonzero;fill:rgb(0%,0%,0%);fill-opacity:1;" d="M 29.90625 0.0507812 C 29.769531 0.0625 29.332031 0.105469 28.9375 0.136719 C 19.859375 0.957031 11.351562 5.855469 5.964844 13.386719 C 2.964844 17.574219 1.046875 22.324219 0.320312 27.355469 C 0.0664062 29.109375 0.0351562 29.628906 0.0351562 32.007812 C 0.0351562 34.390625 0.0664062 34.910156 0.320312 36.664062 C 2.058594 48.671875 10.601562 58.757812 22.1875 62.492188 C 24.261719 63.164062 26.449219 63.617188 28.9375 63.894531 C 29.90625 64 34.09375 64 35.0625 63.894531 C 39.355469 63.417969 42.992188 62.355469 46.578125 60.523438 C 47.128906 60.242188 47.234375 60.167969 47.160156 60.105469 C 47.109375 60.070312 44.765625 56.925781 41.957031 53.125 L 36.84375 46.21875 L 30.4375 36.738281 C 26.914062 31.527344 24.011719 27.265625 23.988281 27.265625 C 23.964844 27.261719 23.9375 31.472656 23.925781 36.613281 C 23.90625 45.621094 23.902344 45.984375 23.789062 46.195312 C 23.625 46.5 23.5 46.625 23.238281 46.765625 C 23.039062 46.863281 22.863281 46.882812 21.917969 46.882812 L 20.839844 46.882812 L 20.550781 46.703125 C 20.363281 46.582031 20.226562 46.425781 20.132812 46.246094 L 20 45.964844 L 20.011719 33.433594 L 20.03125 20.898438 L 20.226562 20.652344 C 20.324219 20.523438 20.539062 20.355469 20.6875 20.273438 C 20.945312 20.148438 21.042969 20.136719 22.125 20.136719 C 23.402344 20.136719 23.613281 20.183594 23.945312 20.546875 C 24.039062 20.648438 27.507812 25.871094 31.65625 32.164062 C 35.804688 38.457031 41.480469 47.050781 44.265625 51.269531 L 49.328125 58.9375 L 49.585938 58.769531 C 51.855469 57.292969 54.253906 55.195312 56.152344 53.007812 C 60.195312 48.363281 62.804688 42.703125 63.679688 36.664062 C 63.933594 34.910156 63.964844 34.390625 63.964844 32.007812 C 63.964844 29.628906 63.933594 29.109375 63.679688 27.355469 C 61.941406 15.347656 53.398438 5.261719 41.8125 1.523438 C 39.769531 0.863281 37.59375 0.40625 35.15625 0.132812 C 34.554688 0.0703125 30.425781 0 29.90625 0.0507812 Z M 42.992188 19.386719 C 43.292969 19.535156 43.535156 19.824219 43.625 20.121094 C 43.675781 20.285156 43.6875 23.761719 43.675781 31.589844 L 43.65625 42.828125 L 41.675781 39.789062 L 39.6875 36.753906 L 39.6875 28.585938 C 39.6875 23.304688 39.710938 20.335938 39.75 20.191406 C 39.847656 19.84375 40.066406 19.566406 40.367188 19.40625 C 40.625 19.273438 40.71875 19.261719 41.699219 19.261719 C 42.625 19.261719 42.785156 19.273438 42.992188 19.386719 Z M 42.992188 19.386719 "/>
<path style=" stroke:none;fill-rule:nonzero;fill:rgb(0%,0%,0%);fill-opacity:1;" d="M 49.015625 59.074219 C 48.796875 59.214844 48.730469 59.308594 48.921875 59.199219 C 49.0625 59.121094 49.285156 58.949219 49.25 58.945312 C 49.230469 58.945312 49.125 59.007812 49.015625 59.074219 Z M 48.585938 59.355469 C 48.472656 59.445312 48.472656 59.449219 48.609375 59.382812 C 48.6875 59.34375 48.75 59.300781 48.75 59.289062 C 48.75 59.238281 48.71875 59.25 48.585938 59.355469 Z M 48.273438 59.542969 C 48.160156 59.632812 48.160156 59.636719 48.296875 59.570312 C 48.375 59.53125 48.4375 59.488281 48.4375 59.476562 C 48.4375 59.425781 48.40625 59.4375 48.273438 59.542969 Z M 47.960938 59.730469 C 47.847656 59.820312 47.847656 59.824219 47.984375 59.757812 C 48.0625 59.71875 48.125 59.675781 48.125 59.664062 C 48.125 59.613281 48.09375 59.625 47.960938 59.730469 Z M 47.484375 59.980469 C 47.25 60.105469 47.261719 60.15625 47.5 60.039062 C 47.605469 59.980469 47.6875 59.925781 47.6875 59.914062 C 47.6875 59.871094 47.679688 59.875 47.484375 59.980469 Z M 47.484375 59.980469 "/>
</g>
</svg>
