<?xml version="1.0" encoding="UTF-8"?>
<svg xmlns="http://www.w3.org/2000/svg" xmlns:xlink="http://www.w3.org/1999/xlink" width="64px" height="64px" viewBox="0 0 64 64" version="1.1">
<g id="surface1">
<path style=" stroke:none;fill-rule:nonzero;fill:rgb(95.294118%,83.137255%,0%);fill-opacity:1;" d="M 32.253906 10.066406 L 27.300781 13.929688 C 24.730469 13.847656 19.683594 14.421875 16.953125 15.417969 C 14.433594 13.820312 12.222656 12.0625 12.222656 12.0625 L 9.140625 17.222656 C 7.378906 18.160156 5.609375 19.214844 4.03125 20.609375 L -0.00390625 18.964844 C 2.425781 23.863281 4.050781 28.773438 8.503906 31.722656 C 15.582031 20.546875 48.457031 21.589844 55.679688 31.660156 C 60.347656 29.226562 62.164062 24 64 19.152344 C 63.796875 19.21875 61.300781 20.054688 59.683594 20.675781 C 58.714844 19.621094 56.4375 18.003906 55.140625 17.222656 C 53.914062 14.972656 52.125 11.933594 52.125 11.933594 C 52.125 11.933594 50.007812 13.507812 47.554688 15.226562 C 44.238281 14.617188 40.230469 13.875 36.855469 14.054688 C 34.5625 12.167969 32.253906 10.066406 32.253906 10.066406 Z M 32.253906 10.066406 "/>
<path style=" stroke:none;fill-rule:nonzero;fill:rgb(100%,91.372549%,32.54902%);fill-opacity:1;" d="M 2.511719 29.382812 L 8.347656 43.515625 C 18.484375 56.890625 44.371094 57.820312 55.65625 43.777344 L 61.925781 29.300781 C 59.03125 33.589844 54.320312 36.550781 51.421875 38.144531 C 49.359375 39.273438 44.601562 39.957031 44.601562 39.957031 L 32.121094 33.484375 L 19.558594 39.828125 C 19.558594 39.828125 14.867188 39.074219 12.742188 38.082031 C 8.453125 35.789062 5.566406 33.085938 2.523438 29.382812 Z M 2.511719 29.382812 "/>
</g>
</svg>
