<?xml version="1.0" encoding="UTF-8"?>
<svg xmlns="http://www.w3.org/2000/svg" xmlns:xlink="http://www.w3.org/1999/xlink" width="64px" height="64px" viewBox="0 0 64 64" version="1.1">
<g id="surface1">
<path style=" stroke:none;fill-rule:evenodd;fill:rgb(90.196078%,90.196078%,90.588235%);fill-opacity:1;" d="M 13.886719 38.550781 C 10.863281 38.550781 9.375 36.707031 8.792969 34.78125 C 9.449219 37.90625 12.988281 40.964844 24.15625 42.332031 C 34.707031 43.621094 41.582031 40.386719 43.902344 38.882812 C 43.902344 38.882812 45.46875 38.191406 44.53125 39.257812 C 44.53125 39.257812 37.886719 45.402344 24.847656 45.464844 C 11.808594 45.527344 1.464844 38.945312 1.527344 32.300781 C 1.464844 25.65625 11.808594 19.074219 24.847656 19.136719 C 37.886719 19.199219 44.53125 25.34375 44.53125 25.34375 C 45.46875 26.410156 43.902344 25.71875 43.902344 25.71875 C 41.582031 24.214844 34.738281 21.25 24.15625 22.269531 C 13.75 23.273438 10.355469 26.808594 9.226562 29.191406 C 8.792969 30.109375 8.59375 30.972656 8.546875 31.84375 C 8.828125 29.570312 10.238281 26.890625 13.886719 26.890625 C 18.019531 26.890625 19.285156 30.328125 19.285156 32.71875 C 19.285156 35.109375 18.019531 38.550781 13.886719 38.550781 Z M 55.898438 36.25 L 61.40625 36.25 L 61.40625 38.257812 L 53.585938 38.257812 L 53.585938 27.183594 L 55.898438 27.183594 Z M 47.40625 32.289062 L 52.03125 32.289062 L 52.03125 38.257812 L 50.488281 38.257812 L 50.257812 36.867188 C 49.671875 37.546875 48.824219 38.546875 46.804688 38.546875 C 44.136719 38.546875 41.714844 36.636719 41.714844 32.75 C 41.714844 29.726562 43.394531 26.875 47.128906 26.890625 C 50.519531 26.890625 51.863281 29.097656 51.984375 30.621094 L 49.671875 30.621094 C 49.671875 30.191406 48.886719 28.800781 47.25 28.800781 C 45.601562 28.800781 44.074219 29.945312 44.074219 32.78125 C 44.074219 35.804688 45.726562 36.589844 47.296875 36.589844 C 47.808594 36.589844 49.503906 36.390625 49.980469 34.152344 L 47.40625 34.152344 Z M 13.886719 28.21875 C 11.484375 28.21875 10.03125 30.113281 10.03125 32.71875 C 10.03125 35.324219 11.484375 37.222656 13.886719 37.222656 C 16.292969 37.222656 17.742188 35.324219 17.742188 32.71875 C 17.742188 30.113281 16.292969 28.21875 13.886719 28.21875 Z M 20.113281 31.175781 L 21.238281 31.175781 L 21.238281 32.175781 L 21.265625 32.175781 C 21.550781 31.769531 22.09375 30.972656 23.378906 30.972656 C 25.261719 30.972656 26.601562 32.566406 26.601562 34.558594 C 26.601562 36.25 25.625 38.460938 23.214844 38.460938 C 22.269531 38.460938 21.644531 38.011719 21.335938 37.511719 L 21.308594 37.511719 L 21.308594 41.058594 L 20.117188 41.058594 L 20.117188 31.175781 Z M 23.125 37.429688 C 24.425781 37.429688 25.304688 36.304688 25.304688 34.746094 C 25.304688 33.839844 24.941406 32.042969 23.097656 32.042969 C 21.378906 32.042969 21.191406 33.898438 21.191406 35.046875 C 21.191406 36.929688 22.367188 37.429688 23.125 37.429688 Z M 33.8125 36.035156 C 33.769531 36.375 33.445312 37.375 32.550781 37.972656 C 32.226562 38.1875 31.765625 38.460938 30.628906 38.460938 C 28.640625 38.460938 27.460938 36.957031 27.460938 34.910156 C 27.460938 32.71875 28.515625 30.972656 30.859375 30.972656 C 32.902344 30.972656 33.90625 32.597656 33.90625 35.101562 L 28.734375 35.101562 C 28.734375 36.578125 29.425781 37.429688 30.792969 37.429688 C 31.914062 37.429688 32.578125 36.5625 32.621094 36.035156 Z M 32.546875 34.152344 C 32.480469 33.058594 32.019531 32.042969 30.570312 32.042969 C 29.476562 32.042969 28.609375 33.058594 28.609375 34.152344 Z M 40.492188 38.257812 L 39.300781 38.257812 L 39.300781 33.898438 C 39.300781 32.664062 38.945312 32.042969 37.78125 32.042969 C 37.105469 32.042969 35.914062 32.476562 35.914062 34.398438 L 35.914062 38.257812 L 34.722656 38.257812 L 34.722656 31.175781 L 35.847656 31.175781 L 35.847656 32.175781 L 35.875 32.175781 C 36.132812 31.796875 36.792969 30.972656 38.011719 30.972656 C 39.109375 30.972656 40.492188 31.417969 40.492188 33.4375 Z M 40.492188 38.257812 "/>
<path style=" stroke:none;fill-rule:evenodd;fill:rgb(32.941176%,52.941176%,69.803922%);fill-opacity:1;" d="M 62.082031 36.6875 L 62.082031 36.789062 L 61.769531 36.789062 L 61.769531 37.65625 L 61.644531 37.65625 L 61.644531 36.789062 L 61.328125 36.789062 L 61.328125 36.6875 Z M 62.375 36.6875 L 62.617188 37.460938 L 62.621094 37.460938 L 62.875 36.6875 L 63.058594 36.6875 L 63.058594 37.65625 L 62.949219 37.65625 L 62.949219 36.789062 L 62.945312 36.789062 L 62.660156 37.65625 L 62.578125 37.65625 L 62.308594 36.789062 L 62.304688 36.789062 L 62.304688 37.65625 L 62.195312 37.65625 L 62.195312 36.6875 Z M 62.375 36.6875 "/>
<path style=" stroke:none;fill-rule:evenodd;fill:rgb(87.45098%,87.843137%,88.235294%);fill-opacity:1;" d="M 13.859375 38.519531 C 10.835938 38.519531 9.347656 36.675781 8.765625 34.75 C 9.421875 37.878906 12.960938 40.9375 24.128906 42.300781 C 34.679688 43.589844 41.554688 40.359375 43.875 38.855469 C 43.875 38.855469 45.441406 38.164062 44.503906 39.230469 C 44.503906 39.230469 37.855469 45.375 24.820312 45.4375 C 11.78125 45.5 1.4375 38.917969 1.5 32.273438 C 1.4375 25.628906 11.78125 19.046875 24.816406 19.109375 C 37.855469 19.171875 44.5 25.3125 44.5 25.3125 C 45.441406 26.378906 43.875 25.691406 43.875 25.691406 C 41.554688 24.183594 34.710938 21.222656 24.128906 22.242188 C 13.722656 23.246094 10.324219 26.78125 9.199219 29.164062 C 8.761719 30.078125 8.566406 30.945312 8.519531 31.816406 C 8.800781 29.542969 10.210938 26.863281 13.859375 26.863281 C 17.992188 26.863281 19.257812 30.300781 19.257812 32.691406 C 19.257812 35.082031 17.992188 38.519531 13.859375 38.519531 Z M 55.871094 36.222656 L 61.375 36.222656 L 61.375 38.226562 L 53.558594 38.226562 L 53.558594 27.15625 L 55.871094 27.15625 Z M 47.378906 32.257812 L 52.003906 32.257812 L 52.003906 38.226562 L 50.460938 38.226562 C 50.382812 37.765625 50.308594 37.300781 50.230469 36.839844 C 49.644531 37.519531 48.796875 38.519531 46.777344 38.519531 C 44.109375 38.519531 41.6875 36.609375 41.6875 32.722656 C 41.6875 29.699219 43.367188 26.847656 47.101562 26.863281 C 50.492188 26.863281 51.835938 29.066406 51.957031 30.59375 L 49.644531 30.59375 C 49.644531 30.160156 48.859375 28.773438 47.222656 28.773438 C 45.574219 28.773438 44.046875 29.914062 44.046875 32.753906 C 44.046875 35.777344 45.695312 36.5625 47.269531 36.5625 C 47.777344 36.5625 49.476562 36.363281 49.953125 34.125 L 47.378906 34.125 Z M 13.859375 28.1875 C 11.453125 28.1875 10.003906 30.085938 10.003906 32.691406 C 10.003906 35.296875 11.453125 37.195312 13.859375 37.195312 C 16.265625 37.195312 17.714844 35.296875 17.714844 32.691406 C 17.714844 30.085938 16.265625 28.1875 13.859375 28.1875 Z M 20.085938 31.148438 L 21.210938 31.148438 L 21.210938 32.148438 L 21.238281 32.148438 C 21.523438 31.742188 22.0625 30.945312 23.351562 30.945312 C 25.230469 30.945312 26.574219 32.539062 26.574219 34.527344 C 26.574219 36.222656 25.597656 38.429688 23.1875 38.429688 C 22.242188 38.429688 21.617188 37.984375 21.304688 37.484375 L 21.277344 37.484375 L 21.277344 41.03125 L 20.085938 41.03125 Z M 23.097656 37.402344 C 24.398438 37.402344 25.277344 36.273438 25.277344 34.71875 C 25.277344 33.8125 24.914062 32.011719 23.070312 32.011719 C 21.351562 32.011719 21.164062 33.867188 21.164062 35.019531 C 21.164062 36.898438 22.339844 37.402344 23.097656 37.402344 Z M 33.78125 36.007812 C 33.742188 36.34375 33.417969 37.347656 32.523438 37.941406 C 32.199219 38.160156 31.738281 38.429688 30.601562 38.429688 C 28.613281 38.429688 27.433594 36.925781 27.433594 34.882812 C 27.433594 32.691406 28.488281 30.941406 30.832031 30.941406 C 32.875 30.941406 33.878906 32.566406 33.878906 35.074219 L 28.707031 35.074219 C 28.707031 36.546875 29.398438 37.402344 30.765625 37.402344 C 31.886719 37.402344 32.550781 36.535156 32.589844 36.007812 Z M 32.519531 34.125 C 32.453125 33.027344 31.992188 32.011719 30.542969 32.011719 C 29.449219 32.011719 28.582031 33.027344 28.582031 34.125 Z M 40.460938 38.226562 L 39.269531 38.226562 L 39.269531 33.867188 C 39.269531 32.636719 38.917969 32.011719 37.753906 32.011719 C 37.078125 32.011719 35.886719 32.445312 35.886719 34.367188 L 35.886719 38.226562 L 34.695312 38.226562 L 34.695312 31.148438 L 35.820312 31.148438 L 35.820312 32.148438 L 35.847656 32.148438 C 36.101562 31.769531 36.765625 30.945312 37.984375 30.945312 C 39.082031 30.945312 40.460938 31.390625 40.460938 33.40625 Z M 40.460938 38.226562 "/>
<path style=" stroke:none;fill-rule:evenodd;fill:rgb(85.098039%,85.490196%,85.882353%);fill-opacity:1;" d="M 13.832031 38.492188 C 10.808594 38.492188 9.320312 36.648438 8.738281 34.722656 C 9.394531 37.847656 12.933594 40.910156 24.101562 42.273438 C 34.652344 43.5625 41.527344 40.328125 43.847656 38.824219 C 43.847656 38.824219 45.414062 38.136719 44.472656 39.203125 C 44.472656 39.203125 37.828125 45.34375 24.789062 45.40625 C 11.75 45.46875 1.410156 38.886719 1.472656 32.242188 C 1.410156 25.597656 11.75 19.015625 24.789062 19.078125 C 37.828125 19.140625 44.472656 25.285156 44.472656 25.285156 C 45.414062 26.351562 43.847656 25.660156 43.847656 25.660156 C 41.527344 24.15625 34.679688 21.195312 24.101562 22.214844 C 13.695312 23.214844 10.296875 26.753906 9.171875 29.132812 C 8.734375 30.050781 8.539062 30.914062 8.492188 31.785156 C 8.773438 29.511719 10.183594 26.832031 13.832031 26.832031 C 17.964844 26.832031 19.230469 30.273438 19.230469 32.664062 C 19.230469 35.050781 17.964844 38.492188 13.832031 38.492188 Z M 55.84375 36.195312 L 61.347656 36.195312 L 61.347656 38.199219 L 53.53125 38.199219 L 53.53125 27.125 L 55.84375 27.125 Z M 47.347656 32.230469 L 51.976562 32.230469 L 51.976562 38.199219 L 50.433594 38.199219 L 50.203125 36.8125 C 49.617188 37.488281 48.769531 38.492188 46.75 38.492188 C 44.082031 38.492188 41.660156 36.578125 41.660156 32.691406 C 41.660156 29.671875 43.339844 26.816406 47.070312 26.832031 C 50.464844 26.832031 51.808594 29.039062 51.929688 30.566406 L 49.617188 30.566406 C 49.617188 30.132812 48.828125 28.746094 47.195312 28.746094 C 45.546875 28.746094 44.019531 29.886719 44.019531 32.722656 C 44.019531 35.746094 45.667969 36.535156 47.242188 36.535156 C 47.75 36.535156 49.445312 36.332031 49.925781 34.097656 C 49.066406 34.097656 48.207031 34.097656 47.347656 34.097656 Z M 13.832031 28.160156 C 11.425781 28.160156 9.976562 30.058594 9.976562 32.664062 C 9.976562 35.269531 11.425781 37.164062 13.832031 37.164062 C 16.238281 37.164062 17.6875 35.269531 17.6875 32.664062 C 17.6875 30.054688 16.238281 28.160156 13.832031 28.160156 Z M 20.058594 31.117188 L 21.183594 31.117188 L 21.183594 32.121094 L 21.210938 32.121094 C 21.496094 31.714844 22.035156 30.914062 23.324219 30.914062 C 25.203125 30.914062 26.546875 32.511719 26.546875 34.5 C 26.546875 36.191406 25.570312 38.402344 23.160156 38.402344 C 22.210938 38.402344 21.589844 37.953125 21.277344 37.453125 L 21.25 37.453125 L 21.25 41 C 20.855469 41 20.457031 41 20.058594 41 Z M 23.070312 37.375 C 24.371094 37.375 25.25 36.246094 25.25 34.691406 C 25.25 33.78125 24.882812 31.984375 23.042969 31.984375 C 21.324219 31.984375 21.132812 33.839844 21.132812 34.988281 C 21.132812 36.871094 22.3125 37.375 23.070312 37.375 Z M 33.753906 35.976562 C 33.714844 36.316406 33.390625 37.320312 32.496094 37.914062 C 32.171875 38.132812 31.710938 38.402344 30.574219 38.402344 C 28.582031 38.402344 27.40625 36.898438 27.40625 34.855469 C 27.40625 32.660156 28.460938 30.914062 30.804688 30.914062 C 32.847656 30.914062 33.847656 32.539062 33.847656 35.042969 L 28.679688 35.042969 C 28.679688 36.519531 29.367188 37.371094 30.734375 37.371094 C 31.859375 37.371094 32.523438 36.507812 32.5625 35.976562 Z M 32.492188 34.097656 C 32.425781 33 31.964844 31.984375 30.515625 31.984375 C 29.417969 31.984375 28.554688 33 28.554688 34.097656 Z M 40.433594 38.199219 L 39.242188 38.199219 L 39.242188 33.839844 C 39.242188 32.605469 38.890625 31.984375 37.726562 31.984375 C 37.050781 31.984375 35.859375 32.417969 35.859375 34.339844 L 35.859375 38.199219 L 34.667969 38.199219 L 34.667969 31.117188 L 35.789062 31.117188 L 35.789062 32.121094 L 35.816406 32.121094 C 36.074219 31.742188 36.738281 30.914062 37.957031 30.914062 C 39.054688 30.914062 40.433594 31.363281 40.433594 33.378906 Z M 40.433594 38.199219 "/>
<path style=" stroke:none;fill-rule:evenodd;fill:rgb(82.745098%,83.137255%,83.529412%);fill-opacity:1;" d="M 13.804688 38.464844 C 10.777344 38.464844 9.292969 36.621094 8.710938 34.695312 C 9.367188 37.820312 12.90625 40.878906 24.074219 42.246094 C 34.625 43.535156 41.5 40.300781 43.820312 38.796875 C 43.820312 38.796875 45.386719 38.105469 44.445312 39.171875 C 44.445312 39.171875 37.800781 45.316406 24.761719 45.378906 C 11.722656 45.441406 1.378906 38.859375 1.441406 32.214844 C 1.378906 25.570312 11.722656 18.988281 24.761719 19.050781 C 37.800781 19.113281 44.445312 25.257812 44.445312 25.257812 C 45.386719 26.324219 43.820312 25.632812 43.820312 25.632812 C 41.5 24.128906 34.652344 21.164062 24.074219 22.183594 C 13.667969 23.1875 10.269531 26.722656 9.140625 29.105469 C 8.707031 30.023438 8.511719 30.886719 8.460938 31.757812 C 8.742188 29.484375 10.15625 26.804688 13.804688 26.804688 C 17.9375 26.804688 19.203125 30.242188 19.203125 32.632812 C 19.203125 35.023438 17.9375 38.464844 13.804688 38.464844 Z M 55.816406 36.164062 C 57.652344 36.164062 59.484375 36.164062 61.320312 36.164062 L 61.320312 38.171875 L 53.503906 38.171875 L 53.503906 27.097656 L 55.816406 27.097656 Z M 47.320312 32.203125 L 51.949219 32.203125 L 51.949219 38.171875 L 50.40625 38.171875 C 50.328125 37.707031 50.25 37.246094 50.175781 36.78125 C 49.589844 37.460938 48.742188 38.460938 46.71875 38.460938 C 44.050781 38.460938 41.632812 36.550781 41.632812 32.664062 C 41.632812 29.640625 43.3125 26.789062 47.042969 26.804688 C 50.4375 26.804688 51.777344 29.011719 51.902344 30.535156 L 49.589844 30.535156 C 49.589844 30.105469 48.800781 28.714844 47.167969 28.714844 C 45.515625 28.714844 43.992188 29.859375 43.992188 32.695312 C 43.992188 35.71875 45.640625 36.503906 47.214844 36.503906 C 47.722656 36.503906 49.417969 36.304688 49.898438 34.066406 L 47.320312 34.066406 Z M 13.804688 28.132812 C 11.398438 28.132812 9.949219 30.027344 9.949219 32.632812 C 9.949219 35.242188 11.398438 37.136719 13.804688 37.136719 C 16.210938 37.136719 17.660156 35.238281 17.660156 32.632812 C 17.660156 30.027344 16.210938 28.132812 13.804688 28.132812 Z M 20.03125 31.089844 L 21.15625 31.089844 L 21.15625 32.089844 L 21.183594 32.089844 C 21.46875 31.683594 22.007812 30.886719 23.292969 30.886719 C 25.175781 30.886719 26.519531 32.480469 26.519531 34.472656 C 26.519531 36.164062 25.542969 38.371094 23.132812 38.371094 C 22.183594 38.371094 21.5625 37.925781 21.25 37.425781 L 21.222656 37.425781 L 21.222656 40.972656 L 20.03125 40.972656 Z M 23.042969 37.34375 C 24.34375 37.34375 25.222656 36.21875 25.222656 34.660156 C 25.222656 33.753906 24.855469 31.957031 23.015625 31.957031 C 21.296875 31.957031 21.105469 33.8125 21.105469 34.960938 C 21.105469 36.84375 22.285156 37.34375 23.042969 37.34375 Z M 33.726562 35.949219 C 33.6875 36.289062 33.363281 37.289062 32.46875 37.886719 C 32.144531 38.101562 31.683594 38.371094 30.546875 38.371094 C 28.554688 38.371094 27.378906 36.871094 27.378906 34.824219 C 27.378906 32.632812 28.433594 30.886719 30.777344 30.886719 C 32.820312 30.886719 33.820312 32.511719 33.820312 35.015625 C 32.097656 35.015625 30.375 35.015625 28.648438 35.015625 C 28.648438 36.492188 29.339844 37.34375 30.707031 37.34375 C 31.832031 37.34375 32.496094 36.476562 32.535156 35.949219 Z M 32.464844 34.066406 C 32.398438 32.972656 31.9375 31.957031 30.488281 31.957031 C 29.390625 31.957031 28.523438 32.972656 28.523438 34.066406 Z M 40.40625 38.171875 L 39.214844 38.171875 L 39.214844 33.8125 C 39.214844 32.578125 38.863281 31.957031 37.699219 31.957031 C 37.023438 31.957031 35.832031 32.390625 35.832031 34.3125 L 35.832031 38.171875 L 34.640625 38.171875 L 34.640625 31.089844 L 35.761719 31.089844 L 35.761719 32.089844 L 35.789062 32.089844 C 36.046875 31.710938 36.710938 30.886719 37.929688 30.886719 C 39.023438 30.886719 40.40625 31.332031 40.40625 33.351562 Z M 40.40625 38.171875 "/>
<path style=" stroke:none;fill-rule:evenodd;fill:rgb(80%,80.392157%,81.176471%);fill-opacity:1;" d="M 13.777344 38.433594 C 10.75 38.433594 9.261719 36.589844 8.683594 34.664062 C 9.339844 37.792969 12.878906 40.851562 24.046875 42.214844 C 34.597656 43.503906 41.472656 40.273438 43.792969 38.769531 C 43.792969 38.769531 45.359375 38.078125 44.417969 39.144531 C 44.417969 39.144531 37.773438 45.285156 24.734375 45.351562 C 11.695312 45.414062 1.351562 38.832031 1.414062 32.1875 C 1.351562 25.542969 11.695312 18.960938 24.734375 19.023438 C 37.773438 19.085938 44.417969 25.226562 44.417969 25.226562 C 45.359375 26.292969 43.789062 25.605469 43.789062 25.605469 C 41.472656 24.101562 34.625 21.136719 24.046875 22.15625 C 13.640625 23.160156 10.242188 26.695312 9.113281 29.078125 C 8.679688 29.992188 8.484375 30.859375 8.433594 31.730469 C 8.714844 29.457031 10.128906 26.777344 13.777344 26.777344 C 17.910156 26.777344 19.175781 30.214844 19.175781 32.605469 C 19.175781 34.996094 17.910156 38.433594 13.777344 38.433594 Z M 55.789062 36.136719 L 61.292969 36.136719 L 61.292969 38.140625 L 53.476562 38.140625 L 53.476562 27.070312 L 55.789062 27.070312 Z M 47.292969 32.171875 L 51.917969 32.171875 L 51.917969 38.140625 L 50.378906 38.140625 C 50.300781 37.679688 50.222656 37.214844 50.148438 36.753906 C 49.558594 37.433594 48.710938 38.433594 46.691406 38.433594 C 44.023438 38.433594 41.601562 36.523438 41.601562 32.636719 C 41.601562 29.613281 43.285156 26.761719 47.015625 26.777344 C 50.410156 26.777344 51.75 28.980469 51.875 30.507812 L 49.5625 30.507812 C 49.5625 30.074219 48.773438 28.6875 47.140625 28.6875 C 45.488281 28.6875 43.964844 29.828125 43.964844 32.667969 C 43.964844 35.691406 45.613281 36.476562 47.1875 36.476562 C 47.695312 36.476562 49.390625 36.277344 49.867188 34.039062 L 47.292969 34.039062 Z M 13.777344 28.101562 C 11.371094 28.101562 9.921875 30 9.921875 32.605469 C 9.921875 35.210938 11.371094 37.109375 13.777344 37.109375 C 16.183594 37.109375 17.632812 35.210938 17.632812 32.605469 C 17.632812 30 16.183594 28.101562 13.777344 28.101562 Z M 20.003906 31.0625 L 21.128906 31.0625 L 21.128906 32.0625 L 21.15625 32.0625 C 21.4375 31.65625 21.980469 30.859375 23.265625 30.859375 C 25.148438 30.859375 26.488281 32.453125 26.488281 34.441406 C 26.488281 36.136719 25.515625 38.34375 23.105469 38.34375 C 22.15625 38.34375 21.535156 37.898438 21.222656 37.394531 L 21.195312 37.394531 L 21.195312 40.945312 L 20.003906 40.945312 Z M 23.015625 37.316406 C 24.3125 37.316406 25.195312 36.191406 25.195312 34.632812 C 25.195312 33.726562 24.828125 31.925781 22.988281 31.925781 C 21.269531 31.925781 21.078125 33.78125 21.078125 34.933594 C 21.078125 36.816406 22.257812 37.316406 23.015625 37.316406 Z M 33.699219 35.921875 C 33.660156 36.261719 33.335938 37.261719 32.441406 37.855469 C 32.117188 38.074219 31.65625 38.34375 30.519531 38.34375 C 28.527344 38.34375 27.351562 36.84375 27.351562 34.796875 C 27.351562 32.605469 28.40625 30.859375 30.75 30.859375 C 32.792969 30.859375 33.792969 32.484375 33.792969 34.988281 L 28.621094 34.988281 C 28.621094 36.460938 29.3125 37.316406 30.679688 37.316406 C 31.804688 37.316406 32.46875 36.449219 32.507812 35.921875 Z M 32.4375 34.039062 C 32.371094 32.941406 31.910156 31.925781 30.460938 31.925781 C 29.363281 31.925781 28.496094 32.941406 28.496094 34.039062 Z M 40.378906 38.140625 L 39.1875 38.140625 L 39.1875 33.78125 C 39.1875 32.550781 38.835938 31.925781 37.671875 31.925781 C 36.996094 31.925781 35.800781 32.359375 35.800781 34.28125 L 35.800781 38.140625 L 34.609375 38.140625 L 34.609375 31.0625 L 35.734375 31.0625 L 35.734375 32.0625 L 35.761719 32.0625 C 36.019531 31.683594 36.683594 30.859375 37.902344 30.859375 C 38.996094 30.859375 40.378906 31.304688 40.378906 33.320312 Z M 40.378906 38.140625 "/>
<path style=" stroke:none;fill-rule:evenodd;fill:rgb(77.647059%,78.039216%,78.823529%);fill-opacity:1;" d="M 13.75 38.40625 C 10.722656 38.40625 9.234375 36.5625 8.65625 34.636719 C 9.308594 37.761719 12.851562 40.820312 24.015625 42.1875 C 34.570312 43.476562 41.445312 40.242188 43.761719 38.738281 C 43.761719 38.738281 45.332031 38.050781 44.390625 39.117188 C 44.390625 39.117188 37.746094 45.257812 24.707031 45.320312 C 11.667969 45.382812 1.324219 38.800781 1.386719 32.15625 C 1.324219 25.511719 11.667969 18.929688 24.707031 18.992188 C 37.746094 19.054688 44.390625 25.199219 44.390625 25.199219 C 45.332031 26.265625 43.761719 25.574219 43.761719 25.574219 C 41.445312 24.070312 34.597656 21.109375 24.015625 22.128906 C 13.613281 23.132812 10.214844 26.667969 9.085938 29.046875 C 8.652344 29.964844 8.457031 30.828125 8.40625 31.699219 C 8.6875 29.425781 10.101562 26.746094 13.75 26.746094 C 17.882812 26.746094 19.144531 30.1875 19.144531 32.578125 C 19.144531 34.96875 17.882812 38.40625 13.75 38.40625 Z M 55.761719 36.109375 L 61.265625 36.109375 L 61.265625 38.113281 L 53.445312 38.113281 L 53.445312 27.039062 L 55.761719 27.039062 Z M 47.265625 32.144531 L 51.890625 32.144531 L 51.890625 38.113281 L 50.351562 38.113281 L 50.117188 36.722656 C 49.53125 37.402344 48.683594 38.40625 46.664062 38.40625 C 43.996094 38.40625 41.574219 36.492188 41.574219 32.605469 C 41.574219 29.585938 43.257812 26.730469 46.988281 26.746094 C 50.382812 26.746094 51.722656 28.953125 51.847656 30.480469 L 49.53125 30.480469 C 49.53125 30.046875 48.746094 28.660156 47.113281 28.660156 C 45.460938 28.660156 43.933594 29.800781 43.933594 32.636719 C 43.933594 35.660156 45.585938 36.445312 47.160156 36.445312 C 47.667969 36.445312 49.363281 36.246094 49.839844 34.011719 L 47.265625 34.011719 Z M 13.75 28.074219 C 11.34375 28.074219 9.894531 29.96875 9.894531 32.578125 C 9.894531 35.183594 11.34375 37.078125 13.75 37.078125 C 16.15625 37.078125 17.605469 35.183594 17.605469 32.578125 C 17.605469 29.96875 16.15625 28.074219 13.75 28.074219 Z M 19.976562 31.03125 L 21.101562 31.03125 L 21.101562 32.035156 L 21.128906 32.035156 C 21.410156 31.628906 21.953125 30.828125 23.238281 30.828125 C 25.121094 30.828125 26.460938 32.421875 26.460938 34.414062 C 26.460938 36.105469 25.488281 38.316406 23.078125 38.316406 C 22.128906 38.316406 21.507812 37.867188 21.195312 37.367188 L 21.167969 37.367188 L 21.167969 40.914062 L 19.976562 40.914062 Z M 22.988281 37.285156 C 24.285156 37.285156 25.167969 36.160156 25.167969 34.605469 C 25.167969 33.695312 24.800781 31.898438 22.960938 31.898438 C 21.242188 31.898438 21.050781 33.753906 21.050781 34.90625 C 21.050781 36.785156 22.226562 37.285156 22.988281 37.285156 Z M 33.671875 35.894531 C 33.632812 36.230469 33.304688 37.234375 32.414062 37.828125 C 32.085938 38.042969 31.628906 38.316406 30.488281 38.316406 C 28.5 38.316406 27.320312 36.8125 27.320312 34.769531 C 27.320312 32.574219 28.378906 30.828125 30.71875 30.828125 C 32.765625 30.828125 33.765625 32.453125 33.765625 34.957031 L 28.59375 34.957031 C 28.59375 36.433594 29.285156 37.285156 30.652344 37.285156 C 31.777344 37.285156 32.4375 36.421875 32.480469 35.894531 C 32.878906 35.890625 33.273438 35.890625 33.671875 35.894531 Z M 32.410156 34.011719 C 32.339844 32.914062 31.882812 31.898438 30.433594 31.898438 C 29.335938 31.898438 28.46875 32.914062 28.46875 34.011719 Z M 40.351562 38.113281 L 39.160156 38.113281 L 39.160156 33.753906 C 39.160156 32.519531 38.808594 31.898438 37.644531 31.898438 C 36.964844 31.898438 35.773438 32.332031 35.773438 34.253906 L 35.773438 38.113281 L 34.582031 38.113281 L 34.582031 31.03125 L 35.707031 31.03125 L 35.707031 32.035156 L 35.734375 32.035156 C 35.992188 31.65625 36.65625 30.828125 37.871094 30.828125 C 38.96875 30.828125 40.351562 31.277344 40.351562 33.292969 Z M 40.351562 38.113281 "/>
<path style=" stroke:none;fill-rule:evenodd;fill:rgb(75.686275%,76.470588%,77.254902%);fill-opacity:1;" d="M 13.722656 38.375 C 10.695312 38.375 9.207031 36.535156 8.628906 34.609375 C 9.28125 37.734375 12.820312 40.792969 23.988281 42.160156 C 34.539062 43.449219 41.414062 40.214844 43.734375 38.710938 C 43.734375 38.710938 45.304688 38.019531 44.363281 39.085938 C 44.363281 39.085938 37.71875 45.230469 24.679688 45.292969 C 11.640625 45.355469 1.296875 38.773438 1.359375 32.128906 C 1.296875 25.484375 11.640625 18.902344 24.679688 18.964844 C 37.71875 19.027344 44.363281 25.171875 44.363281 25.171875 C 45.304688 26.238281 43.734375 25.546875 43.734375 25.546875 C 41.414062 24.042969 34.570312 21.078125 23.988281 22.097656 C 13.582031 23.101562 10.1875 26.636719 9.058594 29.019531 C 8.625 29.9375 8.429688 30.800781 8.378906 31.671875 C 8.660156 29.398438 10.074219 26.71875 13.71875 26.71875 C 17.851562 26.71875 19.117188 30.15625 19.117188 32.546875 C 19.117188 34.9375 17.855469 38.375 13.722656 38.375 Z M 55.730469 36.078125 L 61.238281 36.078125 L 61.238281 38.085938 C 58.632812 38.082031 56.027344 38.082031 53.417969 38.085938 L 53.417969 27.011719 L 55.730469 27.011719 Z M 47.238281 32.117188 C 48.78125 32.117188 50.320312 32.117188 51.863281 32.117188 L 51.863281 38.085938 C 51.351562 38.085938 50.835938 38.085938 50.320312 38.085938 L 50.089844 36.695312 C 49.503906 37.375 48.65625 38.375 46.636719 38.375 C 43.96875 38.375 41.546875 36.464844 41.546875 32.578125 C 41.546875 29.554688 43.226562 26.703125 46.960938 26.71875 C 50.351562 26.71875 51.695312 28.925781 51.816406 30.449219 L 49.503906 30.449219 C 49.503906 30.019531 48.71875 28.632812 47.082031 28.632812 C 45.433594 28.632812 43.90625 29.773438 43.90625 32.609375 C 43.90625 35.632812 45.558594 36.417969 47.128906 36.417969 C 47.640625 36.417969 49.335938 36.21875 49.8125 33.980469 L 47.238281 33.980469 Z M 13.722656 28.042969 C 11.316406 28.042969 9.867188 29.941406 9.867188 32.546875 C 9.867188 35.152344 11.316406 37.050781 13.722656 37.050781 C 16.125 37.050781 17.574219 35.152344 17.574219 32.546875 C 17.574219 29.941406 16.125 28.042969 13.722656 28.042969 Z M 19.949219 31.003906 L 21.070312 31.003906 L 21.070312 32.003906 L 21.097656 32.003906 C 21.382812 31.597656 21.925781 30.800781 23.210938 30.800781 C 25.09375 30.800781 26.433594 32.394531 26.433594 34.386719 C 26.433594 36.078125 25.457031 38.289062 23.046875 38.289062 C 22.101562 38.289062 21.476562 37.839844 21.167969 37.339844 L 21.140625 37.339844 L 21.140625 40.886719 L 19.949219 40.886719 Z M 22.957031 37.257812 C 24.257812 37.257812 25.140625 36.132812 25.140625 34.574219 C 25.140625 33.667969 24.773438 31.871094 22.933594 31.871094 C 21.210938 31.871094 21.023438 33.722656 21.023438 34.875 C 21.023438 36.757812 22.199219 37.257812 22.957031 37.257812 Z M 33.644531 35.863281 C 33.601562 36.203125 33.277344 37.203125 32.386719 37.800781 C 32.058594 38.015625 31.597656 38.289062 30.460938 38.289062 C 28.472656 38.289062 27.292969 36.785156 27.292969 34.738281 C 27.292969 32.546875 28.351562 30.800781 30.691406 30.800781 C 32.738281 30.800781 33.738281 32.425781 33.738281 34.929688 L 28.566406 34.929688 C 28.566406 36.40625 29.257812 37.257812 30.625 37.257812 C 31.746094 37.257812 32.410156 36.390625 32.453125 35.863281 Z M 32.378906 33.980469 C 32.3125 32.886719 31.851562 31.871094 30.402344 31.871094 C 29.308594 31.871094 28.441406 32.886719 28.441406 33.980469 Z M 40.324219 38.085938 C 39.925781 38.082031 39.527344 38.082031 39.132812 38.085938 L 39.132812 33.722656 C 39.132812 32.492188 38.78125 31.871094 37.617188 31.871094 C 36.9375 31.871094 35.746094 32.304688 35.746094 34.226562 L 35.746094 38.085938 C 35.351562 38.082031 34.953125 38.082031 34.554688 38.085938 L 34.554688 31.003906 L 35.679688 31.003906 L 35.679688 32.003906 L 35.707031 32.003906 C 35.964844 31.625 36.628906 30.800781 37.84375 30.800781 C 38.941406 30.800781 40.324219 31.246094 40.324219 33.265625 Z M 40.324219 38.085938 "/>
<path style=" stroke:none;fill-rule:evenodd;fill:rgb(73.333333%,73.72549%,74.901961%);fill-opacity:1;" d="M 13.691406 38.347656 C 10.667969 38.347656 9.179688 36.503906 8.597656 34.578125 C 9.253906 37.707031 12.792969 40.765625 23.960938 42.128906 C 34.511719 43.417969 41.386719 40.1875 43.707031 38.683594 C 43.707031 38.683594 45.273438 37.992188 44.335938 39.058594 C 44.335938 39.058594 37.691406 45.203125 24.652344 45.261719 C 11.613281 45.328125 1.269531 38.746094 1.332031 32.101562 C 1.269531 25.457031 11.613281 18.875 24.652344 18.9375 C 37.691406 19 44.335938 25.140625 44.335938 25.140625 C 45.273438 26.207031 43.707031 25.519531 43.707031 25.519531 C 41.386719 24.015625 34.542969 21.050781 23.960938 22.070312 C 13.554688 23.074219 10.160156 26.609375 9.03125 28.992188 C 8.597656 29.90625 8.398438 30.773438 8.351562 31.644531 C 8.632812 29.371094 10.042969 26.691406 13.691406 26.691406 C 17.824219 26.691406 19.089844 30.128906 19.089844 32.519531 C 19.089844 34.910156 17.824219 38.347656 13.691406 38.347656 Z M 55.703125 36.050781 L 61.210938 36.050781 L 61.210938 38.054688 L 53.390625 38.054688 L 53.390625 26.984375 L 55.703125 26.984375 Z M 47.210938 32.085938 L 51.835938 32.085938 L 51.835938 38.054688 L 50.292969 38.054688 C 50.21875 37.59375 50.140625 37.128906 50.0625 36.667969 C 49.476562 37.347656 48.628906 38.347656 46.609375 38.347656 C 43.941406 38.347656 41.519531 36.4375 41.519531 32.550781 C 41.519531 29.527344 43.199219 26.675781 46.933594 26.691406 C 50.324219 26.691406 51.667969 28.894531 51.789062 30.421875 L 49.476562 30.421875 C 49.476562 29.992188 48.691406 28.601562 47.054688 28.601562 C 45.40625 28.601562 43.878906 29.742188 43.878906 32.582031 C 43.878906 35.605469 45.53125 36.390625 47.101562 36.390625 C 47.613281 36.390625 49.308594 36.191406 49.785156 33.953125 L 47.210938 33.953125 Z M 13.691406 28.015625 C 11.289062 28.015625 9.839844 29.914062 9.839844 32.519531 C 9.839844 35.125 11.289062 37.023438 13.691406 37.023438 C 16.097656 37.023438 17.546875 35.125 17.546875 32.519531 C 17.546875 29.914062 16.097656 28.015625 13.691406 28.015625 Z M 19.921875 30.976562 L 21.042969 30.976562 L 21.042969 31.976562 C 21.054688 31.976562 21.0625 31.976562 21.070312 31.976562 C 21.355469 31.570312 21.898438 30.773438 23.183594 30.773438 C 25.066406 30.773438 26.40625 32.367188 26.40625 34.355469 C 26.40625 36.050781 25.429688 38.257812 23.019531 38.257812 C 22.074219 38.257812 21.449219 37.8125 21.140625 37.3125 L 21.113281 37.3125 L 21.113281 40.859375 L 19.921875 40.859375 Z M 22.929688 37.230469 C 24.230469 37.230469 25.109375 36.101562 25.109375 34.546875 C 25.109375 33.640625 24.746094 31.839844 22.902344 31.839844 C 21.183594 31.839844 20.996094 33.695312 20.996094 34.847656 C 20.996094 36.726562 22.171875 37.230469 22.929688 37.230469 Z M 33.617188 35.835938 C 33.574219 36.171875 33.25 37.175781 32.355469 37.769531 C 32.03125 37.988281 31.570312 38.257812 30.433594 38.257812 C 28.445312 38.257812 27.265625 36.757812 27.265625 34.710938 C 27.265625 32.519531 28.320312 30.773438 30.664062 30.773438 C 32.707031 30.773438 33.710938 32.398438 33.710938 34.902344 L 28.539062 34.902344 C 28.539062 36.375 29.230469 37.230469 30.597656 37.230469 C 31.71875 37.230469 32.382812 36.363281 32.425781 35.835938 Z M 32.351562 33.953125 C 32.285156 32.855469 31.824219 31.839844 30.375 31.839844 C 29.28125 31.839844 28.414062 32.855469 28.414062 33.953125 C 29.726562 33.953125 31.039062 33.953125 32.351562 33.953125 Z M 40.296875 38.054688 L 39.105469 38.054688 L 39.105469 33.695312 C 39.105469 32.464844 38.75 31.839844 37.585938 31.839844 C 36.910156 31.839844 35.71875 32.273438 35.71875 34.195312 L 35.71875 38.054688 L 34.527344 38.054688 L 34.527344 30.976562 L 35.652344 30.976562 L 35.652344 31.976562 L 35.679688 31.976562 C 35.933594 31.597656 36.597656 30.773438 37.816406 30.773438 C 38.914062 30.773438 40.296875 31.21875 40.296875 33.234375 Z M 40.296875 38.054688 "/>
<path style=" stroke:none;fill-rule:evenodd;fill:rgb(70.980392%,71.372549%,72.156863%);fill-opacity:1;" d="M 13.664062 38.320312 C 10.640625 38.320312 9.152344 36.476562 8.570312 34.550781 C 9.226562 37.675781 12.765625 40.738281 23.933594 42.101562 C 34.484375 43.390625 41.359375 40.15625 43.679688 38.652344 C 43.679688 38.652344 45.246094 37.964844 44.308594 39.03125 C 44.308594 39.03125 37.660156 45.171875 24.621094 45.234375 C 11.585938 45.296875 1.242188 38.714844 1.304688 32.070312 C 1.242188 25.425781 11.585938 18.84375 24.621094 18.90625 C 37.660156 18.96875 44.308594 25.113281 44.308594 25.113281 C 45.246094 26.179688 43.679688 25.488281 43.679688 25.488281 C 41.359375 23.984375 34.515625 21.023438 23.933594 22.042969 C 13.527344 23.046875 10.128906 26.582031 9.003906 28.960938 C 8.566406 29.878906 8.371094 30.742188 8.324219 31.613281 C 8.605469 29.339844 10.015625 26.660156 13.664062 26.660156 C 17.796875 26.660156 19.0625 30.101562 19.0625 32.492188 C 19.0625 34.882812 17.796875 38.320312 13.664062 38.320312 Z M 55.675781 36.023438 L 61.183594 36.023438 L 61.183594 38.027344 L 53.363281 38.027344 L 53.363281 26.953125 L 55.675781 26.953125 Z M 47.183594 32.058594 L 51.808594 32.058594 L 51.808594 38.027344 L 50.265625 38.027344 L 50.035156 36.640625 C 49.449219 37.316406 48.601562 38.320312 46.582031 38.320312 C 43.914062 38.320312 41.492188 36.40625 41.492188 32.523438 C 41.492188 29.5 43.171875 26.644531 46.90625 26.660156 C 50.296875 26.660156 51.640625 28.867188 51.761719 30.394531 L 49.449219 30.394531 C 49.449219 29.960938 48.664062 28.574219 47.027344 28.574219 C 45.378906 28.574219 43.851562 29.714844 43.851562 32.550781 C 43.851562 35.574219 45.5 36.363281 47.074219 36.363281 C 47.582031 36.363281 49.28125 36.160156 49.757812 33.925781 C 48.898438 33.925781 48.042969 33.925781 47.183594 33.925781 Z M 13.664062 27.988281 C 11.257812 27.988281 9.808594 29.882812 9.808594 32.492188 C 9.808594 35.097656 11.257812 36.992188 13.664062 36.992188 C 16.070312 36.992188 17.519531 35.097656 17.519531 32.492188 C 17.519531 29.882812 16.070312 27.988281 13.664062 27.988281 Z M 19.894531 30.945312 L 21.015625 30.945312 L 21.015625 31.949219 L 21.042969 31.949219 C 21.328125 31.542969 21.871094 30.742188 23.15625 30.742188 C 25.035156 30.742188 26.378906 32.339844 26.378906 34.328125 C 26.378906 36.019531 25.402344 38.230469 22.992188 38.230469 C 22.046875 38.230469 21.421875 37.78125 21.109375 37.28125 L 21.082031 37.28125 L 21.082031 40.828125 C 20.6875 40.828125 20.289062 40.828125 19.894531 40.828125 Z M 22.902344 37.203125 C 24.203125 37.203125 25.082031 36.074219 25.082031 34.519531 C 25.082031 33.609375 24.71875 31.8125 22.875 31.8125 C 21.15625 31.8125 20.964844 33.667969 20.964844 34.816406 C 20.964844 36.699219 22.144531 37.203125 22.902344 37.203125 Z M 33.585938 35.804688 C 33.546875 36.144531 33.222656 37.148438 32.328125 37.742188 C 32.003906 37.960938 31.542969 38.230469 30.40625 38.230469 C 28.417969 38.230469 27.238281 36.726562 27.238281 34.683594 C 27.238281 32.488281 28.292969 30.742188 30.636719 30.742188 C 32.679688 30.742188 33.683594 32.367188 33.683594 34.871094 L 28.511719 34.871094 C 28.511719 36.347656 29.203125 37.203125 30.570312 37.203125 C 31.691406 37.203125 32.355469 36.335938 32.394531 35.804688 Z M 32.324219 33.925781 C 32.257812 32.828125 31.796875 31.8125 30.347656 31.8125 C 29.253906 31.8125 28.386719 32.828125 28.386719 33.925781 Z M 40.265625 38.027344 L 39.074219 38.027344 L 39.074219 33.667969 C 39.074219 32.433594 38.722656 31.8125 37.558594 31.8125 C 36.882812 31.8125 35.691406 32.246094 35.691406 34.167969 L 35.691406 38.027344 L 34.5 38.027344 L 34.5 30.945312 L 35.625 30.945312 L 35.625 31.949219 L 35.652344 31.949219 C 35.90625 31.570312 36.570312 30.742188 37.789062 30.742188 C 38.886719 30.742188 40.265625 31.191406 40.265625 33.207031 Z M 40.265625 38.027344 "/>
<path style=" stroke:none;fill-rule:evenodd;fill:rgb(68.235294%,69.019608%,69.803922%);fill-opacity:1;" d="M 13.636719 38.292969 C 10.613281 38.292969 9.125 36.449219 8.542969 34.523438 C 9.199219 37.648438 12.738281 40.707031 23.90625 42.074219 C 34.457031 43.363281 41.332031 40.128906 43.652344 38.625 C 43.652344 38.625 45.21875 37.933594 44.277344 39 C 44.277344 39 37.632812 45.144531 24.59375 45.207031 C 11.554688 45.269531 1.214844 38.6875 1.277344 32.042969 C 1.214844 25.398438 11.554688 18.816406 24.59375 18.878906 C 37.632812 18.941406 44.277344 25.085938 44.277344 25.085938 C 45.21875 26.148438 43.652344 25.460938 43.652344 25.460938 C 41.332031 23.957031 34.484375 20.992188 23.90625 22.011719 C 13.5 23.015625 10.101562 26.550781 8.976562 28.933594 C 8.539062 29.851562 8.34375 30.714844 8.296875 31.585938 C 8.578125 29.3125 9.988281 26.632812 13.636719 26.632812 C 17.769531 26.632812 19.035156 30.070312 19.035156 32.460938 C 19.035156 34.851562 17.769531 38.292969 13.636719 38.292969 Z M 55.648438 35.992188 L 61.152344 35.992188 L 61.152344 38 L 53.335938 38 L 53.335938 26.925781 L 55.648438 26.925781 Z M 47.15625 32.03125 L 51.78125 32.03125 L 51.78125 38 L 50.238281 38 L 50.007812 36.609375 C 49.421875 37.289062 48.574219 38.292969 46.554688 38.292969 C 43.886719 38.292969 41.464844 36.378906 41.464844 32.492188 C 41.464844 29.46875 43.144531 26.617188 46.878906 26.632812 C 50.269531 26.632812 51.613281 28.839844 51.734375 30.363281 L 49.421875 30.363281 C 49.421875 29.933594 48.636719 28.546875 47 28.546875 C 45.351562 28.546875 43.824219 29.6875 43.824219 32.523438 C 43.824219 35.546875 45.472656 36.332031 47.046875 36.332031 C 47.554688 36.332031 49.253906 36.132812 49.730469 33.894531 L 47.15625 33.894531 Z M 13.636719 27.960938 C 11.230469 27.960938 9.78125 29.855469 9.78125 32.460938 C 9.78125 35.070312 11.230469 36.964844 13.636719 36.964844 C 16.042969 36.964844 17.492188 35.066406 17.492188 32.460938 C 17.492188 29.855469 16.042969 27.960938 13.636719 27.960938 Z M 19.863281 30.917969 L 20.988281 30.917969 L 20.988281 31.917969 L 21.015625 31.917969 C 21.300781 31.511719 21.839844 30.714844 23.128906 30.714844 C 25.007812 30.714844 26.351562 32.308594 26.351562 34.300781 C 26.351562 35.992188 25.375 38.203125 22.964844 38.203125 C 22.015625 38.203125 21.394531 37.753906 21.082031 37.253906 L 21.054688 37.253906 L 21.054688 40.800781 C 20.660156 40.800781 20.261719 40.800781 19.863281 40.800781 Z M 22.875 37.171875 C 24.175781 37.171875 25.054688 36.046875 25.054688 34.488281 C 25.054688 33.582031 24.6875 31.785156 22.847656 31.785156 C 21.128906 31.785156 20.9375 33.640625 20.9375 34.789062 C 20.9375 36.671875 22.117188 37.171875 22.875 37.171875 Z M 33.558594 35.777344 C 33.519531 36.117188 33.195312 37.117188 32.300781 37.714844 C 31.976562 37.929688 31.515625 38.203125 30.378906 38.203125 C 28.386719 38.203125 27.210938 36.699219 27.210938 34.652344 C 27.210938 32.460938 28.265625 30.714844 30.609375 30.714844 C 32.652344 30.714844 33.652344 32.339844 33.652344 34.84375 L 28.484375 34.84375 C 28.484375 36.320312 29.171875 37.171875 30.539062 37.171875 C 31.664062 37.171875 32.328125 36.304688 32.367188 35.777344 Z M 32.296875 33.894531 C 32.230469 32.800781 31.769531 31.785156 30.320312 31.785156 C 29.222656 31.785156 28.359375 32.800781 28.359375 33.894531 Z M 40.238281 38 L 39.046875 38 L 39.046875 33.640625 C 39.046875 32.40625 38.695312 31.785156 37.53125 31.785156 C 36.855469 31.785156 35.664062 32.21875 35.664062 34.140625 L 35.664062 38 L 34.472656 38 L 34.472656 30.917969 L 35.59375 30.917969 L 35.59375 31.917969 L 35.621094 31.917969 C 35.878906 31.539062 36.542969 30.714844 37.761719 30.714844 C 38.859375 30.714844 40.238281 31.160156 40.238281 33.179688 Z M 40.238281 38 "/>
<path style=" stroke:none;fill-rule:evenodd;fill:rgb(65.882353%,66.666667%,67.45098%);fill-opacity:1;" d="M 13.609375 38.261719 C 10.582031 38.261719 9.097656 36.417969 8.515625 34.492188 C 9.171875 37.621094 12.710938 40.679688 23.878906 42.042969 C 34.429688 43.332031 41.304688 40.101562 43.625 38.59375 C 43.625 38.59375 45.191406 37.90625 44.25 38.972656 C 44.25 38.972656 37.605469 45.117188 24.566406 45.179688 C 11.527344 45.242188 1.183594 38.660156 1.25 32.015625 C 1.183594 25.371094 11.527344 18.789062 24.566406 18.851562 C 37.605469 18.914062 44.25 25.054688 44.25 25.054688 C 45.191406 26.121094 43.625 25.433594 43.625 25.433594 C 41.304688 23.929688 34.457031 20.964844 23.878906 21.984375 C 13.472656 22.988281 10.074219 26.523438 8.945312 28.90625 C 8.511719 29.820312 8.316406 30.6875 8.265625 31.558594 C 8.546875 29.285156 9.960938 26.605469 13.609375 26.605469 C 17.742188 26.605469 19.007812 30.042969 19.007812 32.433594 C 19.007812 34.824219 17.742188 38.261719 13.609375 38.261719 Z M 55.621094 35.964844 L 61.125 35.964844 L 61.125 37.96875 L 53.308594 37.96875 L 53.308594 26.898438 L 55.621094 26.898438 Z M 47.125 32 L 51.753906 32 L 51.753906 37.96875 L 50.210938 37.96875 L 49.980469 36.582031 C 49.394531 37.261719 48.546875 38.261719 46.527344 38.261719 C 43.859375 38.261719 41.4375 36.351562 41.4375 32.464844 C 41.4375 29.441406 43.117188 26.589844 46.847656 26.605469 C 50.242188 26.605469 51.582031 28.808594 51.707031 30.335938 L 49.394531 30.335938 C 49.394531 29.902344 48.605469 28.515625 46.972656 28.515625 C 45.324219 28.515625 43.796875 29.65625 43.796875 32.496094 C 43.796875 35.519531 45.445312 36.304688 47.019531 36.304688 C 47.527344 36.304688 49.222656 36.101562 49.703125 33.867188 L 47.125 33.867188 Z M 13.609375 27.929688 C 11.203125 27.929688 9.753906 29.828125 9.753906 32.433594 C 9.753906 35.039062 11.203125 36.9375 13.609375 36.9375 C 16.015625 36.9375 17.464844 35.039062 17.464844 32.433594 C 17.464844 29.828125 16.015625 27.929688 13.609375 27.929688 Z M 19.835938 30.890625 L 20.960938 30.890625 L 20.960938 31.890625 L 20.988281 31.890625 C 21.273438 31.484375 21.8125 30.6875 23.097656 30.6875 C 24.980469 30.6875 26.324219 32.28125 26.324219 34.269531 C 26.324219 35.964844 25.347656 38.171875 22.9375 38.171875 C 21.988281 38.171875 21.367188 37.726562 21.054688 37.226562 C 21.046875 37.222656 21.039062 37.222656 21.027344 37.226562 L 21.027344 40.773438 L 19.835938 40.773438 Z M 22.847656 37.144531 C 24.148438 37.144531 25.027344 36.015625 25.027344 34.460938 C 25.027344 33.554688 24.660156 31.753906 22.820312 31.753906 C 21.101562 31.753906 20.910156 33.609375 20.910156 34.761719 C 20.910156 36.644531 22.089844 37.144531 22.847656 37.144531 Z M 33.53125 35.75 C 33.492188 36.089844 33.167969 37.089844 32.273438 37.683594 C 31.949219 37.902344 31.488281 38.171875 30.351562 38.171875 C 28.359375 38.171875 27.183594 36.671875 27.183594 34.625 C 27.183594 32.433594 28.238281 30.6875 30.582031 30.6875 C 32.625 30.6875 33.625 32.308594 33.625 34.816406 L 28.453125 34.816406 C 28.453125 36.289062 29.144531 37.144531 30.511719 37.144531 C 31.636719 37.144531 32.300781 36.277344 32.339844 35.75 Z M 32.269531 33.867188 C 32.203125 32.769531 31.742188 31.753906 30.292969 31.753906 C 29.195312 31.753906 28.328125 32.769531 28.328125 33.867188 Z M 40.210938 37.96875 L 39.019531 37.96875 L 39.019531 33.609375 C 39.019531 32.378906 38.667969 31.753906 37.503906 31.753906 C 36.828125 31.753906 35.636719 32.1875 35.636719 34.109375 L 35.636719 37.96875 L 34.445312 37.96875 L 34.445312 30.890625 L 35.566406 30.890625 L 35.566406 31.890625 L 35.59375 31.890625 C 35.851562 31.511719 36.515625 30.683594 37.734375 30.683594 C 38.832031 30.683594 40.210938 31.132812 40.210938 33.148438 Z M 40.210938 37.96875 "/>
<path style=" stroke:none;fill-rule:evenodd;fill:rgb(63.529412%,64.313725%,65.098039%);fill-opacity:1;" d="M 13.582031 38.234375 C 10.554688 38.234375 9.066406 36.390625 8.488281 34.464844 C 9.144531 37.589844 12.683594 40.648438 23.851562 42.015625 C 34.402344 43.304688 41.277344 40.070312 43.597656 38.566406 C 43.597656 38.566406 45.164062 37.878906 44.222656 38.941406 C 44.222656 38.941406 37.578125 45.085938 24.539062 45.148438 C 11.5 45.210938 1.15625 38.628906 1.21875 31.984375 C 1.15625 25.339844 11.5 18.757812 24.539062 18.820312 C 37.578125 18.882812 44.222656 25.027344 44.222656 25.027344 C 45.164062 26.09375 43.59375 25.402344 43.59375 25.402344 C 41.277344 23.898438 34.429688 20.9375 23.851562 21.957031 C 13.445312 22.957031 10.046875 26.496094 8.917969 28.875 C 8.484375 29.792969 8.289062 30.65625 8.238281 31.527344 C 8.519531 29.253906 9.933594 26.574219 13.582031 26.574219 C 17.714844 26.574219 18.980469 30.015625 18.980469 32.40625 C 18.980469 34.796875 17.714844 38.234375 13.582031 38.234375 Z M 55.59375 35.9375 L 61.097656 35.9375 L 61.097656 37.941406 C 58.492188 37.941406 55.886719 37.941406 53.28125 37.941406 L 53.28125 26.867188 L 55.59375 26.867188 Z M 47.097656 31.972656 L 51.726562 31.972656 L 51.726562 37.941406 C 51.210938 37.941406 50.695312 37.941406 50.183594 37.941406 C 50.105469 37.476562 50.027344 37.015625 49.953125 36.554688 C 49.367188 37.230469 48.519531 38.234375 46.496094 38.234375 C 43.828125 38.234375 41.410156 36.320312 41.410156 32.433594 C 41.410156 29.414062 43.089844 26.558594 46.820312 26.574219 C 50.214844 26.574219 51.554688 28.78125 51.679688 30.308594 L 49.367188 30.308594 C 49.367188 29.875 48.578125 28.488281 46.945312 28.488281 C 45.292969 28.488281 43.769531 29.628906 43.769531 32.46875 C 43.769531 35.488281 45.417969 36.277344 46.992188 36.277344 C 47.5 36.277344 49.195312 36.074219 49.675781 33.839844 L 47.097656 33.839844 Z M 13.582031 27.902344 C 11.175781 27.902344 9.726562 29.796875 9.726562 32.40625 C 9.726562 35.011719 11.175781 36.90625 13.582031 36.90625 C 15.988281 36.90625 17.4375 35.011719 17.4375 32.40625 C 17.4375 29.796875 15.988281 27.902344 13.582031 27.902344 Z M 19.808594 30.859375 L 20.933594 30.859375 L 20.933594 31.863281 L 20.960938 31.863281 C 21.242188 31.457031 21.785156 30.65625 23.070312 30.65625 C 24.953125 30.65625 26.292969 32.25 26.292969 34.242188 C 26.292969 35.933594 25.320312 38.144531 22.910156 38.144531 C 21.960938 38.144531 21.339844 37.695312 21.027344 37.195312 L 21 37.195312 L 21 40.742188 L 19.808594 40.742188 Z M 22.820312 37.113281 C 24.117188 37.113281 25 35.988281 25 34.433594 C 25 33.523438 24.632812 31.726562 22.792969 31.726562 C 21.074219 31.726562 20.882812 33.582031 20.882812 34.734375 C 20.882812 36.613281 22.0625 37.113281 22.820312 37.113281 Z M 33.503906 35.71875 C 33.464844 36.058594 33.140625 37.0625 32.246094 37.65625 C 31.921875 37.871094 31.460938 38.144531 30.324219 38.144531 C 28.332031 38.144531 27.15625 36.640625 27.15625 34.597656 C 27.15625 32.402344 28.210938 30.65625 30.550781 30.65625 C 32.597656 30.65625 33.597656 32.28125 33.597656 34.785156 L 28.425781 34.785156 C 28.425781 36.261719 29.117188 37.113281 30.484375 37.113281 C 31.609375 37.113281 32.273438 36.25 32.3125 35.71875 Z M 32.242188 33.839844 C 32.171875 32.742188 31.714844 31.726562 30.265625 31.726562 C 29.167969 31.726562 28.300781 32.742188 28.300781 33.839844 Z M 40.183594 37.941406 C 39.785156 37.941406 39.390625 37.941406 38.992188 37.941406 L 38.992188 33.582031 C 38.992188 32.347656 38.640625 31.726562 37.476562 31.726562 C 36.800781 31.726562 35.609375 32.160156 35.609375 34.082031 L 35.609375 37.941406 C 35.210938 37.941406 34.8125 37.941406 34.414062 37.941406 L 34.414062 30.859375 L 35.539062 30.859375 L 35.539062 31.863281 L 35.566406 31.863281 C 35.824219 31.484375 36.488281 30.65625 37.707031 30.65625 C 38.800781 30.65625 40.183594 31.105469 40.183594 33.121094 Z M 40.183594 37.941406 "/>
<path style=" stroke:none;fill-rule:evenodd;fill:rgb(61.176471%,61.960784%,62.745098%);fill-opacity:1;" d="M 13.554688 38.203125 C 10.527344 38.203125 9.039062 36.363281 8.460938 34.4375 C 9.113281 37.5625 12.65625 40.621094 23.820312 41.988281 C 34.375 43.277344 41.25 40.042969 43.566406 38.539062 C 43.566406 38.539062 45.136719 37.847656 44.195312 38.914062 C 44.195312 38.914062 37.550781 45.058594 24.511719 45.121094 C 11.472656 45.183594 1.128906 38.601562 1.191406 31.957031 C 1.128906 25.3125 11.472656 18.730469 24.511719 18.792969 C 37.550781 18.855469 44.195312 25 44.195312 25 C 45.136719 26.0625 43.566406 25.375 43.566406 25.375 C 41.25 23.871094 34.402344 20.90625 23.820312 21.925781 C 13.417969 22.929688 10.019531 26.464844 8.890625 28.847656 C 8.457031 29.765625 8.261719 30.628906 8.210938 31.5 C 8.492188 29.226562 9.90625 26.546875 13.554688 26.546875 C 17.6875 26.546875 18.949219 29.984375 18.949219 32.375 C 18.949219 34.765625 17.6875 38.203125 13.554688 38.203125 Z M 55.566406 35.90625 L 61.070312 35.90625 L 61.070312 37.910156 L 53.253906 37.910156 L 53.253906 26.839844 L 55.566406 26.839844 Z M 47.070312 31.945312 L 51.695312 31.945312 L 51.695312 37.910156 L 50.15625 37.910156 C 50.078125 37.449219 50 36.988281 49.925781 36.523438 C 49.335938 37.203125 48.488281 38.203125 46.46875 38.203125 C 43.800781 38.203125 41.378906 36.292969 41.378906 32.40625 C 41.378906 29.382812 43.0625 26.53125 46.792969 26.546875 C 50.1875 26.546875 51.527344 28.753906 51.652344 30.277344 L 49.339844 30.277344 C 49.339844 29.847656 48.550781 28.457031 46.917969 28.457031 C 45.265625 28.457031 43.742188 29.601562 43.742188 32.4375 C 43.742188 35.460938 45.390625 36.246094 46.964844 36.246094 C 47.472656 36.246094 49.167969 36.046875 49.644531 33.808594 L 47.070312 33.808594 Z M 13.554688 27.875 C 11.148438 27.875 9.699219 29.769531 9.699219 32.375 C 9.699219 34.980469 11.148438 36.878906 13.554688 36.878906 C 15.960938 36.878906 17.410156 34.980469 17.410156 32.375 C 17.410156 29.769531 15.960938 27.875 13.554688 27.875 Z M 19.78125 30.832031 L 20.90625 30.832031 L 20.90625 31.832031 L 20.933594 31.832031 C 21.214844 31.425781 21.757812 30.628906 23.042969 30.628906 C 24.925781 30.628906 26.265625 32.222656 26.265625 34.214844 C 26.265625 35.90625 25.292969 38.117188 22.882812 38.117188 C 21.933594 38.117188 21.3125 37.667969 21 37.167969 L 20.972656 37.167969 L 20.972656 40.714844 L 19.78125 40.714844 Z M 22.792969 37.085938 C 24.089844 37.085938 24.972656 35.960938 24.972656 34.402344 C 24.972656 33.496094 24.605469 31.699219 22.765625 31.699219 C 21.042969 31.699219 20.855469 33.554688 20.855469 34.703125 C 20.855469 36.585938 22.035156 37.085938 22.792969 37.085938 Z M 33.476562 35.691406 C 33.4375 36.03125 33.109375 37.03125 32.21875 37.628906 C 31.890625 37.84375 31.433594 38.117188 30.296875 38.117188 C 28.304688 38.117188 27.125 36.613281 27.125 34.566406 C 27.125 32.375 28.183594 30.628906 30.523438 30.628906 C 32.570312 30.628906 33.570312 32.253906 33.570312 34.757812 L 28.398438 34.757812 C 28.398438 36.234375 29.089844 37.085938 30.457031 37.085938 C 31.582031 37.085938 32.246094 36.21875 32.285156 35.691406 Z M 32.214844 33.808594 C 32.144531 32.714844 31.6875 31.699219 30.238281 31.699219 C 29.140625 31.699219 28.273438 32.714844 28.273438 33.808594 Z M 40.15625 37.910156 L 38.964844 37.910156 L 38.964844 33.554688 C 38.964844 32.320312 38.613281 31.699219 37.449219 31.699219 C 36.769531 31.699219 35.578125 32.132812 35.578125 34.054688 L 35.578125 37.910156 L 34.386719 37.910156 L 34.386719 30.832031 L 35.511719 30.832031 L 35.511719 31.832031 L 35.539062 31.832031 C 35.796875 31.453125 36.460938 30.628906 37.675781 30.628906 C 38.773438 30.628906 40.15625 31.074219 40.15625 33.09375 Z M 40.15625 37.910156 "/>
<path style=" stroke:none;fill-rule:evenodd;fill:rgb(59.607843%,60.392157%,61.176471%);fill-opacity:1;" d="M 13.527344 38.175781 C 10.5 38.175781 9.011719 36.332031 8.433594 34.40625 C 9.085938 37.535156 12.625 40.59375 23.792969 41.957031 C 34.34375 43.246094 41.21875 40.015625 43.539062 38.511719 C 43.539062 38.511719 45.109375 37.820312 44.167969 38.886719 C 44.167969 38.886719 37.523438 45.03125 24.484375 45.09375 C 11.445312 45.15625 1.101562 38.574219 1.164062 31.929688 C 1.101562 25.285156 11.445312 18.703125 24.484375 18.765625 C 37.523438 18.828125 44.167969 24.96875 44.167969 24.96875 C 45.109375 26.035156 43.539062 25.347656 43.539062 25.347656 C 41.21875 23.84375 34.375 20.878906 23.792969 21.898438 C 13.386719 22.902344 9.992188 26.4375 8.863281 28.820312 C 8.429688 29.734375 8.234375 30.601562 8.183594 31.472656 C 8.464844 29.199219 9.878906 26.519531 13.527344 26.519531 C 17.660156 26.519531 18.921875 29.957031 18.921875 32.347656 C 18.921875 34.738281 17.660156 38.175781 13.527344 38.175781 Z M 55.539062 35.878906 L 61.042969 35.878906 L 61.042969 37.882812 L 53.222656 37.882812 L 53.222656 26.8125 L 55.539062 26.8125 Z M 47.042969 31.914062 L 51.667969 31.914062 L 51.667969 37.882812 L 50.128906 37.882812 L 49.894531 36.496094 C 49.308594 37.175781 48.460938 38.175781 46.441406 38.175781 C 43.773438 38.175781 41.351562 36.265625 41.351562 32.378906 C 41.351562 29.355469 43.035156 26.503906 46.765625 26.519531 C 50.160156 26.519531 51.5 28.722656 51.625 30.25 L 49.308594 30.25 C 49.308594 29.816406 48.523438 28.429688 46.890625 28.429688 C 45.238281 28.429688 43.710938 29.570312 43.710938 32.410156 C 43.710938 35.429688 45.363281 36.21875 46.933594 36.21875 C 47.445312 36.21875 49.140625 36.015625 49.617188 33.78125 L 47.042969 33.78125 Z M 13.527344 27.84375 C 11.121094 27.84375 9.671875 29.742188 9.671875 32.347656 C 9.671875 34.953125 11.121094 36.851562 13.527344 36.851562 C 15.929688 36.851562 17.382812 34.953125 17.382812 32.347656 C 17.382812 29.742188 15.929688 27.84375 13.527344 27.84375 Z M 19.753906 30.804688 L 20.875 30.804688 L 20.875 31.804688 L 20.902344 31.804688 C 21.1875 31.398438 21.730469 30.601562 23.015625 30.601562 C 24.898438 30.601562 26.238281 32.195312 26.238281 34.183594 C 26.238281 35.878906 25.261719 38.085938 22.855469 38.085938 C 21.90625 38.085938 21.28125 37.640625 20.972656 37.140625 L 20.945312 37.140625 L 20.945312 40.6875 L 19.753906 40.6875 Z M 22.765625 37.058594 C 24.0625 37.058594 24.945312 35.929688 24.945312 34.375 C 24.945312 33.46875 24.578125 31.667969 22.738281 31.667969 C 21.015625 31.667969 20.828125 33.523438 20.828125 34.675781 C 20.828125 36.558594 22.003906 37.058594 22.765625 37.058594 Z M 33.449219 35.664062 C 33.40625 36 33.082031 37.003906 32.1875 37.597656 C 31.863281 37.816406 31.402344 38.085938 30.265625 38.085938 C 28.277344 38.085938 27.097656 36.582031 27.097656 34.539062 C 27.097656 32.347656 28.15625 30.601562 30.496094 30.601562 C 32.542969 30.601562 33.542969 32.226562 33.542969 34.730469 L 28.371094 34.730469 C 28.371094 36.207031 29.0625 37.058594 30.429688 37.058594 C 31.554688 37.058594 32.214844 36.191406 32.257812 35.664062 C 32.652344 35.664062 33.050781 35.664062 33.449219 35.664062 Z M 32.1875 33.78125 C 32.117188 32.683594 31.65625 31.667969 30.210938 31.667969 C 29.113281 31.667969 28.246094 32.683594 28.246094 33.78125 Z M 40.128906 37.882812 L 38.9375 37.882812 L 38.9375 33.523438 C 38.9375 32.292969 38.585938 31.667969 37.421875 31.667969 C 36.742188 31.667969 35.550781 32.101562 35.550781 34.023438 L 35.550781 37.882812 L 34.359375 37.882812 L 34.359375 30.804688 L 35.484375 30.804688 L 35.484375 31.804688 L 35.511719 31.804688 C 35.769531 31.425781 36.433594 30.601562 37.648438 30.601562 C 38.746094 30.601562 40.128906 31.046875 40.128906 33.0625 Z M 40.128906 37.882812 "/>
<path style=" stroke:none;fill-rule:evenodd;fill:rgb(57.254902%,58.039216%,58.823529%);fill-opacity:1;" d="M 13.496094 38.148438 C 10.472656 38.148438 8.984375 36.304688 8.402344 34.378906 C 9.058594 37.503906 12.597656 40.566406 23.765625 41.929688 C 34.316406 43.21875 41.191406 39.984375 43.511719 38.480469 C 43.511719 38.480469 45.078125 37.792969 44.140625 38.859375 C 44.140625 38.859375 37.496094 45 24.457031 45.0625 C 11.417969 45.125 1.074219 38.542969 1.136719 31.898438 C 1.074219 25.253906 11.417969 18.671875 24.457031 18.734375 C 37.496094 18.796875 44.140625 24.941406 44.140625 24.941406 C 45.078125 26.007812 43.511719 25.316406 43.511719 25.316406 C 41.191406 23.8125 34.347656 20.851562 23.765625 21.871094 C 13.359375 22.871094 9.964844 26.410156 8.835938 28.789062 C 8.402344 29.707031 8.203125 30.570312 8.15625 31.441406 C 8.4375 29.167969 9.847656 26.488281 13.496094 26.488281 C 17.628906 26.488281 18.894531 29.929688 18.894531 32.320312 C 18.894531 34.710938 17.628906 38.148438 13.496094 38.148438 Z M 55.507812 35.851562 L 61.015625 35.851562 L 61.015625 37.855469 L 53.195312 37.855469 L 53.195312 26.78125 L 55.507812 26.78125 Z M 47.015625 31.886719 L 51.640625 31.886719 L 51.640625 37.855469 L 50.097656 37.855469 C 50.023438 37.390625 49.945312 36.929688 49.867188 36.46875 C 49.28125 37.144531 48.433594 38.148438 46.414062 38.148438 C 43.746094 38.148438 41.324219 36.234375 41.324219 32.351562 C 41.324219 29.328125 43.007812 26.472656 46.738281 26.488281 C 50.128906 26.488281 51.472656 28.695312 51.59375 30.222656 L 49.28125 30.222656 C 49.28125 29.789062 48.496094 28.402344 46.859375 28.402344 C 45.210938 28.402344 43.683594 29.542969 43.683594 32.378906 C 43.683594 35.402344 45.335938 36.191406 46.90625 36.191406 C 47.417969 36.191406 49.113281 35.988281 49.589844 33.753906 L 47.015625 33.753906 Z M 13.496094 27.816406 C 11.09375 27.816406 9.644531 29.710938 9.644531 32.320312 C 9.644531 34.925781 11.09375 36.820312 13.496094 36.820312 C 15.902344 36.820312 17.351562 34.925781 17.351562 32.320312 C 17.351562 29.710938 15.902344 27.816406 13.496094 27.816406 Z M 19.726562 30.773438 L 20.847656 30.773438 L 20.847656 31.777344 L 20.875 31.777344 C 21.160156 31.371094 21.703125 30.570312 22.988281 30.570312 C 24.871094 30.570312 26.210938 32.167969 26.210938 34.15625 C 26.210938 35.847656 25.234375 38.058594 22.824219 38.058594 C 21.878906 38.058594 21.253906 37.609375 20.945312 37.109375 L 20.917969 37.109375 L 20.917969 40.65625 L 19.726562 40.65625 Z M 22.734375 37.027344 C 24.035156 37.027344 24.917969 35.902344 24.917969 34.347656 C 24.917969 33.4375 24.550781 31.640625 22.707031 31.640625 C 20.988281 31.640625 20.800781 33.496094 20.800781 34.644531 C 20.800781 36.527344 21.976562 37.027344 22.734375 37.027344 Z M 33.421875 35.632812 C 33.378906 35.972656 33.054688 36.976562 32.160156 37.570312 C 31.835938 37.789062 31.375 38.058594 30.238281 38.058594 C 28.25 38.058594 27.070312 36.554688 27.070312 34.511719 C 27.070312 32.316406 28.125 30.570312 30.46875 30.570312 C 32.511719 30.570312 33.515625 32.195312 33.515625 34.699219 L 28.34375 34.699219 C 28.34375 36.175781 29.035156 37.03125 30.402344 37.03125 C 31.523438 37.03125 32.1875 36.164062 32.226562 35.632812 Z M 32.15625 33.753906 C 32.089844 32.65625 31.628906 31.640625 30.179688 31.640625 C 29.085938 31.640625 28.21875 32.65625 28.21875 33.753906 Z M 40.101562 37.855469 L 38.910156 37.855469 L 38.910156 33.496094 C 38.910156 32.261719 38.554688 31.640625 37.390625 31.640625 C 36.714844 31.640625 35.523438 32.074219 35.523438 33.996094 L 35.523438 37.855469 L 34.332031 37.855469 L 34.332031 30.773438 L 35.457031 30.773438 L 35.457031 31.777344 L 35.484375 31.777344 C 35.742188 31.398438 36.402344 30.570312 37.621094 30.570312 C 38.71875 30.570312 40.101562 31.019531 40.101562 33.035156 Z M 40.101562 37.855469 "/>
<path style=" stroke:none;fill-rule:evenodd;fill:rgb(55.294118%,55.686275%,56.862745%);fill-opacity:1;" d="M 13.46875 38.121094 C 10.445312 38.121094 8.957031 36.277344 8.375 34.351562 C 9.03125 37.476562 12.570312 40.535156 23.738281 41.902344 C 34.289062 43.191406 41.164062 39.957031 43.484375 38.453125 C 43.484375 38.453125 45.050781 37.761719 44.113281 38.828125 C 44.113281 38.828125 37.464844 44.972656 24.429688 45.035156 C 11.390625 45.097656 1.046875 38.515625 1.109375 31.871094 C 1.046875 25.226562 11.390625 18.644531 24.429688 18.707031 C 37.464844 18.769531 44.109375 24.914062 44.109375 24.914062 C 45.050781 25.976562 43.484375 25.289062 43.484375 25.289062 C 41.164062 23.785156 34.320312 20.820312 23.738281 21.839844 C 13.332031 22.84375 9.933594 26.378906 8.808594 28.761719 C 8.371094 29.679688 8.175781 30.542969 8.128906 31.414062 C 8.410156 29.140625 9.820312 26.460938 13.46875 26.460938 C 17.601562 26.460938 18.867188 29.898438 18.867188 32.289062 C 18.867188 34.679688 17.601562 38.121094 13.46875 38.121094 Z M 55.480469 35.820312 L 60.988281 35.820312 L 60.988281 37.828125 L 53.167969 37.828125 L 53.167969 26.753906 L 55.480469 26.753906 Z M 46.988281 31.859375 L 51.613281 31.859375 L 51.613281 37.828125 L 50.070312 37.828125 C 49.996094 37.363281 49.917969 36.902344 49.839844 36.4375 C 49.253906 37.117188 48.40625 38.121094 46.386719 38.121094 C 43.71875 38.121094 41.296875 36.207031 41.296875 32.320312 C 41.296875 29.296875 42.976562 26.445312 46.710938 26.460938 C 50.101562 26.460938 51.445312 28.667969 51.566406 30.191406 L 49.253906 30.191406 C 49.253906 29.761719 48.46875 28.375 46.832031 28.375 C 45.183594 28.375 43.65625 29.515625 43.65625 32.351562 C 43.65625 35.375 45.304688 36.160156 46.878906 36.160156 C 47.390625 36.160156 49.085938 35.960938 49.5625 33.722656 L 46.988281 33.722656 Z M 13.46875 27.789062 C 11.0625 27.789062 9.613281 29.683594 9.613281 32.289062 C 9.613281 34.898438 11.0625 36.792969 13.46875 36.792969 C 15.875 36.792969 17.324219 34.894531 17.324219 32.289062 C 17.324219 29.683594 15.875 27.789062 13.46875 27.789062 Z M 19.699219 30.746094 L 20.820312 30.746094 L 20.820312 31.746094 L 20.847656 31.746094 C 21.132812 31.339844 21.675781 30.542969 22.960938 30.542969 C 24.84375 30.542969 26.183594 32.136719 26.183594 34.128906 C 26.183594 35.820312 25.207031 38.027344 22.796875 38.027344 C 21.851562 38.027344 21.226562 37.582031 20.917969 37.082031 L 20.890625 37.082031 L 20.890625 40.628906 C 20.492188 40.628906 20.09375 40.628906 19.699219 40.628906 Z M 22.707031 37 C 24.007812 37 24.886719 35.875 24.886719 34.316406 C 24.886719 33.410156 24.523438 31.613281 22.679688 31.613281 C 20.960938 31.613281 20.773438 33.46875 20.773438 34.617188 C 20.773438 36.5 21.949219 37 22.707031 37 Z M 33.390625 35.605469 C 33.351562 35.945312 33.027344 36.945312 32.132812 37.542969 C 31.808594 37.757812 31.347656 38.027344 30.210938 38.027344 C 28.222656 38.027344 27.042969 36.527344 27.042969 34.480469 C 27.042969 32.289062 28.097656 30.542969 30.441406 30.542969 C 32.484375 30.542969 33.488281 32.167969 33.488281 34.671875 L 28.316406 34.671875 C 28.316406 36.148438 29.007812 37 30.375 37 C 31.496094 37 32.160156 36.132812 32.199219 35.605469 Z M 32.128906 33.722656 C 32.0625 32.628906 31.601562 31.613281 30.152344 31.613281 C 29.058594 31.613281 28.191406 32.628906 28.191406 33.722656 Z M 40.070312 37.828125 L 38.878906 37.828125 L 38.878906 33.46875 C 38.878906 32.234375 38.527344 31.613281 37.363281 31.613281 C 36.6875 31.613281 35.496094 32.046875 35.496094 33.96875 L 35.496094 37.828125 L 34.304688 37.828125 L 34.304688 30.746094 L 35.429688 30.746094 L 35.429688 31.746094 L 35.457031 31.746094 C 35.710938 31.367188 36.375 30.542969 37.59375 30.542969 C 38.691406 30.542969 40.070312 30.988281 40.070312 33.007812 Z M 40.070312 37.828125 "/>
<path style=" stroke:none;fill-rule:evenodd;fill:rgb(52.941176%,53.72549%,54.509804%);fill-opacity:1;" d="M 13.441406 38.089844 C 10.417969 38.089844 8.929688 36.246094 8.347656 34.320312 C 9.003906 37.449219 12.542969 40.507812 23.710938 41.871094 C 34.261719 43.160156 41.136719 39.929688 43.457031 38.425781 C 43.457031 38.425781 45.023438 37.734375 44.082031 38.800781 C 44.082031 38.800781 37.4375 44.945312 24.398438 45.007812 C 11.359375 45.070312 1.019531 38.488281 1.082031 31.84375 C 1.019531 25.199219 11.359375 18.617188 24.398438 18.679688 C 37.4375 18.742188 44.082031 24.882812 44.082031 24.882812 C 45.023438 25.949219 43.457031 25.261719 43.457031 25.261719 C 41.136719 23.753906 34.289062 20.792969 23.710938 21.8125 C 13.304688 22.816406 9.90625 26.351562 8.78125 28.734375 C 8.34375 29.648438 8.148438 30.515625 8.101562 31.382812 C 8.382812 29.113281 9.792969 26.433594 13.441406 26.433594 C 17.574219 26.433594 18.839844 29.871094 18.839844 32.261719 C 18.839844 34.652344 17.574219 38.089844 13.441406 38.089844 Z M 55.453125 35.792969 C 57.289062 35.792969 59.125 35.792969 60.957031 35.792969 L 60.957031 37.796875 L 53.140625 37.796875 L 53.140625 26.726562 L 55.453125 26.726562 Z M 46.960938 31.828125 L 51.585938 31.828125 L 51.585938 37.796875 L 50.042969 37.796875 L 49.8125 36.410156 C 49.226562 37.089844 48.378906 38.089844 46.359375 38.089844 C 43.691406 38.089844 41.269531 36.179688 41.269531 32.292969 C 41.269531 29.269531 42.949219 26.417969 46.683594 26.433594 C 50.074219 26.433594 51.417969 28.636719 51.539062 30.164062 L 49.226562 30.164062 C 49.226562 29.734375 48.441406 28.34375 46.804688 28.34375 C 45.15625 28.34375 43.628906 29.484375 43.628906 32.324219 C 43.628906 35.347656 45.277344 36.132812 46.851562 36.132812 C 47.359375 36.132812 49.058594 35.933594 49.535156 33.695312 L 46.960938 33.695312 Z M 13.441406 27.757812 C 11.035156 27.757812 9.585938 29.65625 9.585938 32.261719 C 9.585938 34.867188 11.035156 36.765625 13.441406 36.765625 C 15.847656 36.765625 17.296875 34.867188 17.296875 32.261719 C 17.296875 29.65625 15.847656 27.757812 13.441406 27.757812 Z M 19.667969 30.71875 L 20.792969 30.71875 L 20.792969 31.71875 L 20.820312 31.71875 C 21.105469 31.3125 21.644531 30.515625 22.933594 30.515625 C 24.8125 30.515625 26.15625 32.109375 26.15625 34.097656 C 26.15625 35.792969 25.179688 38 22.769531 38 C 21.824219 38 21.199219 37.554688 20.886719 37.054688 L 20.859375 37.054688 L 20.859375 40.601562 C 20.464844 40.601562 20.066406 40.601562 19.667969 40.601562 Z M 22.679688 36.972656 C 23.980469 36.972656 24.859375 35.847656 24.859375 34.289062 C 24.859375 33.382812 24.496094 31.582031 22.652344 31.582031 C 20.933594 31.582031 20.746094 33.4375 20.746094 34.589844 C 20.742188 36.472656 21.921875 36.972656 22.679688 36.972656 Z M 33.363281 35.578125 C 33.324219 35.914062 33 36.917969 32.105469 37.511719 C 31.78125 37.730469 31.320312 38 30.183594 38 C 28.191406 38 27.015625 36.5 27.015625 34.453125 C 27.015625 32.261719 28.070312 30.515625 30.414062 30.515625 C 32.457031 30.515625 33.457031 32.136719 33.457031 34.644531 C 31.734375 34.644531 30.011719 34.644531 28.289062 34.644531 C 28.289062 36.117188 28.976562 36.972656 30.34375 36.972656 C 31.46875 36.972656 32.132812 36.105469 32.171875 35.578125 Z M 32.101562 33.695312 C 32.035156 32.597656 31.574219 31.582031 30.125 31.582031 C 29.027344 31.582031 28.164062 32.597656 28.164062 33.695312 Z M 40.042969 37.796875 L 38.851562 37.796875 L 38.851562 33.4375 C 38.851562 32.207031 38.5 31.582031 37.335938 31.582031 C 36.660156 31.582031 35.46875 32.015625 35.46875 33.9375 L 35.46875 37.796875 L 34.277344 37.796875 L 34.277344 30.71875 L 35.398438 30.71875 L 35.398438 31.71875 L 35.425781 31.71875 C 35.683594 31.339844 36.347656 30.515625 37.566406 30.515625 C 38.664062 30.515625 40.042969 30.960938 40.042969 32.976562 Z M 40.042969 37.796875 "/>
<path style=" stroke:none;fill-rule:evenodd;fill:rgb(50.980392%,51.372549%,52.156863%);fill-opacity:1;" d="M 13.414062 38.0625 C 10.386719 38.0625 8.898438 36.21875 8.320312 34.292969 C 8.976562 37.417969 12.515625 40.480469 23.683594 41.84375 C 34.234375 43.132812 41.109375 39.898438 43.429688 38.394531 C 43.429688 38.394531 44.996094 37.707031 44.054688 38.773438 C 44.054688 38.773438 37.410156 44.914062 24.371094 44.976562 C 11.332031 45.039062 0.988281 38.457031 1.054688 31.8125 C 0.988281 25.167969 11.332031 18.585938 24.371094 18.648438 C 37.410156 18.710938 44.054688 24.855469 44.054688 24.855469 C 44.996094 25.921875 43.429688 25.230469 43.429688 25.230469 C 41.109375 23.726562 34.261719 20.765625 23.683594 21.785156 C 13.277344 22.785156 9.878906 26.324219 8.75 28.703125 C 8.316406 29.621094 8.121094 30.484375 8.070312 31.355469 C 8.351562 29.082031 9.765625 26.402344 13.414062 26.402344 C 17.546875 26.402344 18.8125 29.84375 18.8125 32.234375 C 18.8125 34.625 17.546875 38.0625 13.414062 38.0625 Z M 55.425781 35.765625 L 60.929688 35.765625 L 60.929688 37.769531 L 53.113281 37.769531 L 53.113281 26.695312 L 55.425781 26.695312 Z M 46.929688 31.800781 L 51.558594 31.800781 L 51.558594 37.769531 L 50.015625 37.769531 C 49.9375 37.304688 49.859375 36.84375 49.785156 36.382812 C 49.199219 37.058594 48.351562 38.0625 46.332031 38.0625 C 43.664062 38.0625 41.242188 36.148438 41.242188 32.261719 C 41.242188 29.242188 42.921875 26.386719 46.652344 26.402344 C 50.046875 26.402344 51.386719 28.609375 51.511719 30.136719 L 49.199219 30.136719 C 49.199219 29.703125 48.410156 28.316406 46.777344 28.316406 C 45.128906 28.316406 43.601562 29.457031 43.601562 32.292969 C 43.601562 35.316406 45.25 36.105469 46.824219 36.105469 C 47.332031 36.105469 49.027344 35.902344 49.507812 33.667969 L 46.929688 33.667969 Z M 13.414062 27.730469 C 11.007812 27.730469 9.558594 29.628906 9.558594 32.234375 C 9.558594 34.839844 11.007812 36.734375 13.414062 36.734375 C 15.820312 36.734375 17.269531 34.839844 17.269531 32.234375 C 17.269531 29.628906 15.820312 27.730469 13.414062 27.730469 Z M 19.640625 30.6875 L 20.765625 30.6875 L 20.765625 31.691406 L 20.792969 31.691406 C 21.078125 31.285156 21.617188 30.484375 22.902344 30.484375 C 24.785156 30.484375 26.128906 32.082031 26.128906 34.070312 C 26.128906 35.761719 25.152344 37.972656 22.742188 37.972656 C 21.792969 37.972656 21.171875 37.523438 20.859375 37.023438 C 20.851562 37.023438 20.839844 37.023438 20.832031 37.023438 L 20.832031 40.570312 L 19.640625 40.570312 Z M 22.652344 36.941406 C 23.953125 36.941406 24.832031 35.816406 24.832031 34.261719 C 24.832031 33.351562 24.464844 31.554688 22.625 31.554688 C 20.90625 31.554688 20.714844 33.410156 20.714844 34.5625 C 20.714844 36.441406 21.894531 36.941406 22.652344 36.941406 Z M 33.335938 35.546875 C 33.296875 35.886719 32.972656 36.890625 32.078125 37.484375 C 31.753906 37.699219 31.292969 37.972656 30.15625 37.972656 C 28.164062 37.972656 26.988281 36.46875 26.988281 34.425781 C 26.988281 32.230469 28.042969 30.484375 30.386719 30.484375 C 32.429688 30.484375 33.429688 32.109375 33.429688 34.613281 L 28.257812 34.613281 C 28.257812 36.089844 28.949219 36.941406 30.316406 36.941406 C 31.441406 36.941406 32.105469 36.078125 32.144531 35.550781 Z M 32.074219 33.667969 C 32.007812 32.570312 31.546875 31.554688 30.097656 31.554688 C 29 31.554688 28.136719 32.570312 28.136719 33.667969 Z M 40.015625 37.769531 L 38.824219 37.769531 L 38.824219 33.410156 C 38.824219 32.179688 38.472656 31.554688 37.308594 31.554688 C 36.632812 31.554688 35.441406 31.988281 35.441406 33.910156 L 35.441406 37.769531 L 34.25 37.769531 L 34.25 30.6875 L 35.371094 30.6875 L 35.371094 31.691406 L 35.398438 31.691406 C 35.65625 31.3125 36.320312 30.484375 37.539062 30.484375 C 38.636719 30.484375 40.015625 30.933594 40.015625 32.949219 Z M 40.015625 37.769531 "/>
<path style=" stroke:none;fill-rule:evenodd;fill:rgb(48.627451%,49.019608%,50.196078%);fill-opacity:1;" d="M 13.386719 38.035156 C 10.359375 38.035156 8.871094 36.191406 8.292969 34.265625 C 8.949219 37.390625 12.488281 40.449219 23.65625 41.816406 C 34.207031 43.105469 41.082031 39.871094 43.402344 38.367188 C 43.402344 38.367188 44.96875 37.675781 44.027344 38.742188 C 44.027344 38.742188 37.382812 44.886719 24.34375 44.949219 C 11.304688 45.011719 0.960938 38.429688 1.023438 31.785156 C 0.960938 25.140625 11.304688 18.558594 24.34375 18.621094 C 37.382812 18.683594 44.027344 24.828125 44.027344 24.828125 C 44.96875 25.894531 43.402344 25.203125 43.402344 25.203125 C 41.082031 23.699219 34.234375 20.734375 23.65625 21.753906 C 13.25 22.757812 9.851562 26.292969 8.722656 28.675781 C 8.289062 29.59375 8.09375 30.457031 8.042969 31.328125 C 8.324219 29.054688 9.738281 26.375 13.386719 26.375 C 17.519531 26.375 18.785156 29.8125 18.785156 32.203125 C 18.785156 34.59375 17.519531 38.035156 13.386719 38.035156 Z M 55.398438 35.734375 L 60.902344 35.734375 L 60.902344 37.738281 L 53.085938 37.738281 L 53.085938 26.667969 L 55.398438 26.667969 Z M 46.902344 31.773438 L 51.53125 31.773438 L 51.53125 37.738281 L 49.988281 37.738281 C 49.910156 37.277344 49.832031 36.816406 49.757812 36.351562 C 49.171875 37.03125 48.324219 38.03125 46.300781 38.03125 C 43.632812 38.03125 41.214844 36.121094 41.214844 32.234375 C 41.214844 29.210938 42.894531 26.359375 46.625 26.375 C 50.019531 26.375 51.359375 28.582031 51.484375 30.105469 L 49.171875 30.105469 C 49.171875 29.675781 48.382812 28.285156 46.75 28.285156 C 45.097656 28.285156 43.574219 29.429688 43.574219 32.265625 C 43.574219 35.289062 45.222656 36.074219 46.796875 36.074219 C 47.304688 36.074219 49 35.875 49.480469 33.636719 L 46.902344 33.636719 Z M 13.386719 27.703125 C 10.980469 27.703125 9.53125 29.597656 9.53125 32.203125 C 9.53125 34.808594 10.980469 36.707031 13.386719 36.707031 C 15.792969 36.707031 17.242188 34.808594 17.242188 32.203125 C 17.242188 29.597656 15.792969 27.703125 13.386719 27.703125 Z M 19.613281 30.660156 L 20.738281 30.660156 L 20.738281 31.660156 L 20.765625 31.660156 C 21.046875 31.253906 21.589844 30.457031 22.875 30.457031 C 24.757812 30.457031 26.097656 32.050781 26.097656 34.042969 C 26.097656 35.734375 25.125 37.945312 22.714844 37.945312 C 21.765625 37.945312 21.144531 37.496094 20.832031 36.996094 L 20.804688 36.996094 L 20.804688 40.542969 L 19.613281 40.542969 Z M 22.625 36.914062 C 23.921875 36.914062 24.804688 35.789062 24.804688 34.230469 C 24.804688 33.324219 24.4375 31.527344 22.597656 31.527344 C 20.878906 31.527344 20.6875 33.382812 20.6875 34.53125 C 20.6875 36.414062 21.867188 36.914062 22.625 36.914062 Z M 33.308594 35.519531 C 33.269531 35.859375 32.945312 36.859375 32.050781 37.457031 C 31.726562 37.671875 31.265625 37.945312 30.128906 37.945312 C 28.136719 37.945312 26.960938 36.441406 26.960938 34.394531 C 26.960938 32.203125 28.015625 30.457031 30.359375 30.457031 C 32.402344 30.457031 33.402344 32.082031 33.402344 34.585938 L 28.230469 34.585938 C 28.230469 36.0625 28.921875 36.914062 30.289062 36.914062 C 31.414062 36.914062 32.078125 36.046875 32.117188 35.519531 C 32.515625 35.519531 32.910156 35.519531 33.308594 35.519531 Z M 32.046875 33.636719 C 31.980469 32.542969 31.519531 31.527344 30.070312 31.527344 C 28.972656 31.527344 28.105469 32.542969 28.105469 33.636719 Z M 39.988281 37.738281 L 38.796875 37.738281 L 38.796875 33.382812 C 38.796875 32.148438 38.445312 31.527344 37.28125 31.527344 C 36.605469 31.527344 35.414062 31.960938 35.414062 33.882812 L 35.414062 37.738281 L 34.222656 37.738281 L 34.222656 30.660156 L 35.34375 30.660156 L 35.34375 31.660156 L 35.371094 31.660156 C 35.628906 31.28125 36.292969 30.457031 37.511719 30.457031 C 38.605469 30.457031 39.988281 30.902344 39.988281 32.921875 Z M 39.988281 37.738281 "/>
<path style=" stroke:none;fill-rule:evenodd;fill:rgb(46.27451%,47.058824%,47.843137%);fill-opacity:1;" d="M 13.359375 38.003906 C 10.332031 38.003906 8.84375 36.160156 8.265625 34.234375 C 8.917969 37.363281 12.460938 40.421875 23.625 41.785156 C 34.179688 43.074219 41.054688 39.84375 43.371094 38.339844 C 43.371094 38.339844 44.941406 37.648438 44 38.714844 C 44 38.714844 37.355469 44.859375 24.316406 44.921875 C 11.277344 44.984375 0.933594 38.402344 0.996094 31.757812 C 0.933594 25.113281 11.277344 18.53125 24.316406 18.59375 C 37.355469 18.65625 44 24.796875 44 24.796875 C 44.941406 25.863281 43.371094 25.175781 43.371094 25.175781 C 41.054688 23.671875 34.207031 20.707031 23.625 21.726562 C 13.222656 22.730469 9.824219 26.265625 8.695312 28.648438 C 8.261719 29.5625 8.066406 30.429688 8.015625 31.300781 C 8.296875 29.027344 9.710938 26.347656 13.359375 26.347656 C 17.492188 26.347656 18.753906 29.785156 18.753906 32.175781 C 18.753906 34.566406 17.492188 38.003906 13.359375 38.003906 Z M 55.371094 35.707031 L 60.875 35.707031 L 60.875 37.710938 L 53.058594 37.710938 L 53.058594 26.640625 L 55.371094 26.640625 Z M 46.875 31.742188 L 51.5 31.742188 L 51.5 37.710938 L 49.960938 37.710938 L 49.726562 36.324219 C 49.140625 37.003906 48.292969 38.003906 46.273438 38.003906 C 43.605469 38.003906 41.183594 36.09375 41.183594 32.207031 C 41.183594 29.183594 42.867188 26.332031 46.597656 26.347656 C 49.992188 26.347656 51.332031 28.550781 51.457031 30.078125 L 49.144531 30.078125 C 49.144531 29.644531 48.355469 28.257812 46.722656 28.257812 C 45.070312 28.257812 43.546875 29.398438 43.546875 32.238281 C 43.546875 35.257812 45.195312 36.046875 46.769531 36.046875 C 47.277344 36.046875 48.972656 35.84375 49.449219 33.609375 L 46.875 33.609375 Z M 13.359375 27.671875 C 10.953125 27.671875 9.503906 29.570312 9.503906 32.175781 C 9.503906 34.78125 10.953125 36.679688 13.359375 36.679688 C 15.765625 36.679688 17.214844 34.78125 17.214844 32.175781 C 17.214844 29.570312 15.765625 27.671875 13.359375 27.671875 Z M 19.585938 30.632812 L 20.710938 30.632812 L 20.710938 31.632812 L 20.738281 31.632812 C 21.019531 31.226562 21.5625 30.429688 22.847656 30.429688 C 24.730469 30.429688 26.070312 32.023438 26.070312 34.011719 C 26.070312 35.707031 25.097656 37.914062 22.6875 37.914062 C 21.738281 37.914062 21.117188 37.46875 20.804688 36.96875 L 20.777344 36.96875 L 20.777344 40.515625 L 19.585938 40.515625 Z M 22.597656 36.886719 C 23.894531 36.886719 24.777344 35.757812 24.777344 34.203125 C 24.777344 33.296875 24.410156 31.496094 22.570312 31.496094 C 20.851562 31.496094 20.660156 33.351562 20.660156 34.503906 C 20.660156 36.382812 21.839844 36.886719 22.597656 36.886719 Z M 33.28125 35.492188 C 33.242188 35.828125 32.914062 36.832031 32.023438 37.425781 C 31.695312 37.644531 31.238281 37.914062 30.097656 37.914062 C 28.109375 37.914062 26.929688 36.414062 26.929688 34.367188 C 26.929688 32.175781 27.988281 30.429688 30.328125 30.429688 C 32.375 30.429688 33.375 32.054688 33.375 34.558594 L 28.203125 34.558594 C 28.203125 36.035156 28.894531 36.886719 30.261719 36.886719 C 31.386719 36.886719 32.046875 36.019531 32.089844 35.492188 C 32.488281 35.492188 32.882812 35.492188 33.28125 35.492188 Z M 32.019531 33.609375 C 31.949219 32.511719 31.492188 31.496094 30.042969 31.496094 C 28.945312 31.496094 28.078125 32.511719 28.078125 33.609375 Z M 39.960938 37.710938 L 38.769531 37.710938 L 38.769531 33.351562 C 38.769531 32.121094 38.417969 31.496094 37.253906 31.496094 C 36.578125 31.496094 35.382812 31.929688 35.382812 33.851562 L 35.382812 37.710938 L 34.191406 37.710938 L 34.191406 30.632812 L 35.316406 30.632812 L 35.316406 31.632812 L 35.34375 31.632812 C 35.601562 31.253906 36.265625 30.429688 37.484375 30.429688 C 38.578125 30.429688 39.960938 30.875 39.960938 32.890625 Z M 39.960938 37.710938 "/>
<path style=" stroke:none;fill-rule:evenodd;fill:rgb(45.098039%,45.490196%,46.27451%);fill-opacity:1;" d="M 13.332031 37.976562 C 10.304688 37.976562 8.816406 36.132812 8.238281 34.207031 C 8.890625 37.332031 12.429688 40.394531 23.597656 41.757812 C 34.148438 43.046875 41.027344 39.8125 43.34375 38.308594 C 43.34375 38.308594 44.914062 37.621094 43.972656 38.6875 C 43.972656 38.6875 37.328125 44.828125 24.289062 44.890625 C 11.25 44.953125 0.90625 38.371094 0.96875 31.726562 C 0.90625 25.082031 11.25 18.5 24.289062 18.5625 C 37.328125 18.625 43.972656 24.769531 43.972656 24.769531 C 44.914062 25.835938 43.34375 25.144531 43.34375 25.144531 C 41.027344 23.640625 34.179688 20.679688 23.597656 21.699219 C 13.191406 22.703125 9.796875 26.238281 8.667969 28.617188 C 8.234375 29.535156 8.039062 30.398438 7.988281 31.269531 C 8.269531 29 9.683594 26.316406 13.332031 26.316406 C 17.464844 26.316406 18.726562 29.757812 18.726562 32.148438 C 18.726562 34.539062 17.464844 37.976562 13.332031 37.976562 Z M 55.34375 35.679688 L 60.847656 35.679688 L 60.847656 37.683594 L 53.027344 37.683594 L 53.027344 26.609375 L 55.34375 26.609375 Z M 46.847656 31.714844 L 51.472656 31.714844 L 51.472656 37.683594 L 49.933594 37.683594 L 49.699219 36.296875 C 49.113281 36.972656 48.265625 37.976562 46.246094 37.976562 C 43.578125 37.976562 41.15625 36.0625 41.15625 32.175781 C 41.15625 29.15625 42.839844 26.300781 46.570312 26.316406 C 49.964844 26.316406 51.304688 28.523438 51.429688 30.050781 L 49.113281 30.050781 C 49.113281 29.617188 48.328125 28.230469 46.695312 28.230469 C 45.042969 28.230469 43.515625 29.371094 43.515625 32.210938 C 43.515625 35.230469 45.167969 36.019531 46.742188 36.019531 C 47.25 36.019531 48.945312 35.816406 49.421875 33.582031 L 46.847656 33.582031 Z M 13.332031 27.644531 C 10.925781 27.644531 9.476562 29.539062 9.476562 32.148438 C 9.476562 34.753906 10.925781 36.648438 13.332031 36.648438 C 15.738281 36.648438 17.1875 34.753906 17.1875 32.148438 C 17.1875 29.539062 15.738281 27.644531 13.332031 27.644531 Z M 19.558594 30.601562 L 20.679688 30.601562 L 20.679688 31.605469 L 20.707031 31.605469 C 20.992188 31.199219 21.535156 30.398438 22.820312 30.398438 C 24.703125 30.398438 26.042969 31.996094 26.042969 33.984375 C 26.042969 35.675781 25.066406 37.886719 22.65625 37.886719 C 21.710938 37.886719 21.085938 37.4375 20.777344 36.9375 L 20.75 36.9375 L 20.75 40.484375 L 19.558594 40.484375 Z M 22.570312 36.859375 C 23.867188 36.859375 24.75 35.730469 24.75 34.175781 C 24.75 33.269531 24.382812 31.46875 22.542969 31.46875 C 20.824219 31.46875 20.632812 33.324219 20.632812 34.472656 C 20.632812 36.355469 21.808594 36.859375 22.570312 36.859375 Z M 33.253906 35.460938 C 33.210938 35.800781 32.886719 36.804688 31.992188 37.398438 C 31.667969 37.617188 31.207031 37.886719 30.070312 37.886719 C 28.082031 37.886719 26.902344 36.382812 26.902344 34.339844 C 26.902344 32.144531 27.960938 30.398438 30.300781 30.398438 C 32.347656 30.398438 33.347656 32.023438 33.347656 34.527344 L 28.175781 34.527344 C 28.175781 36.003906 28.867188 36.859375 30.234375 36.859375 C 31.355469 36.859375 32.019531 35.992188 32.0625 35.464844 Z M 31.992188 33.582031 C 31.921875 32.484375 31.460938 31.46875 30.015625 31.46875 C 28.917969 31.46875 28.050781 32.484375 28.050781 33.582031 C 29.363281 33.582031 30.679688 33.582031 31.992188 33.582031 Z M 39.933594 37.683594 L 38.742188 37.683594 L 38.742188 33.324219 C 38.742188 32.089844 38.390625 31.46875 37.226562 31.46875 C 36.546875 31.46875 35.355469 31.902344 35.355469 33.824219 L 35.355469 37.683594 L 34.164062 37.683594 L 34.164062 30.601562 L 35.289062 30.601562 L 35.289062 31.605469 L 35.316406 31.605469 C 35.574219 31.226562 36.238281 30.398438 37.453125 30.398438 C 38.550781 30.398438 39.933594 30.847656 39.933594 32.863281 Z M 39.933594 37.683594 "/>
<path style=" stroke:none;fill-rule:evenodd;fill:rgb(42.745098%,43.137255%,43.921569%);fill-opacity:1;" d="M 13.300781 37.949219 C 10.277344 37.949219 8.789062 36.105469 8.207031 34.179688 C 8.863281 37.304688 12.402344 40.363281 23.570312 41.730469 C 34.121094 43.019531 40.996094 39.785156 43.316406 38.28125 C 43.316406 38.28125 44.882812 37.59375 43.945312 38.65625 C 43.945312 38.65625 37.300781 44.800781 24.261719 44.863281 C 11.222656 44.925781 0.878906 38.34375 0.941406 31.699219 C 0.878906 25.054688 11.222656 18.472656 24.261719 18.535156 C 37.300781 18.597656 43.945312 24.742188 43.945312 24.742188 C 44.882812 25.808594 43.316406 25.117188 43.316406 25.117188 C 40.996094 23.613281 34.152344 20.648438 23.570312 21.667969 C 13.164062 22.671875 9.769531 26.207031 8.640625 28.589844 C 8.207031 29.507812 8.007812 30.371094 7.960938 31.242188 C 8.242188 28.96875 9.65625 26.289062 13.300781 26.289062 C 17.433594 26.289062 18.699219 29.726562 18.699219 32.117188 C 18.699219 34.507812 17.433594 37.949219 13.300781 37.949219 Z M 55.3125 35.648438 L 60.820312 35.648438 L 60.820312 37.65625 L 53 37.65625 L 53 26.582031 L 55.3125 26.582031 Z M 46.820312 31.6875 L 51.445312 31.6875 L 51.445312 37.65625 L 49.902344 37.65625 L 49.671875 36.265625 C 49.085938 36.945312 48.238281 37.945312 46.21875 37.945312 C 43.550781 37.945312 41.128906 36.035156 41.128906 32.148438 C 41.128906 29.125 42.8125 26.273438 46.542969 26.289062 C 49.933594 26.289062 51.277344 28.496094 51.398438 30.019531 L 49.085938 30.019531 C 49.085938 29.589844 48.300781 28.203125 46.664062 28.203125 C 45.015625 28.203125 43.488281 29.34375 43.488281 32.179688 C 43.488281 35.203125 45.140625 35.988281 46.710938 35.988281 C 47.222656 35.988281 48.917969 35.789062 49.394531 33.554688 L 46.820312 33.554688 Z M 13.300781 27.617188 C 10.898438 27.617188 9.449219 29.511719 9.449219 32.117188 C 9.449219 34.726562 10.898438 36.621094 13.300781 36.621094 C 15.707031 36.621094 17.15625 34.722656 17.15625 32.117188 C 17.15625 29.511719 15.707031 27.617188 13.300781 27.617188 Z M 19.53125 30.574219 L 20.652344 30.574219 L 20.652344 31.574219 L 20.679688 31.574219 C 20.964844 31.167969 21.507812 30.371094 22.792969 30.371094 C 24.675781 30.371094 26.015625 31.964844 26.015625 33.957031 C 26.015625 35.648438 25.039062 37.855469 22.628906 37.855469 C 21.683594 37.855469 21.058594 37.410156 20.75 36.910156 L 20.722656 36.910156 L 20.722656 40.457031 L 19.53125 40.457031 Z M 22.539062 36.828125 C 23.839844 36.828125 24.722656 35.703125 24.722656 34.144531 C 24.722656 33.238281 24.355469 31.441406 22.511719 31.441406 C 20.792969 31.441406 20.605469 33.296875 20.605469 34.445312 C 20.605469 36.328125 21.78125 36.828125 22.539062 36.828125 Z M 33.226562 35.433594 C 33.183594 35.773438 32.859375 36.773438 31.964844 37.371094 C 31.640625 37.585938 31.179688 37.859375 30.042969 37.859375 C 28.054688 37.859375 26.875 36.355469 26.875 34.3125 C 26.875 32.117188 27.933594 30.371094 30.273438 30.371094 C 32.320312 30.371094 33.320312 31.996094 33.320312 34.5 L 28.148438 34.5 C 28.148438 35.976562 28.839844 36.828125 30.207031 36.828125 C 31.328125 36.828125 31.992188 35.960938 32.035156 35.433594 Z M 31.960938 33.550781 C 31.894531 32.457031 31.433594 31.441406 29.984375 31.441406 C 28.890625 31.441406 28.023438 32.457031 28.023438 33.550781 Z M 39.90625 37.65625 L 38.714844 37.65625 L 38.714844 33.296875 C 38.714844 32.0625 38.359375 31.441406 37.195312 31.441406 C 36.519531 31.441406 35.328125 31.875 35.328125 33.796875 L 35.328125 37.65625 L 34.136719 37.65625 L 34.136719 30.574219 L 35.261719 30.574219 L 35.261719 31.574219 L 35.289062 31.574219 C 35.546875 31.195312 36.210938 30.371094 37.425781 30.371094 C 38.523438 30.371094 39.90625 30.816406 39.90625 32.835938 Z M 39.90625 37.65625 "/>
<path style=" stroke:none;fill-rule:evenodd;fill:rgb(32.941176%,52.941176%,69.803922%);fill-opacity:1;" d="M 13.300781 37.949219 C 10.277344 37.949219 8.789062 36.105469 8.207031 34.179688 C 8.863281 37.304688 12.402344 40.363281 23.570312 41.730469 C 34.121094 43.019531 40.996094 39.785156 43.316406 38.28125 C 43.316406 38.28125 44.882812 37.59375 43.945312 38.65625 C 43.945312 38.65625 37.300781 44.800781 24.261719 44.863281 C 11.222656 44.925781 0.878906 38.34375 0.941406 31.699219 C 0.878906 25.054688 11.222656 18.472656 24.261719 18.535156 C 37.300781 18.597656 43.945312 24.742188 43.945312 24.742188 C 44.882812 25.808594 43.316406 25.117188 43.316406 25.117188 C 40.996094 23.613281 34.152344 20.648438 23.570312 21.667969 C 13.164062 22.671875 9.769531 26.207031 8.640625 28.589844 C 8.207031 29.507812 8.007812 30.371094 7.960938 31.242188 C 8.242188 28.96875 9.65625 26.289062 13.300781 26.289062 C 17.433594 26.289062 18.699219 29.726562 18.699219 32.117188 C 18.699219 34.507812 17.433594 37.949219 13.300781 37.949219 Z M 55.3125 35.648438 L 60.820312 35.648438 L 60.820312 37.65625 L 53 37.65625 L 53 26.582031 L 55.3125 26.582031 Z M 46.820312 31.6875 L 51.445312 31.6875 L 51.445312 37.65625 L 49.902344 37.65625 L 49.671875 36.265625 C 49.085938 36.945312 48.238281 37.945312 46.21875 37.945312 C 43.550781 37.945312 41.128906 36.035156 41.128906 32.148438 C 41.128906 29.125 42.8125 26.273438 46.542969 26.289062 C 49.933594 26.289062 51.277344 28.496094 51.398438 30.019531 L 49.085938 30.019531 C 49.085938 29.589844 48.300781 28.203125 46.664062 28.203125 C 45.015625 28.203125 43.488281 29.34375 43.488281 32.179688 C 43.488281 35.203125 45.140625 35.988281 46.710938 35.988281 C 47.222656 35.988281 48.917969 35.789062 49.394531 33.554688 L 46.820312 33.554688 Z M 13.300781 27.617188 C 10.898438 27.617188 9.449219 29.511719 9.449219 32.117188 C 9.449219 34.726562 10.898438 36.621094 13.300781 36.621094 C 15.707031 36.621094 17.15625 34.722656 17.15625 32.117188 C 17.15625 29.511719 15.707031 27.617188 13.300781 27.617188 Z M 19.53125 30.574219 L 20.652344 30.574219 L 20.652344 31.574219 L 20.679688 31.574219 C 20.964844 31.167969 21.507812 30.371094 22.792969 30.371094 C 24.675781 30.371094 26.015625 31.964844 26.015625 33.957031 C 26.015625 35.648438 25.039062 37.855469 22.628906 37.855469 C 21.683594 37.855469 21.058594 37.410156 20.75 36.910156 L 20.722656 36.910156 L 20.722656 40.457031 L 19.53125 40.457031 Z M 22.539062 36.828125 C 23.839844 36.828125 24.722656 35.703125 24.722656 34.144531 C 24.722656 33.238281 24.355469 31.441406 22.511719 31.441406 C 20.792969 31.441406 20.605469 33.296875 20.605469 34.445312 C 20.605469 36.328125 21.78125 36.828125 22.539062 36.828125 Z M 33.226562 35.433594 C 33.183594 35.773438 32.859375 36.773438 31.964844 37.371094 C 31.640625 37.585938 31.179688 37.859375 30.042969 37.859375 C 28.054688 37.859375 26.875 36.355469 26.875 34.3125 C 26.875 32.117188 27.933594 30.371094 30.273438 30.371094 C 32.320312 30.371094 33.320312 31.996094 33.320312 34.5 L 28.148438 34.5 C 28.148438 35.976562 28.839844 36.828125 30.207031 36.828125 C 31.328125 36.828125 31.992188 35.960938 32.035156 35.433594 Z M 31.960938 33.550781 C 31.894531 32.457031 31.433594 31.441406 29.984375 31.441406 C 28.890625 31.441406 28.023438 32.457031 28.023438 33.550781 Z M 39.90625 37.65625 L 38.714844 37.65625 L 38.714844 33.296875 C 38.714844 32.0625 38.359375 31.441406 37.195312 31.441406 C 36.519531 31.441406 35.328125 31.875 35.328125 33.796875 L 35.328125 37.65625 L 34.136719 37.65625 L 34.136719 30.574219 L 35.261719 30.574219 L 35.261719 31.574219 L 35.289062 31.574219 C 35.546875 31.195312 36.210938 30.371094 37.425781 30.371094 C 38.523438 30.371094 39.90625 30.816406 39.90625 32.835938 Z M 39.90625 37.65625 "/>
</g>
</svg>
