<?xml version="1.0" encoding="UTF-8"?>
<svg xmlns="http://www.w3.org/2000/svg" xmlns:xlink="http://www.w3.org/1999/xlink" width="64px" height="64px" viewBox="0 0 64 33" version="1.1">
<g id="surface1">
<path style=" stroke:none;fill-rule:evenodd;fill:rgb(53.72549%,57.647059%,74.509804%);fill-opacity:1;" d="M 64 16.402344 C 64 7.34375 49.671875 0 32 0 C 14.328125 0 0 7.34375 0 16.402344 C 0 25.464844 14.328125 32.808594 32 32.808594 C 49.671875 32.808594 64 25.464844 64 16.402344 Z M 64 16.402344 "/>
<path style=" stroke:none;fill-rule:evenodd;fill:rgb(13.72549%,14.509804%,19.215686%);fill-opacity:1;" d="M 8.984375 26.117188 L 12.492188 8.632812 L 20.601562 8.632812 C 24.109375 8.847656 25.863281 10.574219 25.863281 13.597656 C 25.863281 18.777344 21.699219 21.800781 17.972656 21.582031 L 14.027344 21.582031 L 13.152344 26.117188 Z M 14.902344 18.347656 L 16 11.871094 L 18.847656 11.871094 C 20.382812 11.871094 21.480469 12.519531 21.480469 13.8125 C 21.261719 17.484375 19.507812 18.128906 17.535156 18.347656 Z M 25.046875 21.582031 L 28.554688 4.101562 L 32.71875 4.101562 L 31.84375 8.632812 L 35.789062 8.632812 C 39.292969 8.847656 40.609375 10.574219 40.171875 12.734375 L 38.636719 21.582031 L 34.253906 21.582031 L 35.789062 13.597656 C 36.007812 12.519531 36.007812 11.871094 34.472656 11.871094 L 31.183594 11.871094 L 29.210938 21.582031 Z M 38.355469 26.117188 L 41.863281 8.632812 L 49.972656 8.632812 C 53.480469 8.847656 55.234375 10.574219 55.234375 13.597656 C 55.234375 18.777344 51.070312 21.800781 47.34375 21.582031 L 43.398438 21.582031 L 42.519531 26.117188 Z M 44.273438 18.347656 L 45.371094 11.871094 L 48.21875 11.871094 C 49.753906 11.871094 50.847656 12.519531 50.847656 13.8125 C 50.628906 17.484375 48.875 18.128906 46.902344 18.347656 Z M 44.273438 18.347656 "/>
</g>
</svg>
