<?xml version="1.0" encoding="UTF-8"?>
<svg xmlns="http://www.w3.org/2000/svg" xmlns:xlink="http://www.w3.org/1999/xlink" width="64px" height="64px" viewBox="0 0 64 66" version="1.1">
<g id="surface1">
<path style=" stroke:none;fill-rule:nonzero;fill:rgb(0%,0%,0%);fill-opacity:1;" d="M 63.753906 39.515625 C 63.367188 38.355469 62.363281 37.546875 61.0625 37.351562 C 60.449219 37.261719 59.746094 37.300781 58.917969 37.46875 C 57.46875 37.769531 56.394531 37.882812 55.609375 37.90625 C 58.570312 32.910156 60.976562 27.210938 62.363281 21.847656 C 64.601562 13.179688 63.40625 9.226562 62.007812 7.441406 C 58.304688 2.710938 52.902344 0.171875 46.386719 0.09375 C 42.914062 0.0507812 39.859375 0.738281 38.269531 1.230469 C 36.789062 0.96875 35.195312 0.824219 33.523438 0.796875 C 30.386719 0.746094 27.617188 1.429688 25.253906 2.832031 C 23.941406 2.390625 21.839844 1.765625 19.410156 1.367188 C 13.699219 0.429688 9.097656 1.160156 5.730469 3.539062 C 1.65625 6.417969 -0.234375 11.417969 0.117188 18.40625 C 0.226562 20.625 1.46875 27.375 3.421875 33.773438 C 4.542969 37.453125 5.742188 40.507812 6.980469 42.855469 C 8.738281 46.183594 10.617188 48.144531 12.726562 48.847656 C 13.910156 49.242188 16.058594 49.519531 18.320312 47.636719 C 18.605469 47.984375 18.988281 48.328125 19.496094 48.648438 C 20.140625 49.054688 20.925781 49.386719 21.714844 49.582031 C 24.550781 50.292969 27.203125 50.113281 29.472656 49.121094 C 29.484375 49.523438 29.496094 49.910156 29.503906 50.242188 C 29.519531 50.78125 29.535156 51.308594 29.554688 51.804688 C 29.6875 55.148438 29.914062 57.746094 30.589844 59.566406 C 30.628906 59.664062 30.675781 59.816406 30.730469 59.980469 C 31.066406 61.007812 31.628906 62.734375 33.058594 64.082031 C 34.539062 65.480469 36.332031 65.910156 37.972656 65.910156 C 38.796875 65.910156 39.582031 65.800781 40.269531 65.652344 C 42.722656 65.128906 45.511719 64.324219 47.53125 61.453125 C 49.4375 58.738281 50.363281 54.652344 50.53125 48.207031 C 50.554688 48.027344 50.574219 47.851562 50.59375 47.6875 L 50.632812 47.347656 L 51.082031 47.386719 L 51.195312 47.394531 C 53.699219 47.507812 56.753906 46.976562 58.632812 46.105469 C 60.117188 45.417969 64.871094 42.90625 63.753906 39.515625 "/>
<path style=" stroke:none;fill-rule:nonzero;fill:rgb(20%,40.392157%,56.862745%);fill-opacity:1;" d="M 59.476562 40.175781 C 52.042969 41.710938 51.53125 39.191406 51.53125 39.191406 C 59.378906 27.546875 62.660156 12.761719 59.832031 9.144531 C 52.105469 -0.726562 38.730469 3.941406 38.507812 4.0625 L 38.433594 4.074219 C 36.964844 3.769531 35.324219 3.589844 33.476562 3.558594 C 30.109375 3.503906 27.558594 4.441406 25.621094 5.910156 C 25.621094 5.910156 1.765625 -3.917969 2.875 18.269531 C 3.109375 22.988281 9.640625 53.984375 17.429688 44.621094 C 20.277344 41.199219 23.027344 38.304688 23.027344 38.304688 C 24.394531 39.210938 26.027344 39.671875 27.742188 39.507812 L 27.875 39.394531 C 27.835938 39.820312 27.851562 40.234375 27.929688 40.726562 C 25.921875 42.96875 26.511719 43.363281 22.5 44.1875 C 18.441406 45.023438 20.828125 46.511719 22.382812 46.902344 C 24.269531 47.375 28.636719 48.042969 31.585938 43.914062 L 31.46875 44.386719 C 32.253906 45.015625 32.808594 48.480469 32.714844 51.621094 C 32.621094 54.765625 32.5625 56.921875 33.179688 58.605469 C 33.800781 60.289062 34.417969 64.082031 39.691406 62.953125 C 44.097656 62.007812 46.378906 59.5625 46.695312 55.480469 C 46.921875 52.578125 47.433594 53.007812 47.464844 50.414062 L 47.875 49.1875 C 48.34375 45.253906 47.949219 43.984375 50.664062 44.574219 L 51.324219 44.632812 C 53.320312 44.722656 55.933594 44.3125 57.46875 43.597656 C 60.773438 42.0625 62.734375 39.503906 59.476562 40.175781 "/>
<path style=" stroke:none;fill-rule:nonzero;fill:rgb(100%,100%,100%);fill-opacity:1;" d="M 27.019531 20.378906 C 26.347656 20.285156 25.742188 20.371094 25.433594 20.605469 C 25.261719 20.734375 25.210938 20.886719 25.195312 20.992188 C 25.15625 21.265625 25.351562 21.574219 25.46875 21.730469 C 25.804688 22.175781 26.296875 22.484375 26.785156 22.550781 C 26.855469 22.558594 26.925781 22.566406 26.992188 22.566406 C 27.804688 22.566406 28.542969 21.933594 28.609375 21.46875 C 28.6875 20.882812 27.839844 20.492188 27.019531 20.378906 M 49.214844 20.398438 C 49.152344 19.941406 48.335938 19.808594 47.5625 19.917969 C 46.792969 20.023438 46.042969 20.371094 46.105469 20.832031 C 46.15625 21.1875 46.800781 21.796875 47.5625 21.796875 C 47.625 21.796875 47.691406 21.792969 47.757812 21.785156 C 48.265625 21.714844 48.640625 21.390625 48.816406 21.203125 C 49.085938 20.917969 49.242188 20.601562 49.214844 20.398438 "/>
<path style=" stroke:none;fill-rule:nonzero;fill:rgb(100%,100%,100%);fill-opacity:1;" d="M 61.949219 40.003906 C 61.667969 39.144531 60.753906 38.871094 59.238281 39.183594 C 54.738281 40.109375 53.125 39.46875 52.597656 39.078125 C 56.09375 33.75 58.972656 27.304688 60.527344 21.296875 C 61.261719 18.449219 61.667969 15.804688 61.699219 13.648438 C 61.738281 11.285156 61.335938 9.546875 60.503906 8.484375 C 57.152344 4.203125 52.234375 1.90625 46.28125 1.84375 C 42.191406 1.796875 38.734375 2.84375 38.0625 3.140625 C 36.652344 2.789062 35.113281 2.570312 33.4375 2.542969 C 30.367188 2.496094 27.710938 3.230469 25.511719 4.730469 C 24.554688 4.375 22.089844 3.527344 19.070312 3.039062 C 13.851562 2.199219 9.707031 2.835938 6.746094 4.933594 C 3.214844 7.433594 1.585938 11.90625 1.902344 18.222656 C 2.007812 20.347656 3.21875 26.882812 5.128906 33.144531 C 7.644531 41.386719 10.378906 46.050781 13.257812 47.007812 C 13.59375 47.121094 13.980469 47.199219 14.410156 47.199219 C 15.460938 47.199219 16.746094 46.726562 18.085938 45.117188 C 19.71875 43.160156 21.40625 41.25 23.152344 39.386719 C 24.28125 39.992188 25.523438 40.332031 26.792969 40.367188 C 26.796875 40.398438 26.800781 40.433594 26.804688 40.464844 C 26.585938 40.726562 26.371094 40.992188 26.160156 41.261719 C 25.28125 42.378906 25.097656 42.609375 22.261719 43.195312 C 21.457031 43.359375 19.316406 43.800781 19.285156 45.300781 C 19.25 46.941406 21.816406 47.632812 22.109375 47.703125 C 23.125 47.957031 24.105469 48.085938 25.042969 48.085938 C 27.320312 48.085938 29.320312 47.335938 30.921875 45.890625 C 30.871094 51.734375 31.117188 57.496094 31.820312 59.25 C 32.394531 60.6875 33.796875 64.199219 38.234375 64.199219 C 38.886719 64.199219 39.601562 64.125 40.390625 63.953125 C 45.019531 62.960938 47.03125 60.914062 47.808594 56.40625 C 48.226562 53.992188 48.941406 48.234375 49.277344 45.148438 C 49.984375 45.371094 50.898438 45.46875 51.882812 45.46875 C 53.941406 45.46875 56.316406 45.03125 57.804688 44.34375 C 59.480469 43.566406 62.496094 41.660156 61.949219 40.003906 Z M 50.925781 19.132812 C 50.910156 20.046875 50.785156 20.875 50.648438 21.738281 C 50.507812 22.667969 50.359375 23.628906 50.320312 24.792969 C 50.285156 25.929688 50.425781 27.109375 50.5625 28.25 C 50.839844 30.554688 51.125 32.925781 50.023438 35.269531 C 49.84375 34.945312 49.679688 34.609375 49.539062 34.265625 C 49.402344 33.933594 49.101562 33.402344 48.691406 32.664062 C 47.09375 29.796875 43.347656 23.078125 45.265625 20.335938 C 45.835938 19.523438 47.285156 18.683594 50.925781 19.132812 Z M 46.511719 3.6875 C 51.847656 3.808594 56.066406 5.800781 59.050781 9.617188 C 61.34375 12.546875 58.820312 25.867188 51.515625 37.359375 C 51.445312 37.265625 51.371094 37.171875 51.296875 37.078125 L 51.203125 36.964844 C 53.089844 33.847656 52.722656 30.761719 52.394531 28.03125 C 52.257812 26.90625 52.128906 25.847656 52.164062 24.851562 C 52.195312 23.796875 52.335938 22.894531 52.472656 22.019531 C 52.636719 20.941406 52.804688 19.824219 52.757812 18.507812 C 52.792969 18.371094 52.808594 18.207031 52.789062 18.015625 C 52.671875 16.753906 51.230469 12.980469 48.296875 9.5625 C 46.691406 7.695312 44.347656 5.601562 41.152344 4.191406 C 42.527344 3.90625 44.40625 3.640625 46.511719 3.6875 Z M 16.667969 43.941406 C 15.195312 45.714844 14.175781 45.375 13.839844 45.261719 C 11.65625 44.535156 9.125 39.921875 6.890625 32.605469 C 4.960938 26.277344 3.832031 19.914062 3.742188 18.128906 C 3.460938 12.484375 4.828125 8.550781 7.808594 6.4375 C 12.660156 3 20.636719 5.058594 23.839844 6.101562 C 23.792969 6.148438 23.746094 6.191406 23.699219 6.234375 C 18.441406 11.546875 18.566406 20.621094 18.578125 21.175781 C 18.578125 21.386719 18.597656 21.691406 18.621094 22.109375 C 18.710938 23.632812 18.878906 26.472656 18.429688 29.691406 C 18.011719 32.679688 18.933594 35.605469 20.957031 37.71875 C 21.164062 37.933594 21.382812 38.140625 21.613281 38.335938 C 20.710938 39.300781 18.753906 41.433594 16.667969 43.941406 Z M 22.289062 36.441406 C 20.65625 34.742188 19.914062 32.371094 20.253906 29.945312 C 20.730469 26.546875 20.554688 23.589844 20.460938 22 C 20.445312 21.777344 20.433594 21.582031 20.429688 21.429688 C 21.195312 20.746094 24.757812 18.839844 27.296875 19.421875 C 28.453125 19.6875 29.160156 20.476562 29.453125 21.832031 C 30.972656 28.855469 29.65625 31.785156 28.597656 34.136719 C 28.378906 34.621094 28.171875 35.082031 27.996094 35.554688 L 27.859375 35.921875 C 27.515625 36.847656 27.191406 37.710938 26.992188 38.527344 C 25.257812 38.523438 23.570312 37.78125 22.289062 36.441406 Z M 22.554688 45.917969 C 22.046875 45.789062 21.59375 45.570312 21.324219 45.386719 C 21.546875 45.285156 21.945312 45.140625 22.632812 45 C 25.96875 44.3125 26.484375 43.828125 27.609375 42.398438 C 27.867188 42.074219 28.160156 41.703125 28.5625 41.25 C 29.167969 40.574219 29.441406 40.6875 29.941406 40.894531 C 30.347656 41.0625 30.742188 41.570312 30.902344 42.128906 C 30.976562 42.394531 31.0625 42.894531 30.785156 43.285156 C 28.4375 46.574219 25.011719 46.53125 22.554688 45.917969 Z M 40.003906 62.152344 C 35.925781 63.027344 34.480469 60.945312 33.527344 58.566406 C 32.914062 57.03125 32.613281 50.105469 32.828125 42.457031 C 32.828125 42.355469 32.816406 42.257812 32.789062 42.164062 C 32.761719 41.980469 32.722656 41.800781 32.671875 41.625 C 32.355469 40.511719 31.578125 39.578125 30.648438 39.195312 C 30.277344 39.039062 29.597656 38.757812 28.78125 38.96875 C 28.957031 38.25 29.257812 37.441406 29.585938 36.566406 L 29.722656 36.195312 C 29.878906 35.78125 30.070312 35.351562 30.277344 34.894531 C 31.382812 32.433594 32.902344 29.058594 31.253906 21.441406 C 30.636719 18.589844 28.578125 17.195312 25.453125 17.519531 C 23.582031 17.714844 21.867188 18.46875 21.015625 18.902344 C 20.828125 18.996094 20.660156 19.085938 20.503906 19.171875 C 20.742188 16.296875 21.644531 10.925781 25.015625 7.527344 C 27.136719 5.386719 29.964844 4.328125 33.40625 4.386719 C 40.191406 4.496094 44.542969 7.980469 47 10.882812 C 49.113281 13.382812 50.261719 15.898438 50.71875 17.257812 C 47.277344 16.90625 44.941406 17.585938 43.753906 19.28125 C 41.175781 22.96875 45.164062 30.125 47.082031 33.5625 C 47.433594 34.191406 47.738281 34.738281 47.835938 34.96875 C 48.457031 36.480469 49.265625 37.492188 49.855469 38.230469 C 50.039062 38.457031 50.214844 38.675781 50.347656 38.867188 C 49.304688 39.167969 47.433594 39.859375 47.605469 43.328125 C 47.46875 45.066406 46.492188 53.214844 45.992188 56.089844 C 45.335938 59.894531 43.9375 61.308594 40.003906 62.152344 Z M 57.03125 42.671875 C 55.964844 43.164062 54.183594 43.535156 52.488281 43.617188 C 50.621094 43.703125 49.667969 43.40625 49.445312 43.222656 C 49.339844 41.0625 50.144531 40.835938 50.996094 40.597656 C 51.128906 40.558594 51.257812 40.523438 51.382812 40.480469 C 51.464844 40.542969 51.546875 40.605469 51.644531 40.667969 C 53.144531 41.660156 55.828125 41.765625 59.609375 40.988281 L 59.652344 40.976562 C 59.140625 41.457031 58.269531 42.097656 57.03125 42.671875 Z M 57.03125 42.671875 "/>
</g>
</svg>
