<?xml version="1.0" encoding="UTF-8"?>
<svg xmlns="http://www.w3.org/2000/svg" xmlns:xlink="http://www.w3.org/1999/xlink" width="64px" height="64px" viewBox="0 0 64 64" version="1.1">
<g id="surface1">
<path style=" stroke:none;fill-rule:nonzero;fill:rgb(93.72549%,80%,63.921569%);fill-opacity:1;" d="M 53.699219 25.449219 C 53.601562 23.25 53.898438 21.300781 52.898438 19.648438 C 50.5 15.550781 44.5 13.148438 32.5 13.148438 L 32.5 13.5 L 32.25 13.5 L 32.5 13.5 L 32.5 13.148438 C 20.5 13.148438 14.199219 15.550781 11.800781 19.699219 C 10.851562 21.398438 10.949219 23.300781 10.800781 25.5 C 10.699219 27.25 9.898438 29.101562 10.25 31.101562 C 10.648438 33.699219 10.800781 36.300781 11.199219 38.699219 C 11.5 40.648438 14.199219 42.300781 14.449219 44.148438 C 15.148438 49.25 20.449219 51.601562 32.449219 51.601562 L 32.449219 52 L 32.148438 52 L 32.5 52 L 32.5 51.601562 C 44.5 51.601562 49.601562 49.25 50.25 44.148438 C 50.5 42.25 53 40.648438 53.300781 38.699219 C 53.699219 36.300781 53.851562 33.699219 54.25 31.101562 C 54.601562 29.101562 53.800781 27.199219 53.699219 25.449219 Z M 53.699219 25.449219 "/>
<path style=" stroke:none;fill-rule:nonzero;fill:rgb(80%,67.45098%,55.294118%);fill-opacity:1;" d="M 32.300781 27.25 C 34.449219 27.300781 35.949219 28.648438 37.351562 29.898438 C 39 31.351562 41.800781 32.351562 42.949219 33.601562 C 44.101562 34.851562 45.601562 36.101562 46.148438 38.050781 C 46.699219 40 46.851562 42.5 46.851562 43.148438 C 46.851562 43.800781 47.199219 43.648438 48.199219 43.148438 C 50.550781 42 53.148438 38.898438 53.148438 38.898438 C 52.851562 40.851562 50.300781 42.601562 50.050781 44.449219 C 49.449219 49.550781 44.5 52 32.25 52 L 32.199219 52 L 32.5 52 "/>
<path style=" stroke:none;fill-rule:nonzero;fill:rgb(80%,67.45098%,55.294118%);fill-opacity:1;" d="M 40.199219 23.351562 C 40.648438 24.898438 42.25 30.148438 39.148438 28.398438 C 39.148438 28.398438 40.449219 29.148438 41.25 32 C 42.101562 34.851562 44.148438 35.199219 44.148438 35.199219 C 44.148438 35.199219 47.5 35.851562 50 33.699219 C 52.101562 31.898438 52.449219 28.699219 51.550781 26.25 C 50.648438 23.851562 49.050781 23.101562 46.699219 22.601562 C 44.351562 22.050781 39.648438 21.601562 40.199219 23.351562 Z M 40.199219 23.351562 "/>
<path style=" stroke:none;fill-rule:nonzero;fill:rgb(0%,0%,0%);fill-opacity:1;" d="M 50.550781 29.050781 C 50.550781 31.480469 48.578125 33.449219 46.148438 33.449219 C 43.71875 33.449219 41.75 31.480469 41.75 29.050781 C 41.75 26.621094 43.71875 24.648438 46.148438 24.648438 C 48.578125 24.648438 50.550781 26.621094 50.550781 29.050781 Z M 50.550781 29.050781 "/>
<path style=" stroke:none;fill-rule:nonzero;fill:rgb(100%,100%,100%);fill-opacity:1;" d="M 46.148438 27.101562 C 46.148438 27.734375 45.636719 28.25 45 28.25 C 44.363281 28.25 43.851562 27.734375 43.851562 27.101562 C 43.851562 26.464844 44.363281 25.949219 45 25.949219 C 45.636719 25.949219 46.148438 26.464844 46.148438 27.101562 Z M 46.148438 27.101562 "/>
<path style=" stroke:none;fill-rule:nonzero;fill:rgb(93.72549%,80%,63.921569%);fill-opacity:1;" d="M 39.449219 28.851562 C 39.449219 28.851562 43.398438 31.550781 45.550781 34.199219 C 47.699219 36.851562 47.648438 37.351562 47.648438 37.351562 L 46.101562 38.050781 C 46.101562 38.050781 43.898438 33.898438 41.199219 32.351562 C 38.449219 30.800781 38.148438 29.5 38.148438 29.5 Z M 39.449219 28.851562 "/>
<path style=" stroke:none;fill-rule:nonzero;fill:rgb(80%,67.45098%,55.294118%);fill-opacity:1;" d="M 32.449219 27.25 C 30.300781 27.300781 28.699219 28.648438 27.25 29.898438 C 25.601562 31.351562 22.699219 32.351562 21.550781 33.601562 C 20.398438 34.851562 18.851562 36.101562 18.300781 38.050781 C 17.75 40 17.550781 42.5 17.550781 43.148438 C 17.550781 43.800781 17.648438 43.851562 16.199219 43.148438 C 13.851562 42.050781 11.25 38.898438 11.25 38.898438 C 11.550781 40.851562 14.101562 42.601562 14.351562 44.449219 C 15.050781 49.550781 20 52 32.25 52 L 32.5 52 "/>
<path style=" stroke:none;fill-rule:nonzero;fill:rgb(33.72549%,20%,16.862745%);fill-opacity:1;" d="M 44.050781 35.699219 C 41.648438 32.75 37.800781 30 32.449219 30 L 32.398438 30 C 27.050781 30 23.199219 32.75 20.800781 35.699219 C 18.300781 38.75 18.5 39.949219 18.5 42.851562 C 18.5 53.351562 22.199219 50.351562 24.648438 51.648438 C 27.148438 52.898438 29.75 52.5 32.398438 52.5 L 32.449219 52.5 C 35.148438 52.5 37.699219 52.851562 40.199219 51.601562 C 42.648438 50.351562 46.351562 53.449219 46.351562 42.949219 C 46.398438 40.050781 46.550781 38.75 44.050781 35.699219 Z M 44.050781 35.699219 "/>
<path style=" stroke:none;fill-rule:nonzero;fill:rgb(26.666667%,15.686275%,13.72549%);fill-opacity:1;" d="M 32.199219 32.601562 C 32.199219 32.601562 31.851562 37.449219 31.148438 38.398438 L 32.449219 38.101562 Z M 32.199219 32.601562 "/>
<path style=" stroke:none;fill-rule:nonzero;fill:rgb(26.666667%,15.686275%,13.72549%);fill-opacity:1;" d="M 32.550781 32.601562 C 32.550781 32.601562 32.898438 37.449219 33.601562 38.398438 L 32.300781 38.101562 Z M 32.550781 32.601562 "/>
<path style=" stroke:none;fill-rule:nonzero;fill:rgb(33.72549%,20%,16.862745%);fill-opacity:1;" d="M 28.351562 31.449219 C 27.851562 30.300781 29.648438 28.449219 32.5 28.398438 C 35.351562 28.398438 37.148438 30.25 36.648438 31.449219 C 36.148438 32.648438 34.351562 33 32.5 33.050781 C 30.699219 33 28.851562 32.648438 28.351562 31.449219 Z M 28.351562 31.449219 "/>
<path style=" stroke:none;fill-rule:nonzero;fill:rgb(0%,0%,0%);fill-opacity:1;" d="M 32.5 32.601562 C 32.5 32.398438 34.199219 32.351562 35.101562 31.75 C 35.101562 31.75 33.25 32.351562 32.851562 32.101562 C 32.449219 31.898438 32.351562 31.300781 32.351562 31.300781 C 32.351562 31.300781 32.199219 31.898438 31.898438 32.101562 C 31.550781 32.300781 29.449219 31.75 29.449219 31.75 C 29.449219 31.75 32.25 32.449219 32.25 32.601562 C 32.25 32.75 32.199219 33.25 32.199219 33.601562 C 32.199219 34.851562 32.199219 37.949219 32.398438 38.199219 C 32.699219 38.648438 32.601562 34.851562 32.601562 33.601562 C 32.550781 33.199219 32.550781 32.800781 32.5 32.601562 Z M 32.5 32.601562 "/>
<path style=" stroke:none;fill-rule:nonzero;fill:rgb(49.803922%,29.019608%,25.490196%);fill-opacity:1;" d="M 32.601562 39.300781 C 33.449219 39.300781 34.949219 39.898438 36.300781 40.851562 C 35 39.398438 33.449219 38.398438 32.601562 38.398438 C 31.699219 38.398438 29.800781 39.5 28.449219 41.101562 C 29.851562 40 31.648438 39.300781 32.601562 39.300781 Z M 32.601562 39.300781 "/>
<path style=" stroke:none;fill-rule:nonzero;fill:rgb(26.666667%,15.686275%,13.72549%);fill-opacity:1;" d="M 32.25 48.148438 C 30.351562 48.148438 28.5 47.550781 26.800781 47.101562 C 26.449219 47 26.101562 47.25 25.75 47.148438 C 22.601562 46.148438 20.050781 44.449219 18.5 42.300781 L 18.5 42.800781 C 18.5 53.300781 22.199219 50.351562 24.648438 51.601562 C 27.148438 52.851562 29.75 52.449219 32.398438 52.449219 L 32.449219 52.449219 C 35.148438 52.449219 37.699219 52.800781 40.199219 51.550781 C 42.648438 50.300781 46.351562 53.351562 46.351562 42.851562 C 46.351562 42.449219 46.351562 42.050781 46.398438 41.699219 C 44.949219 44.050781 42.300781 45.898438 39 47 C 38.699219 47.101562 38 46.851562 37.699219 46.898438 C 35.898438 47.5 34.300781 48.148438 32.25 48.148438 Z M 32.25 48.148438 "/>
<path style=" stroke:none;fill-rule:nonzero;fill:rgb(26.666667%,15.686275%,13.72549%);fill-opacity:1;" d="M 27.5 42.5 C 27.5 42.5 26.25 46.25 27.101562 47.898438 L 25.949219 47.398438 C 25.949219 47.398438 26.800781 43.601562 27.5 42.5 Z M 37.398438 42.5 C 37.398438 42.5 38.648438 46.25 37.800781 47.898438 L 38.949219 47.398438 C 38.949219 47.398438 38.050781 43.601562 37.398438 42.5 Z M 37.398438 42.5 "/>
<path style=" stroke:none;fill-rule:nonzero;fill:rgb(80%,67.45098%,55.294118%);fill-opacity:1;" d="M 24.300781 23.351562 C 23.851562 24.898438 22.25 30.148438 25.351562 28.398438 C 25.351562 28.398438 24.050781 29.148438 23.25 32 C 22.449219 34.851562 20.351562 35.199219 20.351562 35.199219 C 20.351562 35.199219 17 35.851562 14.5 33.699219 C 12.398438 31.898438 12.050781 28.699219 12.949219 26.25 C 13.851562 23.800781 15.449219 23.101562 17.800781 22.601562 C 20.148438 22.050781 24.800781 21.601562 24.300781 23.351562 Z M 24.300781 23.351562 "/>
<path style=" stroke:none;fill-rule:nonzero;fill:rgb(0%,0%,0%);fill-opacity:1;" d="M 32.449219 38.398438 C 33.800781 38.398438 38 41.300781 38.050781 44.851562 L 38.050781 44.648438 C 38.050781 40.949219 34.648438 38 32.449219 38 C 30.25 38 26.851562 41 26.851562 44.648438 L 26.851562 44.851562 C 26.898438 41.300781 31.101562 38.398438 32.449219 38.398438 Z M 32.449219 38.398438 "/>
<path style=" stroke:none;fill-rule:nonzero;fill:rgb(20%,9.019608%,7.058824%);fill-opacity:1;" d="M 33.742188 30.652344 C 33.636719 30.25 33.378906 29.96875 33.167969 30.023438 C 32.953125 30.078125 32.863281 30.449219 32.96875 30.851562 C 33.070312 31.253906 33.328125 31.53125 33.542969 31.476562 C 33.753906 31.421875 33.84375 31.050781 33.742188 30.652344 Z M 33.742188 30.652344 "/>
<path style=" stroke:none;fill-rule:nonzero;fill:rgb(20%,9.019608%,7.058824%);fill-opacity:1;" d="M 31.574219 30.871094 C 31.699219 30.476562 31.625 30.101562 31.414062 30.039062 C 31.203125 29.972656 30.933594 30.238281 30.8125 30.636719 C 30.6875 31.03125 30.761719 31.40625 30.972656 31.46875 C 31.183594 31.535156 31.453125 31.265625 31.574219 30.871094 Z M 31.574219 30.871094 "/>
<path style=" stroke:none;fill-rule:nonzero;fill:rgb(0%,0%,0%);fill-opacity:1;" d="M 23 29.050781 C 23 31.480469 21.03125 33.449219 18.601562 33.449219 C 16.171875 33.449219 14.199219 31.480469 14.199219 29.050781 C 14.199219 26.621094 16.171875 24.648438 18.601562 24.648438 C 21.03125 24.648438 23 26.621094 23 29.050781 Z M 23 29.050781 "/>
<path style=" stroke:none;fill-rule:nonzero;fill:rgb(100%,100%,100%);fill-opacity:1;" d="M 20.898438 27.101562 C 20.898438 27.734375 20.386719 28.25 19.75 28.25 C 19.113281 28.25 18.601562 27.734375 18.601562 27.101562 C 18.601562 26.464844 19.113281 25.949219 19.75 25.949219 C 20.386719 25.949219 20.898438 26.464844 20.898438 27.101562 Z M 20.898438 27.101562 "/>
<path style=" stroke:none;fill-rule:nonzero;fill:rgb(49.803922%,29.019608%,25.490196%);fill-opacity:1;" d="M 33.75 29.101562 C 33.75 29.050781 32.601562 29.601562 32.300781 29.648438 C 32 29.601562 30.851562 29.050781 30.851562 29.101562 Z M 33.75 29.101562 "/>
<path style=" stroke:none;fill-rule:nonzero;fill:rgb(93.72549%,80%,63.921569%);fill-opacity:1;" d="M 25 28.851562 C 25 28.851562 21.050781 31.550781 18.898438 34.199219 C 16.75 36.851562 16.800781 37.351562 16.800781 37.351562 L 18.351562 38.050781 C 18.351562 38.050781 20.550781 33.898438 23.25 32.351562 C 25.949219 30.800781 26.300781 29.5 26.300781 29.5 Z M 25 28.851562 "/>
<path style=" stroke:none;fill-rule:nonzero;fill:rgb(80%,67.45098%,55.294118%);fill-opacity:1;" d="M 16.351562 20.851562 C 16.351562 20.851562 15 24.550781 12 26.101562 C 12 26.101562 16.699219 25.550781 16.351562 20.851562 Z M 47.898438 20.851562 C 47.898438 20.851562 49.25 24.550781 52.25 26.101562 C 52.25 26.101562 47.550781 25.550781 47.898438 20.851562 Z M 39.351562 27.75 C 39.351562 27.75 36.398438 24.648438 32.449219 24.550781 L 32.550781 24.550781 C 28.550781 24.648438 25.648438 27.75 25.648438 27.75 C 29.101562 25.351562 32.050781 25.398438 32.550781 25.398438 C 32.5 25.398438 35.898438 25.351562 39.351562 27.75 Z M 35.898438 21.25 C 35.898438 21.25 34.398438 19.148438 32.398438 19.101562 L 32.5 19.101562 C 31 19.148438 29.050781 21.25 29.050781 21.25 C 30.75 19.601562 32.5 19.648438 32.5 19.648438 C 32.5 19.648438 34.148438 19.601562 35.898438 21.25 Z M 18.601562 36.601562 C 18.601562 36.601562 16.25 37.75 14.550781 37.050781 L 14.5 37.050781 C 13 36.199219 12.25 33.648438 12.25 33.648438 C 12.25 33.648438 13.75 38.148438 18.601562 36.601562 Z M 46 36.601562 C 46 36.601562 48.351562 37.75 50.050781 37.050781 C 52.050781 36.199219 52.351562 33.648438 52.351562 33.648438 C 52.351562 33.648438 50.851562 38.148438 46 36.601562 Z M 46 36.601562 "/>
<path style=" stroke:none;fill-rule:nonzero;fill:rgb(80%,67.45098%,55.294118%);fill-opacity:1;" d="M 21.300781 20.601562 C 22.601562 20.351562 24.75 20.300781 26.449219 20.851562 C 28.601562 21.601562 26.851562 24.351562 27.300781 24.5 C 27.75 24.648438 28.351562 22.601562 32.351562 22.800781 C 36.398438 23 36.851562 24.800781 37.398438 24.5 C 37.949219 24.199219 36.851562 19.5 42.898438 20.601562 C 42.898438 20.601562 36.550781 18.898438 36.851562 23.5 C 36.851562 23.5 33.199219 20.699219 28.101562 23.199219 C 28.148438 23.199219 29.449219 18.898438 21.300781 20.601562 Z M 43.449219 20.601562 C 43.550781 20.601562 43.601562 20.648438 43.648438 20.648438 C 43.699219 20.648438 43.601562 20.601562 43.449219 20.601562 Z M 43.449219 20.601562 Z M 19.550781 14.449219 C 19.550781 14.449219 14.148438 21.25 13.351562 23.851562 C 12.550781 26.5 11.949219 37.351562 11.25 38.898438 L 8.75 28.199219 L 13.351562 17.050781 Z M 44.949219 14.449219 C 44.949219 14.449219 50.351562 21.25 51.148438 23.851562 C 51.949219 26.5 52.550781 37.351562 53.25 38.898438 L 55.75 28.199219 L 51.148438 17.050781 Z M 44.949219 14.449219 "/>
<path style=" stroke:none;fill-rule:nonzero;fill:rgb(33.72549%,20%,16.862745%);fill-opacity:1;" d="M 44.699219 14.449219 C 44.699219 14.449219 50.5 19.300781 52.199219 24.898438 C 53.898438 30.5 53.199219 37.300781 54.5 38.148438 C 56.351562 39.351562 58.449219 32.199219 59.148438 31.449219 C 60.25 30.25 63.898438 27.199219 64.148438 26.648438 C 64.398438 26.101562 56.75 17.75 53.398438 16.101562 C 49.351562 14.199219 44.351562 14.050781 44.699219 14.449219 Z M 44.699219 14.449219 "/>
<path style=" stroke:none;fill-rule:nonzero;fill:rgb(26.666667%,15.686275%,13.72549%);fill-opacity:1;" d="M 49.648438 17.449219 C 49.648438 17.449219 56.5 26.199219 56.398438 37.101562 L 59.148438 31.5 C 59.101562 31.5 56.699219 24.351562 49.648438 17.449219 Z M 49.648438 17.449219 "/>
<path style=" stroke:none;fill-rule:nonzero;fill:rgb(33.72549%,20%,16.862745%);fill-opacity:1;" d="M 19.550781 14.449219 C 19.550781 14.449219 13.75 19.300781 12.050781 24.898438 C 10.351562 30.5 11.050781 37.300781 9.75 38.148438 C 7.898438 39.351562 5.800781 32.199219 5.101562 31.449219 C 4 30.25 0.351562 27.199219 0.101562 26.648438 C -0.148438 26.101562 7.5 17.75 10.851562 16.101562 C 14.898438 14.199219 19.898438 14.050781 19.550781 14.449219 Z M 19.550781 14.449219 "/>
<path style=" stroke:none;fill-rule:nonzero;fill:rgb(26.666667%,15.686275%,13.72549%);fill-opacity:1;" d="M 14.601562 17.449219 C 14.601562 17.449219 7.75 26.199219 7.851562 37.101562 L 5.148438 31.5 C 5.148438 31.5 7.550781 24.351562 14.601562 17.449219 Z M 14.601562 17.449219 "/>
<path style=" stroke:none;fill-rule:nonzero;fill:rgb(80%,67.45098%,55.294118%);fill-opacity:1;" d="M 10.898438 37.300781 C 10.898438 37.300781 11.398438 40 12.199219 40.851562 C 13 41.699219 12.449219 40.199219 12.449219 40.199219 C 12.449219 40.199219 11.601562 39.75 11.75 36.300781 C 11.898438 32.851562 10.898438 37.300781 10.898438 37.300781 Z M 53.550781 37.300781 C 53.550781 37.300781 53.050781 40 52.25 40.851562 C 51.449219 41.699219 52 40.199219 52 40.199219 C 52 40.199219 52.851562 39.75 52.699219 36.300781 C 52.550781 32.851562 53.550781 37.300781 53.550781 37.300781 Z M 53.550781 37.300781 "/>
<path style=" stroke:none;fill-rule:nonzero;fill:rgb(26.666667%,15.686275%,13.72549%);fill-opacity:1;" d="M 27.648438 35.25 C 27.648438 35.472656 27.472656 35.648438 27.25 35.648438 C 27.027344 35.648438 26.851562 35.472656 26.851562 35.25 C 26.851562 35.027344 27.027344 34.851562 27.25 34.851562 C 27.472656 34.851562 27.648438 35.027344 27.648438 35.25 Z M 27.648438 35.25 "/>
<path style=" stroke:none;fill-rule:nonzero;fill:rgb(26.666667%,15.686275%,13.72549%);fill-opacity:1;" d="M 25.351562 37.648438 C 25.351562 37.871094 25.171875 38.050781 24.949219 38.050781 C 24.730469 38.050781 24.550781 37.871094 24.550781 37.648438 C 24.550781 37.429688 24.730469 37.25 24.949219 37.25 C 25.171875 37.25 25.351562 37.429688 25.351562 37.648438 Z M 25.351562 37.648438 "/>
<path style=" stroke:none;fill-rule:nonzero;fill:rgb(26.666667%,15.686275%,13.72549%);fill-opacity:1;" d="M 24.601562 35.25 C 24.601562 35.472656 24.421875 35.648438 24.199219 35.648438 C 23.980469 35.648438 23.800781 35.472656 23.800781 35.25 C 23.800781 35.027344 23.980469 34.851562 24.199219 34.851562 C 24.421875 34.851562 24.601562 35.027344 24.601562 35.25 Z M 24.601562 35.25 "/>
<path style=" stroke:none;fill-rule:nonzero;fill:rgb(26.666667%,15.686275%,13.72549%);fill-opacity:1;" d="M 37.398438 35.25 C 37.398438 35.472656 37.222656 35.648438 37 35.648438 C 36.777344 35.648438 36.601562 35.472656 36.601562 35.25 C 36.601562 35.027344 36.777344 34.851562 37 34.851562 C 37.222656 34.851562 37.398438 35.027344 37.398438 35.25 Z M 37.398438 35.25 "/>
<path style=" stroke:none;fill-rule:nonzero;fill:rgb(26.666667%,15.686275%,13.72549%);fill-opacity:1;" d="M 39.699219 37.648438 C 39.699219 37.871094 39.519531 38.050781 39.300781 38.050781 C 39.078125 38.050781 38.898438 37.871094 38.898438 37.648438 C 38.898438 37.429688 39.078125 37.25 39.300781 37.25 C 39.519531 37.25 39.699219 37.429688 39.699219 37.648438 Z M 39.699219 37.648438 "/>
<path style=" stroke:none;fill-rule:nonzero;fill:rgb(26.666667%,15.686275%,13.72549%);fill-opacity:1;" d="M 40.449219 35.25 C 40.449219 35.472656 40.269531 35.648438 40.050781 35.648438 C 39.828125 35.648438 39.648438 35.472656 39.648438 35.25 C 39.648438 35.027344 39.828125 34.851562 40.050781 34.851562 C 40.269531 34.851562 40.449219 35.027344 40.449219 35.25 Z M 40.449219 35.25 "/>
</g>
</svg>
