<?xml version="1.0" encoding="UTF-8"?>
<svg xmlns="http://www.w3.org/2000/svg" xmlns:xlink="http://www.w3.org/1999/xlink" width="64px" height="64px" viewBox="0 0 64 63" version="1.1">
<defs>
<linearGradient id="python-linear0" gradientUnits="userSpaceOnUse" x1="0.12959" y1="0.12039" x2="0.79639" y2="0.78201" gradientTransform="matrix(47.320312,0,0,46.890625,0.0351562,0.0195312)">
<stop offset="0" style="stop-color:rgb(21.960784%,49.411765%,72.156863%);stop-opacity:1;"/>
<stop offset="1" style="stop-color:rgb(21.176471%,41.176471%,58.039216%);stop-opacity:1;"/>
</linearGradient>
<linearGradient id="python-linear1" gradientUnits="userSpaceOnUse" x1="0.19128" y1="0.20579" x2="0.90742" y2="0.88429" gradientTransform="matrix(47.316406,0,0,46.890625,16.558594,15.894531)">
<stop offset="0" style="stop-color:rgb(100%,87.843137%,32.156863%);stop-opacity:1;"/>
<stop offset="1" style="stop-color:rgb(100%,76.470588%,19.215686%);stop-opacity:1;"/>
</linearGradient>
</defs>
<g id="surface1">
<path style=" stroke:none;fill-rule:nonzero;fill:url(#python-linear0);" d="M 31.726562 0.0195312 C 15.519531 0.0195312 16.53125 6.964844 16.53125 6.964844 L 16.550781 14.160156 L 32.015625 14.160156 L 32.015625 16.320312 L 10.40625 16.320312 C 10.40625 16.320312 0.0351562 15.160156 0.0351562 31.320312 C 0.0351562 47.480469 9.089844 46.910156 9.089844 46.910156 L 14.488281 46.910156 L 14.488281 39.410156 C 14.488281 39.410156 14.199219 30.460938 23.398438 30.460938 L 38.734375 30.460938 C 38.734375 30.460938 47.355469 30.601562 47.355469 22.230469 L 47.355469 8.394531 C 47.355469 8.394531 48.664062 0.0195312 31.726562 0.0195312 Z M 23.199219 4.855469 C 23.9375 4.855469 24.644531 5.144531 25.167969 5.660156 C 25.6875 6.175781 25.980469 6.878906 25.980469 7.605469 C 25.980469 8.335938 25.6875 9.035156 25.167969 9.550781 C 24.644531 10.066406 23.9375 10.355469 23.199219 10.355469 C 22.460938 10.355469 21.753906 10.066406 21.230469 9.550781 C 20.707031 9.035156 20.414062 8.335938 20.417969 7.605469 C 20.414062 6.878906 20.707031 6.175781 21.230469 5.660156 C 21.753906 5.144531 22.460938 4.855469 23.199219 4.855469 Z M 23.199219 4.855469 "/>
<path style=" stroke:none;fill-rule:nonzero;fill:url(#python-linear1);" d="M 32.1875 62.785156 C 48.394531 62.785156 47.378906 55.839844 47.378906 55.839844 L 47.363281 48.640625 L 31.898438 48.640625 L 31.898438 46.480469 L 53.503906 46.480469 C 53.503906 46.480469 63.875 47.644531 63.875 31.480469 C 63.875 15.320312 54.824219 15.894531 54.824219 15.894531 L 49.421875 15.894531 L 49.421875 23.394531 C 49.421875 23.394531 49.714844 32.339844 40.515625 32.339844 L 25.175781 32.339844 C 25.175781 32.339844 16.558594 32.203125 16.558594 40.570312 L 16.558594 54.410156 C 16.558594 54.410156 15.25 62.785156 32.1875 62.785156 Z M 40.714844 57.945312 C 39.976562 57.945312 39.269531 57.65625 38.746094 57.140625 C 38.222656 56.625 37.929688 55.925781 37.933594 55.195312 C 37.929688 54.464844 38.222656 53.765625 38.746094 53.25 C 39.269531 52.734375 39.976562 52.445312 40.714844 52.445312 C 41.453125 52.445312 42.160156 52.734375 42.683594 53.25 C 43.203125 53.765625 43.496094 54.464844 43.496094 55.195312 C 43.496094 55.925781 43.203125 56.625 42.683594 57.140625 C 42.160156 57.65625 41.453125 57.945312 40.714844 57.945312 Z M 40.714844 57.945312 "/>
</g>
</svg>
