<?xml version="1.0" encoding="UTF-8"?>
<svg xmlns="http://www.w3.org/2000/svg" xmlns:xlink="http://www.w3.org/1999/xlink" width="64px" height="64px" viewBox="0 0 64 72" version="1.1">
<g id="surface1">
<path style=" stroke:none;fill-rule:nonzero;fill:rgb(38.039216%,85.490196%,98.431373%);fill-opacity:1;" d="M 64 36.007812 C 64 31.820312 58.691406 27.855469 50.550781 25.394531 C 52.429688 17.203125 51.59375 10.683594 47.914062 8.597656 C 47.066406 8.109375 46.074219 7.878906 44.992188 7.878906 L 44.992188 10.75 C 45.59375 10.75 46.074219 10.867188 46.480469 11.085938 C 48.253906 12.089844 49.023438 15.914062 48.425781 20.835938 C 48.28125 22.046875 48.046875 23.320312 47.757812 24.621094 C 45.203125 24.003906 42.410156 23.527344 39.476562 23.21875 C 37.714844 20.835938 35.886719 18.671875 34.046875 16.777344 C 38.300781 12.875 42.292969 10.738281 45.007812 10.738281 L 45.007812 7.863281 C 41.417969 7.863281 36.722656 10.390625 31.972656 14.769531 C 27.226562 10.414062 22.527344 7.917969 18.941406 7.917969 L 18.941406 10.789062 C 21.640625 10.789062 25.648438 12.914062 29.898438 16.789062 C 28.074219 18.683594 26.246094 20.835938 24.511719 23.21875 C 21.5625 23.527344 18.773438 24.003906 16.214844 24.632812 C 15.914062 23.347656 15.695312 22.097656 15.535156 20.898438 C 14.921875 15.980469 15.679688 12.152344 17.441406 11.136719 C 17.832031 10.902344 18.339844 10.800781 18.941406 10.800781 L 18.941406 7.929688 C 17.847656 7.929688 16.855469 8.160156 15.992188 8.648438 C 12.328125 10.738281 11.507812 17.242188 13.398438 25.40625 C 5.285156 27.878906 0 31.832031 0 36.007812 C 0 40.191406 5.308594 44.160156 13.449219 46.621094 C 11.570312 54.8125 12.40625 61.328125 16.085938 63.414062 C 16.933594 63.902344 17.925781 64.136719 19.019531 64.136719 C 22.605469 64.136719 27.304688 61.609375 32.050781 57.230469 C 36.800781 61.585938 41.496094 64.082031 45.085938 64.082031 C 46.179688 64.082031 47.171875 63.851562 48.03125 63.363281 C 51.699219 61.277344 52.519531 54.773438 50.628906 46.605469 C 58.714844 44.144531 64 40.179688 64 36.007812 Z M 47.015625 27.414062 C 46.53125 29.078125 45.933594 30.789062 45.253906 32.503906 C 44.71875 31.472656 44.15625 30.441406 43.546875 29.410156 C 42.945312 28.382812 42.304688 27.378906 41.667969 26.398438 C 43.519531 26.667969 45.304688 27.003906 47.015625 27.414062 Z M 41.039062 41.132812 C 40.023438 42.871094 38.980469 44.519531 37.894531 46.050781 C 35.953125 46.21875 33.984375 46.308594 32 46.308594 C 30.03125 46.308594 28.058594 46.21875 26.128906 46.066406 C 25.046875 44.53125 23.988281 42.898438 22.972656 41.171875 C 21.980469 39.484375 21.082031 37.769531 20.257812 36.046875 C 21.066406 34.320312 21.980469 32.59375 22.960938 30.90625 C 23.976562 29.167969 25.019531 27.519531 26.105469 25.984375 C 28.046875 25.820312 30.015625 25.730469 32 25.730469 C 33.96875 25.730469 35.941406 25.820312 37.871094 25.972656 C 38.953125 27.507812 40.011719 29.140625 41.027344 30.867188 C 42.019531 32.554688 42.917969 34.269531 43.742188 35.992188 C 42.917969 37.71875 42.019531 39.445312 41.039062 41.132812 Z M 45.253906 39.457031 C 45.957031 41.183594 46.558594 42.910156 47.054688 44.585938 C 45.34375 44.996094 43.546875 45.34375 41.679688 45.613281 C 42.320312 44.621094 42.957031 43.605469 43.558594 42.5625 C 44.15625 41.53125 44.71875 40.488281 45.253906 39.457031 Z M 32.027344 53.199219 C 30.8125 51.964844 29.601562 50.585938 28.398438 49.078125 C 29.574219 49.128906 30.773438 49.167969 31.988281 49.167969 C 33.214844 49.167969 34.425781 49.144531 35.613281 49.078125 C 34.441406 50.585938 33.226562 51.964844 32.027344 53.199219 Z M 22.320312 45.613281 C 20.46875 45.34375 18.679688 45.007812 16.972656 44.597656 C 17.453125 42.9375 18.054688 41.222656 18.734375 39.507812 C 19.269531 40.539062 19.828125 41.570312 20.441406 42.601562 C 21.054688 43.632812 21.679688 44.636719 22.320312 45.613281 Z M 31.960938 18.8125 C 33.175781 20.046875 34.386719 21.425781 35.585938 22.933594 C 34.414062 22.882812 33.214844 22.84375 32 22.84375 C 30.773438 22.84375 29.558594 22.871094 28.375 22.933594 C 29.546875 21.425781 30.761719 20.046875 31.960938 18.8125 Z M 22.308594 26.398438 C 21.667969 27.390625 21.027344 28.40625 20.429688 29.449219 C 19.828125 30.480469 19.269531 31.511719 18.734375 32.542969 C 18.027344 30.816406 17.429688 29.089844 16.933594 27.414062 C 18.640625 27.015625 20.441406 26.667969 22.308594 26.398438 Z M 10.5 42.523438 C 5.882812 40.578125 2.894531 38.027344 2.894531 36.007812 C 2.894531 33.984375 5.882812 31.421875 10.5 29.488281 C 11.625 29.011719 12.847656 28.585938 14.113281 28.1875 C 14.859375 30.714844 15.835938 33.339844 17.050781 36.03125 C 15.851562 38.710938 14.882812 41.324219 14.152344 43.835938 C 12.863281 43.4375 11.636719 43 10.5 42.523438 Z M 17.519531 60.929688 C 15.746094 59.921875 14.976562 56.097656 15.574219 51.179688 C 15.71875 49.96875 15.953125 48.691406 16.242188 47.390625 C 18.796875 48.011719 21.589844 48.488281 24.523438 48.796875 C 26.285156 51.179688 28.113281 53.34375 29.953125 55.234375 C 25.699219 59.136719 21.707031 61.277344 18.992188 61.277344 C 18.40625 61.261719 17.910156 61.148438 17.519531 60.929688 Z M 48.464844 51.113281 C 49.078125 56.035156 48.320312 59.859375 46.558594 60.875 C 46.167969 61.109375 45.660156 61.210938 45.058594 61.210938 C 42.359375 61.210938 38.351562 59.085938 34.101562 55.210938 C 35.925781 53.316406 37.753906 51.164062 39.488281 48.78125 C 42.4375 48.472656 45.226562 47.996094 47.785156 47.367188 C 48.085938 48.667969 48.320312 49.917969 48.464844 51.113281 Z M 53.484375 42.523438 C 52.363281 43 51.136719 43.425781 49.871094 43.824219 C 49.128906 41.300781 48.148438 38.671875 46.9375 35.980469 C 48.136719 33.300781 49.101562 30.6875 49.832031 28.175781 C 51.125 28.574219 52.351562 29.011719 53.5 29.488281 C 58.117188 31.433594 61.105469 33.984375 61.105469 36.007812 C 61.089844 38.027344 58.105469 40.589844 53.484375 42.523438 Z M 53.484375 42.523438 "/>
<path style=" stroke:none;fill-rule:nonzero;fill:rgb(38.039216%,85.490196%,98.431373%);fill-opacity:1;" d="M 37.949219 36.007812 C 37.949219 39.257812 35.28125 41.890625 31.988281 41.890625 C 28.695312 41.890625 26.023438 39.257812 26.023438 36.007812 C 26.023438 32.753906 28.695312 30.121094 31.988281 30.121094 C 35.28125 30.121094 37.949219 32.753906 37.949219 36.007812 Z M 37.949219 36.007812 "/>
</g>
</svg>
