<?xml version="1.0" encoding="UTF-8"?>
<svg xmlns="http://www.w3.org/2000/svg" xmlns:xlink="http://www.w3.org/1999/xlink" width="64px" height="64px" viewBox="0 0 64 51" version="1.1">
<g id="surface1">
<path style=" stroke:none;fill-rule:nonzero;fill:rgb(38.039216%,85.490196%,98.431373%);fill-opacity:1;" d="M 52.941406 23.292969 C 52.941406 20.511719 49.4375 17.875 44.066406 16.242188 C 45.304688 10.804688 44.753906 6.476562 42.324219 5.089844 C 41.765625 4.765625 41.113281 4.609375 40.398438 4.609375 L 40.398438 6.519531 C 40.792969 6.519531 41.113281 6.59375 41.378906 6.742188 C 42.550781 7.40625 43.058594 9.949219 42.660156 13.214844 C 42.566406 14.019531 42.410156 14.867188 42.222656 15.730469 C 40.535156 15.320312 38.691406 15.003906 36.757812 14.796875 C 35.59375 13.214844 34.390625 11.777344 33.175781 10.519531 C 35.980469 7.929688 38.617188 6.507812 40.40625 6.507812 L 40.40625 4.601562 C 38.039062 4.601562 34.941406 6.277344 31.804688 9.1875 C 28.671875 6.296875 25.574219 4.636719 23.207031 4.636719 L 23.207031 6.542969 C 24.988281 6.542969 27.632812 7.953125 30.4375 10.53125 C 29.230469 11.785156 28.027344 13.214844 26.882812 14.796875 C 24.9375 15.003906 23.09375 15.320312 21.40625 15.738281 C 21.210938 14.882812 21.0625 14.054688 20.960938 13.257812 C 20.554688 9.992188 21.054688 7.449219 22.214844 6.773438 C 22.472656 6.621094 22.808594 6.550781 23.207031 6.550781 L 23.207031 4.644531 C 22.484375 4.644531 21.828125 4.796875 21.261719 5.125 C 18.84375 6.507812 18.300781 10.828125 19.546875 16.25 C 14.191406 17.894531 10.707031 20.519531 10.707031 23.292969 C 10.707031 26.070312 14.210938 28.707031 19.582031 30.339844 C 18.34375 35.78125 18.894531 40.105469 21.320312 41.492188 C 21.878906 41.816406 22.535156 41.972656 23.257812 41.972656 C 25.625 41.972656 28.722656 40.296875 31.859375 37.386719 C 34.992188 40.277344 38.089844 41.9375 40.457031 41.9375 C 41.179688 41.9375 41.835938 41.785156 42.402344 41.457031 C 44.820312 40.074219 45.363281 35.753906 44.117188 30.332031 C 49.453125 28.695312 52.941406 26.0625 52.941406 23.292969 Z M 41.730469 17.585938 C 41.414062 18.691406 41.015625 19.828125 40.570312 20.964844 C 40.214844 20.28125 39.847656 19.597656 39.441406 18.910156 C 39.046875 18.226562 38.625 17.558594 38.203125 16.910156 C 39.425781 17.089844 40.605469 17.3125 41.730469 17.585938 Z M 37.789062 26.695312 C 37.117188 27.851562 36.429688 28.945312 35.714844 29.964844 C 34.433594 30.074219 33.132812 30.132812 31.824219 30.132812 C 30.523438 30.132812 29.222656 30.074219 27.949219 29.972656 C 27.234375 28.953125 26.539062 27.867188 25.867188 26.722656 C 25.210938 25.601562 24.617188 24.464844 24.074219 23.316406 C 24.609375 22.171875 25.210938 21.023438 25.859375 19.902344 C 26.527344 18.75 27.21875 17.65625 27.933594 16.636719 C 29.214844 16.527344 30.515625 16.464844 31.824219 16.464844 C 33.125 16.464844 34.421875 16.527344 35.695312 16.628906 C 36.410156 17.644531 37.109375 18.730469 37.78125 19.878906 C 38.433594 21 39.027344 22.136719 39.570312 23.28125 C 39.027344 24.429688 38.433594 25.574219 37.789062 26.695312 Z M 40.570312 25.582031 C 41.019531 26.699219 41.417969 27.835938 41.757812 28.988281 C 40.628906 29.261719 39.441406 29.492188 38.210938 29.671875 C 38.632812 29.011719 39.054688 28.335938 39.449219 27.644531 C 39.847656 26.960938 40.214844 26.269531 40.570312 25.582031 Z M 31.839844 34.710938 C 31.039062 33.890625 30.238281 32.972656 29.449219 31.972656 C 30.222656 32.007812 31.015625 32.03125 31.816406 32.03125 C 32.625 32.03125 33.425781 32.015625 34.207031 31.972656 C 33.46875 32.925781 32.679688 33.839844 31.839844 34.710938 Z M 25.4375 29.671875 C 24.214844 29.492188 23.035156 29.269531 21.90625 28.996094 C 22.226562 27.894531 22.621094 26.753906 23.070312 25.617188 C 23.421875 26.300781 23.792969 26.988281 24.195312 27.671875 C 24.601562 28.355469 25.015625 29.023438 25.4375 29.671875 Z M 31.796875 11.871094 C 32.597656 12.695312 33.398438 13.609375 34.191406 14.609375 C 33.414062 14.574219 32.625 14.550781 31.824219 14.550781 C 31.015625 14.550781 30.214844 14.566406 29.429688 14.609375 C 30.167969 13.65625 30.960938 12.742188 31.796875 11.871094 Z M 25.425781 16.910156 C 25.003906 17.570312 24.582031 18.246094 24.1875 18.9375 C 23.792969 19.621094 23.421875 20.304688 23.070312 20.992188 C 22.617188 19.875 22.21875 18.738281 21.878906 17.585938 C 23.007812 17.320312 24.195312 17.089844 25.425781 16.910156 Z M 17.636719 27.621094 C 14.589844 26.328125 12.617188 24.632812 12.617188 23.292969 C 12.617188 21.949219 14.589844 20.246094 17.636719 18.964844 C 18.378906 18.648438 19.1875 18.363281 20.019531 18.097656 C 20.511719 19.777344 21.15625 21.519531 21.957031 23.308594 C 21.167969 25.085938 20.527344 26.824219 20.046875 28.492188 C 19.195312 28.226562 18.386719 27.9375 17.636719 27.621094 Z M 22.269531 39.84375 C 21.097656 39.175781 20.589844 36.632812 20.984375 33.367188 C 21.082031 32.5625 21.234375 31.714844 21.425781 30.851562 C 23.113281 31.261719 24.953125 31.578125 26.890625 31.785156 C 28.054688 33.367188 29.257812 34.804688 30.472656 36.0625 C 27.664062 38.652344 25.03125 40.074219 23.242188 40.074219 C 22.851562 40.066406 22.527344 39.988281 22.269531 39.84375 Z M 42.6875 33.324219 C 43.089844 36.589844 42.59375 39.132812 41.429688 39.808594 C 41.171875 39.960938 40.835938 40.03125 40.441406 40.03125 C 38.660156 40.03125 36.015625 38.617188 33.210938 36.042969 C 34.414062 34.785156 35.621094 33.359375 36.765625 31.777344 C 38.710938 31.570312 40.550781 31.253906 42.238281 30.835938 C 42.4375 31.699219 42.59375 32.527344 42.6875 33.324219 Z M 46 27.621094 C 45.261719 27.9375 44.453125 28.21875 43.617188 28.484375 C 43.125 26.808594 42.480469 25.0625 41.679688 23.273438 C 42.472656 21.496094 43.109375 19.757812 43.589844 18.089844 C 44.445312 18.355469 45.253906 18.648438 46.011719 18.964844 C 49.058594 20.253906 51.027344 21.949219 51.027344 23.292969 C 51.019531 24.632812 49.046875 26.335938 46 27.621094 Z M 46 27.621094 "/>
<path style=" stroke:none;fill-rule:nonzero;fill:rgb(38.039216%,85.490196%,98.431373%);fill-opacity:1;" d="M 31.816406 27.199219 C 33.988281 27.199219 35.75 25.449219 35.75 23.292969 C 35.75 21.132812 33.988281 19.382812 31.816406 19.382812 C 29.640625 19.382812 27.878906 21.132812 27.878906 23.292969 C 27.878906 25.449219 29.640625 27.199219 31.816406 27.199219 Z M 12.625 48.703125 L 11.324219 48.703125 L 11.324219 50.925781 L 10.59375 50.925781 L 10.59375 45.429688 L 12.421875 45.429688 C 13.046875 45.429688 13.523438 45.570312 13.859375 45.855469 C 14.195312 46.136719 14.363281 46.546875 14.363281 47.082031 C 14.363281 47.425781 14.269531 47.722656 14.082031 47.976562 C 13.898438 48.230469 13.640625 48.421875 13.308594 48.546875 L 14.605469 50.878906 L 14.605469 50.925781 L 13.824219 50.925781 Z M 11.324219 48.109375 L 12.445312 48.109375 C 12.808594 48.109375 13.09375 48.015625 13.308594 47.832031 C 13.523438 47.644531 13.632812 47.394531 13.632812 47.082031 C 13.632812 46.742188 13.527344 46.484375 13.324219 46.300781 C 13.121094 46.121094 12.828125 46.03125 12.441406 46.027344 L 11.324219 46.027344 Z M 16.984375 51 C 16.425781 51 15.972656 50.820312 15.625 50.457031 C 15.273438 50.09375 15.101562 49.605469 15.101562 48.996094 L 15.101562 48.867188 C 15.101562 48.464844 15.175781 48.101562 15.332031 47.785156 C 15.488281 47.464844 15.707031 47.21875 15.984375 47.039062 C 16.265625 46.855469 16.570312 46.765625 16.898438 46.765625 C 17.429688 46.765625 17.847656 46.941406 18.140625 47.292969 C 18.4375 47.640625 18.585938 48.140625 18.585938 48.792969 L 18.585938 49.082031 L 15.804688 49.082031 C 15.8125 49.484375 15.929688 49.8125 16.15625 50.058594 C 16.382812 50.308594 16.671875 50.429688 17.023438 50.429688 C 17.269531 50.429688 17.480469 50.378906 17.652344 50.28125 C 17.824219 50.179688 17.976562 50.046875 18.105469 49.878906 L 18.53125 50.210938 C 18.1875 50.738281 17.671875 51 16.984375 51 Z M 16.898438 47.339844 C 16.613281 47.339844 16.375 47.441406 16.183594 47.648438 C 15.992188 47.851562 15.871094 48.140625 15.824219 48.507812 L 17.882812 48.507812 L 17.882812 48.457031 C 17.863281 48.101562 17.765625 47.828125 17.59375 47.632812 C 17.421875 47.4375 17.191406 47.339844 16.898438 47.339844 Z M 21.9375 50.925781 C 21.898438 50.84375 21.867188 50.699219 21.839844 50.496094 C 21.515625 50.832031 21.125 51 20.671875 51 C 20.265625 51 19.933594 50.886719 19.671875 50.660156 C 19.414062 50.429688 19.285156 50.140625 19.285156 49.792969 C 19.285156 49.367188 19.445312 49.039062 19.769531 48.804688 C 20.097656 48.566406 20.554688 48.449219 21.144531 48.449219 L 21.828125 48.449219 L 21.828125 48.128906 C 21.828125 47.882812 21.753906 47.691406 21.609375 47.546875 C 21.460938 47.402344 21.246094 47.328125 20.960938 47.328125 C 20.707031 47.328125 20.5 47.390625 20.328125 47.515625 C 20.160156 47.644531 20.074219 47.796875 20.074219 47.972656 L 19.367188 47.972656 C 19.367188 47.769531 19.441406 47.574219 19.585938 47.386719 C 19.730469 47.195312 19.929688 47.042969 20.175781 46.933594 C 20.429688 46.820312 20.703125 46.765625 21 46.765625 C 21.476562 46.765625 21.84375 46.886719 22.113281 47.121094 C 22.382812 47.355469 22.519531 47.679688 22.53125 48.089844 L 22.53125 49.96875 C 22.53125 50.34375 22.578125 50.644531 22.675781 50.863281 L 22.675781 50.925781 Z M 20.773438 50.390625 C 20.992188 50.390625 21.203125 50.335938 21.398438 50.222656 C 21.597656 50.109375 21.742188 49.960938 21.828125 49.78125 L 21.828125 48.945312 L 21.277344 48.945312 C 20.417969 48.945312 19.988281 49.195312 19.988281 49.695312 C 19.988281 49.914062 20.0625 50.085938 20.207031 50.207031 C 20.355469 50.332031 20.542969 50.390625 20.773438 50.390625 Z M 25.28125 50.429688 C 25.53125 50.429688 25.75 50.355469 25.9375 50.203125 C 26.125 50.054688 26.230469 49.863281 26.25 49.636719 L 26.914062 49.636719 C 26.902344 49.871094 26.820312 50.09375 26.671875 50.304688 C 26.519531 50.515625 26.320312 50.6875 26.070312 50.8125 C 25.824219 50.9375 25.558594 51 25.28125 51 C 24.722656 51 24.277344 50.816406 23.945312 50.445312 C 23.613281 50.074219 23.449219 49.566406 23.449219 48.921875 L 23.449219 48.804688 C 23.449219 48.40625 23.523438 48.054688 23.671875 47.742188 C 23.816406 47.433594 24.027344 47.195312 24.300781 47.023438 C 24.578125 46.851562 24.902344 46.765625 25.277344 46.765625 C 25.738281 46.765625 26.121094 46.902344 26.421875 47.179688 C 26.730469 47.453125 26.894531 47.808594 26.914062 48.246094 L 26.25 48.246094 C 26.230469 47.980469 26.128906 47.765625 25.945312 47.597656 C 25.765625 47.425781 25.542969 47.339844 25.277344 47.339844 C 24.921875 47.339844 24.644531 47.46875 24.445312 47.726562 C 24.25 47.980469 24.152344 48.347656 24.152344 48.832031 L 24.152344 48.960938 C 24.152344 49.433594 24.25 49.796875 24.445312 50.050781 C 24.640625 50.304688 24.917969 50.429688 25.28125 50.429688 Z M 28.65625 45.855469 L 28.65625 46.84375 L 29.421875 46.84375 L 29.421875 47.382812 L 28.65625 47.382812 L 28.65625 49.914062 C 28.65625 50.078125 28.691406 50.199219 28.757812 50.28125 C 28.828125 50.363281 28.945312 50.402344 29.109375 50.402344 C 29.1875 50.402344 29.300781 50.390625 29.441406 50.359375 L 29.441406 50.925781 C 29.257812 50.976562 29.078125 51 28.902344 51 C 28.589844 51 28.351562 50.90625 28.191406 50.71875 C 28.035156 50.527344 27.953125 50.261719 27.953125 49.914062 L 27.953125 47.382812 L 27.207031 47.382812 L 27.207031 46.84375 L 27.953125 46.84375 L 27.953125 45.855469 Z M 36.535156 50.925781 L 35.804688 50.925781 L 33.019531 46.691406 L 33.019531 50.925781 L 32.285156 50.925781 L 32.285156 45.429688 L 33.019531 45.429688 L 35.808594 49.683594 L 35.808594 45.429688 L 36.535156 45.429688 Z M 40.257812 50.925781 C 40.214844 50.84375 40.183594 50.699219 40.160156 50.496094 C 39.832031 50.832031 39.441406 51 38.988281 51 C 38.582031 51 38.25 50.886719 37.988281 50.660156 C 37.730469 50.429688 37.601562 50.140625 37.601562 49.792969 C 37.601562 49.367188 37.765625 49.039062 38.089844 48.804688 C 38.414062 48.566406 38.875 48.449219 39.464844 48.449219 L 40.148438 48.449219 L 40.148438 48.128906 C 40.148438 47.882812 40.074219 47.691406 39.925781 47.546875 C 39.78125 47.402344 39.5625 47.328125 39.277344 47.328125 C 39.027344 47.328125 38.816406 47.390625 38.648438 47.515625 C 38.476562 47.644531 38.394531 47.796875 38.394531 47.972656 L 37.6875 47.972656 C 37.6875 47.769531 37.757812 47.574219 37.902344 47.386719 C 38.050781 47.195312 38.246094 47.042969 38.496094 46.933594 C 38.746094 46.820312 39.019531 46.765625 39.320312 46.765625 C 39.792969 46.765625 40.164062 46.886719 40.433594 47.121094 C 40.699219 47.355469 40.839844 47.679688 40.847656 48.089844 L 40.847656 49.96875 C 40.847656 50.34375 40.898438 50.644531 40.992188 50.863281 L 40.992188 50.925781 Z M 39.089844 50.390625 C 39.3125 50.390625 39.519531 50.335938 39.71875 50.222656 C 39.914062 50.109375 40.058594 49.960938 40.148438 49.78125 L 40.148438 48.945312 L 39.597656 48.945312 C 38.734375 48.945312 38.304688 49.195312 38.304688 49.695312 C 38.304688 49.914062 38.378906 50.085938 38.527344 50.207031 C 38.671875 50.332031 38.859375 50.390625 39.089844 50.390625 Z M 42.902344 45.855469 L 42.902344 46.84375 L 43.671875 46.84375 L 43.671875 47.382812 L 42.902344 47.382812 L 42.902344 49.914062 C 42.902344 50.078125 42.9375 50.199219 43.007812 50.28125 C 43.074219 50.363281 43.191406 50.402344 43.355469 50.402344 C 43.4375 50.402344 43.546875 50.390625 43.691406 50.359375 L 43.691406 50.925781 C 43.503906 50.976562 43.324219 51 43.152344 51 C 42.835938 51 42.601562 50.90625 42.441406 50.71875 C 42.28125 50.527344 42.203125 50.261719 42.203125 49.914062 L 42.203125 47.382812 L 41.453125 47.382812 L 41.453125 46.84375 L 42.203125 46.84375 L 42.203125 45.855469 Z M 45.257812 50.925781 L 44.554688 50.925781 L 44.554688 46.84375 L 45.257812 46.84375 Z M 44.5 45.757812 C 44.5 45.644531 44.53125 45.550781 44.601562 45.472656 C 44.671875 45.394531 44.777344 45.355469 44.914062 45.355469 C 45.050781 45.355469 45.152344 45.394531 45.222656 45.472656 C 45.292969 45.550781 45.328125 45.644531 45.328125 45.757812 C 45.328125 45.871094 45.292969 45.964844 45.222656 46.042969 C 45.152344 46.117188 45.050781 46.15625 44.914062 46.15625 C 44.777344 46.15625 44.671875 46.117188 44.601562 46.042969 C 44.53125 45.964844 44.5 45.871094 44.5 45.757812 Z M 47.742188 49.976562 L 48.757812 46.84375 L 49.476562 46.84375 L 48.003906 50.925781 L 47.46875 50.925781 L 45.980469 46.84375 L 46.695312 46.84375 Z M 51.804688 51 C 51.246094 51 50.792969 50.820312 50.445312 50.457031 C 50.09375 50.09375 49.921875 49.605469 49.921875 48.996094 L 49.921875 48.867188 C 49.921875 48.464844 50 48.101562 50.152344 47.785156 C 50.308594 47.464844 50.527344 47.21875 50.804688 47.039062 C 51.085938 46.855469 51.390625 46.765625 51.71875 46.765625 C 52.25 46.765625 52.667969 46.941406 52.960938 47.292969 C 53.257812 47.640625 53.40625 48.140625 53.40625 48.792969 L 53.40625 49.082031 L 50.625 49.082031 C 50.632812 49.484375 50.75 49.8125 50.976562 50.058594 C 51.203125 50.308594 51.492188 50.429688 51.84375 50.429688 C 52.089844 50.429688 52.300781 50.378906 52.472656 50.28125 C 52.644531 50.179688 52.796875 50.046875 52.925781 49.878906 L 53.355469 50.210938 C 53.007812 50.738281 52.492188 51 51.804688 51 Z M 51.71875 47.339844 C 51.433594 47.339844 51.195312 47.441406 51.003906 47.648438 C 50.8125 47.851562 50.691406 48.140625 50.644531 48.507812 L 52.703125 48.507812 L 52.703125 48.457031 C 52.683594 48.101562 52.585938 47.828125 52.414062 47.632812 C 52.242188 47.4375 52.011719 47.339844 51.71875 47.339844 Z M 51.71875 47.339844 "/>
</g>
</svg>
