<?xml version="1.0" encoding="UTF-8"?>
<svg xmlns="http://www.w3.org/2000/svg" xmlns:xlink="http://www.w3.org/1999/xlink" width="64px" height="64px" viewBox="0 0 64 64" version="1.1">
<g id="surface1">
<path style=" stroke:none;fill-rule:nonzero;fill:rgb(0%,0%,0%);fill-opacity:1;" d="M 63.5625 31.214844 L 60.875 29.550781 C 60.851562 29.292969 60.828125 29.03125 60.800781 28.769531 L 63.109375 26.617188 C 63.34375 26.398438 63.449219 26.074219 63.382812 25.757812 C 63.324219 25.445312 63.101562 25.183594 62.800781 25.074219 L 59.851562 23.96875 C 59.777344 23.714844 59.699219 23.460938 59.621094 23.207031 L 61.460938 20.648438 C 61.648438 20.390625 61.6875 20.050781 61.566406 19.753906 C 61.441406 19.460938 61.175781 19.25 60.859375 19.195312 L 57.746094 18.691406 C 57.625 18.453125 57.5 18.222656 57.371094 17.992188 L 58.679688 15.121094 C 58.8125 14.828125 58.785156 14.488281 58.609375 14.222656 C 58.429688 13.957031 58.128906 13.800781 57.808594 13.8125 L 54.648438 13.921875 C 54.484375 13.71875 54.320312 13.515625 54.148438 13.316406 L 54.875 10.242188 C 54.949219 9.929688 54.855469 9.601562 54.628906 9.375 C 54.402344 9.148438 54.074219 9.054688 53.761719 9.128906 L 50.6875 9.851562 C 50.488281 9.683594 50.285156 9.515625 50.078125 9.355469 L 50.191406 6.195312 C 50.203125 5.875 50.046875 5.570312 49.78125 5.394531 C 49.515625 5.214844 49.175781 5.1875 48.882812 5.320312 L 46.011719 6.628906 C 45.78125 6.503906 45.546875 6.378906 45.3125 6.253906 L 44.804688 3.140625 C 44.753906 2.824219 44.542969 2.558594 44.246094 2.4375 C 43.953125 2.3125 43.613281 2.351562 43.351562 2.539062 L 40.792969 4.382812 C 40.542969 4.300781 40.289062 4.222656 40.035156 4.152344 L 38.929688 1.199219 C 38.816406 0.898438 38.558594 0.675781 38.242188 0.613281 C 37.929688 0.550781 37.605469 0.65625 37.386719 0.890625 L 35.234375 3.203125 C 34.972656 3.171875 34.710938 3.148438 34.453125 3.125 L 32.789062 0.4375 C 32.621094 0.164062 32.324219 0 32.003906 0 C 31.683594 0 31.382812 0.164062 31.214844 0.4375 L 29.554688 3.125 C 29.292969 3.148438 29.03125 3.171875 28.769531 3.203125 L 26.617188 0.890625 C 26.398438 0.65625 26.074219 0.550781 25.757812 0.613281 C 25.445312 0.675781 25.183594 0.898438 25.074219 1.199219 L 23.96875 4.152344 C 23.714844 4.222656 23.460938 4.300781 23.207031 4.382812 L 20.648438 2.539062 C 20.390625 2.351562 20.050781 2.3125 19.753906 2.4375 C 19.460938 2.558594 19.25 2.824219 19.195312 3.140625 L 18.6875 6.253906 C 18.453125 6.375 18.222656 6.5 17.988281 6.628906 L 15.121094 5.320312 C 14.828125 5.1875 14.488281 5.214844 14.222656 5.394531 C 13.957031 5.570312 13.800781 5.875 13.8125 6.195312 L 13.921875 9.355469 C 13.71875 9.515625 13.515625 9.683594 13.316406 9.851562 L 10.238281 9.128906 C 9.925781 9.054688 9.601562 9.148438 9.371094 9.375 C 9.144531 9.601562 9.050781 9.929688 9.125 10.242188 L 9.851562 13.316406 C 9.683594 13.515625 9.515625 13.71875 9.351562 13.921875 L 6.195312 13.8125 C 5.875 13.800781 5.570312 13.957031 5.394531 14.222656 C 5.214844 14.488281 5.1875 14.828125 5.320312 15.121094 L 6.628906 17.992188 C 6.5 18.222656 6.375 18.453125 6.253906 18.691406 L 3.140625 19.195312 C 2.824219 19.25 2.558594 19.460938 2.4375 19.757812 C 2.3125 20.050781 2.351562 20.390625 2.539062 20.648438 L 4.382812 23.207031 C 4.300781 23.460938 4.222656 23.714844 4.148438 23.96875 L 1.199219 25.074219 C 0.898438 25.1875 0.679688 25.445312 0.617188 25.757812 C 0.554688 26.074219 0.65625 26.398438 0.890625 26.617188 L 3.199219 28.769531 C 3.171875 29.03125 3.148438 29.292969 3.125 29.550781 L 0.4375 31.214844 C 0.164062 31.382812 0 31.679688 0 32 C 0 32.324219 0.164062 32.621094 0.4375 32.789062 L 3.125 34.449219 C 3.148438 34.710938 3.171875 34.972656 3.199219 35.234375 L 0.890625 37.386719 C 0.65625 37.605469 0.550781 37.929688 0.613281 38.246094 C 0.675781 38.558594 0.898438 38.816406 1.199219 38.929688 L 4.148438 40.035156 C 4.222656 40.289062 4.300781 40.542969 4.382812 40.796875 L 2.539062 43.351562 C 2.351562 43.613281 2.3125 43.953125 2.4375 44.246094 C 2.558594 44.542969 2.824219 44.753906 3.140625 44.804688 L 6.253906 45.3125 C 6.375 45.546875 6.5 45.78125 6.628906 46.011719 L 5.320312 48.882812 C 5.1875 49.175781 5.214844 49.515625 5.394531 49.78125 C 5.570312 50.046875 5.875 50.203125 6.195312 50.191406 L 9.351562 50.078125 C 9.515625 50.285156 9.683594 50.484375 9.851562 50.6875 L 9.125 53.765625 C 9.050781 54.074219 9.144531 54.402344 9.371094 54.628906 C 9.597656 54.855469 9.925781 54.949219 10.238281 54.875 L 13.316406 54.148438 C 13.515625 54.320312 13.71875 54.484375 13.921875 54.648438 L 13.8125 57.808594 C 13.800781 58.128906 13.957031 58.429688 14.222656 58.609375 C 14.488281 58.785156 14.828125 58.8125 15.121094 58.679688 L 17.988281 57.371094 C 18.222656 57.5 18.453125 57.625 18.6875 57.746094 L 19.195312 60.859375 C 19.246094 61.175781 19.457031 61.441406 19.753906 61.566406 C 20.050781 61.6875 20.390625 61.648438 20.648438 61.460938 L 23.207031 59.617188 C 23.460938 59.699219 23.714844 59.777344 23.96875 59.851562 L 25.074219 62.800781 C 25.183594 63.101562 25.445312 63.324219 25.757812 63.382812 C 26.074219 63.449219 26.398438 63.34375 26.613281 63.109375 L 28.769531 60.796875 C 29.027344 60.828125 29.289062 60.851562 29.550781 60.875 L 31.214844 63.5625 C 31.382812 63.835938 31.679688 64 32 64 C 32.320312 64 32.617188 63.835938 32.789062 63.5625 L 34.449219 60.875 C 34.710938 60.851562 34.972656 60.828125 35.234375 60.796875 L 37.386719 63.109375 C 37.605469 63.34375 37.929688 63.449219 38.242188 63.382812 C 38.558594 63.324219 38.816406 63.101562 38.929688 62.800781 L 40.03125 59.851562 C 40.289062 59.777344 40.542969 59.699219 40.796875 59.617188 L 43.351562 61.460938 C 43.613281 61.648438 43.953125 61.6875 44.246094 61.566406 C 44.542969 61.441406 44.753906 61.175781 44.804688 60.859375 L 45.3125 57.746094 C 45.546875 57.625 45.78125 57.5 46.011719 57.371094 L 48.882812 58.679688 C 49.171875 58.8125 49.511719 58.785156 49.78125 58.609375 C 50.046875 58.429688 50.203125 58.128906 50.191406 57.808594 L 50.078125 54.648438 C 50.285156 54.484375 50.484375 54.320312 50.683594 54.148438 L 53.761719 54.875 C 54.074219 54.949219 54.402344 54.855469 54.628906 54.628906 C 54.855469 54.402344 54.949219 54.074219 54.875 53.765625 L 54.148438 50.6875 C 54.320312 50.484375 54.484375 50.285156 54.648438 50.078125 L 57.804688 50.191406 C 58.125 50.203125 58.429688 50.046875 58.605469 49.78125 C 58.785156 49.515625 58.8125 49.171875 58.679688 48.882812 L 57.371094 46.011719 C 57.5 45.78125 57.625 45.546875 57.746094 45.3125 L 60.859375 44.804688 C 61.175781 44.753906 61.441406 44.542969 61.5625 44.246094 C 61.6875 43.953125 61.648438 43.613281 61.460938 43.351562 L 59.617188 40.796875 C 59.699219 40.542969 59.777344 40.289062 59.851562 40.035156 L 62.800781 38.929688 C 63.101562 38.816406 63.324219 38.558594 63.382812 38.242188 C 63.449219 37.929688 63.34375 37.605469 63.109375 37.386719 L 60.800781 35.234375 C 60.828125 34.972656 60.851562 34.710938 60.875 34.449219 L 63.5625 32.789062 C 63.835938 32.621094 64 32.320312 64 32 C 64 31.679688 63.835938 31.382812 63.5625 31.214844 Z M 45.578125 53.503906 C 44.554688 53.285156 43.902344 52.273438 44.121094 51.242188 C 44.339844 50.214844 45.351562 49.558594 46.378906 49.78125 C 47.402344 50 48.058594 51.015625 47.835938 52.042969 C 47.617188 53.070312 46.605469 53.722656 45.578125 53.503906 Z M 44.667969 47.328125 C 44.21875 47.234375 43.746094 47.320312 43.363281 47.570312 C 42.976562 47.820312 42.703125 48.214844 42.609375 48.664062 L 41.65625 53.113281 C 38.710938 54.449219 35.441406 55.191406 32 55.191406 C 28.476562 55.191406 25.136719 54.414062 22.140625 53.019531 L 21.1875 48.570312 C 20.988281 47.632812 20.066406 47.035156 19.132812 47.238281 L 15.203125 48.082031 C 14.472656 47.328125 13.792969 46.527344 13.171875 45.6875 L 32.292969 45.6875 C 32.507812 45.6875 32.652344 45.648438 32.652344 45.449219 L 32.652344 38.683594 C 32.652344 38.488281 32.507812 38.449219 32.292969 38.449219 L 26.699219 38.449219 L 26.699219 34.160156 L 32.75 34.160156 C 33.300781 34.160156 35.699219 34.320312 36.46875 37.386719 C 36.707031 38.332031 37.234375 41.398438 37.597656 42.382812 C 37.957031 43.484375 39.421875 45.683594 40.980469 45.683594 L 50.507812 45.683594 C 50.617188 45.683594 50.734375 45.671875 50.855469 45.652344 C 50.195312 46.550781 49.46875 47.398438 48.6875 48.195312 Z M 18.21875 53.410156 C 17.191406 53.632812 16.183594 52.980469 15.960938 51.949219 C 15.742188 50.921875 16.394531 49.910156 17.421875 49.6875 C 18.445312 49.46875 19.457031 50.125 19.679688 51.152344 C 19.898438 52.179688 19.246094 53.191406 18.21875 53.410156 Z M 10.964844 23.996094 C 11.390625 24.957031 10.957031 26.082031 10 26.507812 C 9.039062 26.933594 7.917969 26.5 7.492188 25.539062 C 7.066406 24.578125 7.496094 23.453125 8.457031 23.027344 C 8.917969 22.824219 9.441406 22.808594 9.910156 22.992188 C 10.382812 23.175781 10.761719 23.535156 10.964844 23.996094 Z M 8.734375 29.28125 L 12.828125 27.460938 C 13.703125 27.074219 14.097656 26.046875 13.710938 25.171875 L 12.867188 23.265625 L 16.183594 23.265625 L 16.183594 38.214844 L 9.492188 38.214844 C 8.898438 36.125 8.601562 33.964844 8.601562 31.796875 C 8.601562 30.945312 8.648438 30.105469 8.734375 29.28125 Z M 26.699219 27.828125 L 26.699219 23.425781 L 34.597656 23.425781 C 35.003906 23.425781 37.476562 23.894531 37.476562 25.742188 C 37.476562 27.277344 35.582031 27.828125 34.023438 27.828125 Z M 55.398438 31.796875 C 55.398438 32.378906 55.378906 32.957031 55.335938 33.53125 L 52.933594 33.53125 C 52.695312 33.53125 52.597656 33.691406 52.597656 33.925781 L 52.597656 35.027344 C 52.597656 37.621094 51.132812 38.1875 49.851562 38.332031 C 48.628906 38.46875 47.277344 37.820312 47.109375 37.074219 C 46.390625 33.019531 45.1875 32.15625 43.292969 30.660156 C 45.644531 29.167969 48.09375 26.964844 48.09375 24.011719 C 48.09375 20.828125 45.910156 18.820312 44.421875 17.839844 C 42.332031 16.460938 40.023438 16.1875 39.398438 16.1875 L 14.570312 16.1875 C 17.9375 12.429688 22.5 9.765625 27.660156 8.796875 L 30.585938 11.867188 C 30.902344 12.199219 31.339844 12.394531 31.800781 12.40625 C 32.257812 12.414062 32.703125 12.242188 33.035156 11.925781 L 36.3125 8.792969 C 43.171875 10.070312 48.980469 14.339844 52.328125 20.199219 L 50.085938 25.265625 C 49.699219 26.140625 50.09375 27.164062 50.96875 27.554688 L 55.285156 29.46875 C 55.359375 30.238281 55.398438 31.011719 55.398438 31.796875 Z M 30.589844 6.1875 C 31.347656 5.460938 32.550781 5.488281 33.273438 6.246094 C 34 7.007812 33.972656 8.214844 33.210938 8.9375 C 32.453125 9.664062 31.25 9.636719 30.523438 8.875 C 29.800781 8.117188 29.828125 6.914062 30.589844 6.1875 Z M 52.832031 24.089844 C 53.039062 23.628906 53.417969 23.265625 53.886719 23.085938 C 54.355469 22.902344 54.878906 22.917969 55.339844 23.121094 C 56.300781 23.546875 56.734375 24.671875 56.308594 25.632812 C 56.105469 26.09375 55.726562 26.453125 55.253906 26.636719 C 54.785156 26.816406 54.261719 26.804688 53.800781 26.601562 C 52.839844 26.175781 52.410156 25.050781 52.832031 24.089844 Z M 52.832031 24.089844 "/>
</g>
</svg>
