<?xml version="1.0" encoding="UTF-8"?>
<svg xmlns="http://www.w3.org/2000/svg" xmlns:xlink="http://www.w3.org/1999/xlink" width="64px" height="64px" viewBox="0 0 64 48" version="1.1">
<g id="surface1">
<path style=" stroke:none;fill-rule:nonzero;fill:rgb(81.176471%,39.215686%,60.392157%);fill-opacity:1;" d="M 55.074219 27.574219 C 52.835938 27.585938 50.898438 28.125 49.273438 28.925781 C 48.675781 27.738281 48.074219 26.699219 47.976562 25.925781 C 47.863281 25.023438 47.726562 24.476562 47.863281 23.398438 C 48 22.324219 48.625 20.800781 48.625 20.675781 C 48.613281 20.5625 48.488281 20.011719 47.199219 20 C 45.914062 19.988281 44.800781 20.25 44.675781 20.585938 C 44.550781 20.925781 44.300781 21.699219 44.136719 22.5 C 43.914062 23.675781 41.5625 27.835938 40.226562 30.023438 C 39.789062 29.175781 39.414062 28.425781 39.335938 27.824219 C 39.226562 26.925781 39.085938 26.375 39.226562 25.300781 C 39.363281 24.226562 39.988281 22.699219 39.988281 22.574219 C 39.976562 22.460938 39.851562 21.914062 38.5625 21.898438 C 37.273438 21.886719 36.164062 22.148438 36.039062 22.488281 C 35.914062 22.824219 35.773438 23.625 35.5 24.398438 C 35.238281 25.175781 32.113281 32.125 31.300781 33.9375 C 30.886719 34.863281 30.523438 35.601562 30.261719 36.101562 C 30 36.601562 30.25 36.136719 30.226562 36.1875 C 30 36.613281 29.875 36.851562 29.875 36.851562 L 29.875 36.863281 C 29.699219 37.175781 29.511719 37.476562 29.425781 37.476562 C 29.363281 37.476562 29.238281 36.636719 29.449219 35.488281 C 29.914062 33.074219 31.039062 29.3125 31.023438 29.175781 C 31.023438 29.113281 31.238281 28.449219 30.300781 28.113281 C 29.386719 27.773438 29.0625 28.335938 28.988281 28.335938 C 28.914062 28.335938 28.851562 28.539062 28.851562 28.539062 C 28.851562 28.539062 29.863281 24.300781 26.914062 24.300781 C 25.0625 24.300781 22.511719 26.3125 21.25 28.148438 C 20.449219 28.585938 18.75 29.511719 16.949219 30.5 C 16.261719 30.875 15.550781 31.273438 14.875 31.636719 L 14.738281 31.488281 C 11.164062 27.675781 4.550781 24.976562 4.824219 19.851562 C 4.925781 17.988281 5.574219 13.074219 17.523438 7.125 C 27.3125 2.25 35.148438 3.585938 36.511719 6.5625 C 38.449219 10.8125 32.324219 18.710938 22.148438 19.851562 C 18.273438 20.289062 16.238281 18.789062 15.726562 18.226562 C 15.1875 17.636719 15.113281 17.613281 14.914062 17.726562 C 14.585938 17.898438 14.789062 18.425781 14.914062 18.738281 C 15.210938 19.523438 16.460938 20.925781 18.585938 21.625 C 20.449219 22.238281 25 22.574219 30.5 20.449219 C 36.664062 18.0625 41.476562 11.4375 40.0625 5.898438 C 38.625 0.261719 29.273438 -1.585938 20.4375 1.550781 C 15.175781 3.425781 9.476562 6.351562 5.375 10.1875 C 0.5 14.738281 -0.273438 18.710938 0.0507812 20.363281 C 1.1875 26.25 9.300781 30.085938 12.550781 32.925781 C 12.386719 33.011719 12.238281 33.101562 12.101562 33.175781 C 10.476562 33.976562 4.289062 37.210938 2.738281 40.636719 C 0.988281 44.511719 3.011719 47.300781 4.363281 47.675781 C 8.539062 48.835938 12.8125 46.75 15.125 43.3125 C 17.425781 39.875 17.148438 35.414062 16.085938 33.375 L 16.050781 33.300781 L 17.324219 32.550781 C 18.148438 32.0625 18.960938 31.613281 19.675781 31.226562 C 19.273438 32.3125 18.988281 33.601562 18.835938 35.476562 C 18.664062 37.675781 19.5625 40.523438 20.75 41.648438 C 21.273438 42.136719 21.898438 42.148438 22.289062 42.148438 C 23.664062 42.148438 24.289062 41.011719 24.976562 39.648438 C 25.824219 37.988281 26.574219 36.0625 26.574219 36.0625 C 26.574219 36.0625 25.636719 41.273438 28.199219 41.273438 C 29.136719 41.273438 30.074219 40.0625 30.5 39.4375 L 30.5 39.449219 C 30.5 39.449219 30.523438 39.414062 30.574219 39.324219 C 30.628906 39.246094 30.675781 39.167969 30.726562 39.085938 L 30.726562 39.0625 C 31.101562 38.414062 31.9375 36.925781 33.1875 34.460938 C 34.800781 31.289062 36.351562 27.3125 36.351562 27.3125 C 36.351562 27.3125 36.5 28.289062 36.960938 29.886719 C 37.238281 30.835938 37.835938 31.875 38.300781 32.886719 C 37.925781 33.414062 37.699219 33.710938 37.699219 33.710938 L 37.710938 33.726562 C 37.414062 34.125 37.074219 34.550781 36.726562 34.976562 C 35.449219 36.5 33.925781 38.238281 33.726562 38.738281 C 33.488281 39.324219 33.539062 39.761719 34 40.113281 C 34.335938 40.363281 34.9375 40.414062 35.574219 40.363281 C 36.726562 40.289062 37.523438 40 37.925781 39.824219 C 38.550781 39.601562 39.261719 39.261719 39.949219 38.761719 C 41.199219 37.835938 41.960938 36.523438 41.886719 34.773438 C 41.851562 33.8125 41.539062 32.863281 41.148438 31.960938 C 41.261719 31.800781 41.375 31.636719 41.488281 31.460938 C 43.460938 28.574219 44.988281 25.398438 44.988281 25.398438 C 44.988281 25.398438 45.136719 26.375 45.601562 27.976562 C 45.835938 28.789062 46.3125 29.675781 46.738281 30.550781 C 44.886719 32.0625 43.726562 33.8125 43.324219 34.960938 C 42.585938 37.085938 43.164062 38.050781 44.25 38.273438 C 44.738281 38.375 45.4375 38.148438 45.960938 37.925781 C 46.613281 37.710938 47.398438 37.351562 48.125 36.8125 C 49.375 35.886719 50.574219 34.601562 50.511719 32.863281 C 50.476562 32.0625 50.261719 31.273438 49.976562 30.523438 C 51.550781 29.875 53.585938 29.5 56.175781 29.8125 C 61.738281 30.460938 62.835938 33.9375 62.625 35.386719 C 62.414062 36.839844 61.25 37.636719 60.863281 37.886719 C 60.476562 38.125 60.351562 38.214844 60.386719 38.386719 C 60.4375 38.652344 60.613281 38.636719 60.949219 38.589844 C 61.414062 38.511719 63.875 37.402344 63.976562 34.726562 C 64.125 31.289062 60.863281 27.539062 55.074219 27.574219 Z M 12.175781 42.039062 C 10.335938 44.050781 7.75 44.8125 6.648438 44.164062 C 5.460938 43.476562 5.925781 40.511719 8.1875 38.375 C 9.5625 37.074219 11.351562 35.875 12.523438 35.136719 C 12.789062 34.976562 13.1875 34.738281 13.664062 34.449219 C 13.738281 34.398438 13.789062 34.375 13.789062 34.375 C 13.875 34.324219 13.976562 34.261719 14.074219 34.199219 C 14.914062 37.25 14.113281 39.925781 12.175781 42.039062 Z M 25.613281 32.898438 C 24.976562 34.460938 23.625 38.476562 22.8125 38.25 C 22.113281 38.0625 21.6875 35.023438 22.675781 32.023438 C 23.175781 30.511719 24.238281 28.710938 24.863281 28.011719 C 25.875 26.886719 26.976562 26.511719 27.25 26.976562 C 27.574219 27.574219 26.011719 31.925781 25.613281 32.898438 Z M 36.699219 38.199219 C 36.425781 38.335938 36.175781 38.4375 36.0625 38.363281 C 35.976562 38.3125 36.175781 38.125 36.175781 38.125 C 36.175781 38.125 37.5625 36.636719 38.113281 35.949219 C 38.425781 35.550781 38.800781 35.085938 39.199219 34.5625 L 39.199219 34.710938 C 39.199219 36.511719 37.476562 37.710938 36.699219 38.199219 Z M 45.25 36.25 C 45.050781 36.101562 45.074219 35.636719 45.75 34.1875 C 46.011719 33.613281 46.613281 32.648438 47.648438 31.738281 C 47.773438 32.113281 47.851562 32.476562 47.835938 32.8125 C 47.824219 35.0625 46.226562 35.898438 45.25 36.25 Z M 45.25 36.25 "/>
</g>
</svg>
