<?xml version="1.0" encoding="UTF-8"?>
<svg xmlns="http://www.w3.org/2000/svg" xmlns:xlink="http://www.w3.org/1999/xlink" width="64px" height="64px" viewBox="0 0 64 28" version="1.1">
<defs>
<linearGradient id="linear0" gradientUnits="userSpaceOnUse" x1="0.57662" y1="0.02046" x2="0.57662" y2="0.94439" gradientTransform="matrix(18.46875,0,0,19.164062,0.632812,1.835937)">
<stop offset="0" style="stop-color:rgb(59.215686%,85.098039%,96.470588%);stop-opacity:1;"/>
<stop offset="0.92024" style="stop-color:rgb(5.882353%,50.196078%,80%);stop-opacity:1;"/>
<stop offset="1" style="stop-color:rgb(5.882353%,50.196078%,80%);stop-opacity:1;"/>
</linearGradient>
</defs>
<g id="surface1">
<path style=" stroke:none;fill-rule:nonzero;fill:rgb(0%,23.137255%,34.117647%);fill-opacity:1;" d="M 24.316406 13.761719 C 23.464844 13.761719 22.769531 14.007812 22.238281 14.503906 C 21.707031 15 21.4375 15.648438 21.4375 16.445312 C 21.4375 16.859375 21.507812 17.234375 21.636719 17.582031 C 21.769531 17.925781 21.976562 18.246094 22.25 18.535156 C 22.527344 18.824219 23.078125 19.21875 23.902344 19.71875 C 24.914062 20.324219 25.574219 20.816406 25.890625 21.203125 C 26.207031 21.585938 26.367188 21.988281 26.367188 22.40625 C 26.367188 22.96875 26.179688 23.414062 25.792969 23.753906 C 25.40625 24.089844 24.886719 24.257812 24.246094 24.257812 C 23.566406 24.257812 22.976562 24.023438 22.472656 23.558594 C 21.964844 23.089844 21.710938 22.472656 21.703125 21.699219 L 21.390625 21.699219 L 21.390625 24.507812 L 21.703125 24.507812 C 21.800781 24.242188 21.933594 24.105469 22.109375 24.105469 C 22.191406 24.105469 22.386719 24.164062 22.691406 24.269531 C 23.4375 24.527344 24.046875 24.652344 24.527344 24.652344 C 25.355469 24.652344 26.058594 24.367188 26.648438 23.789062 C 27.234375 23.210938 27.53125 22.515625 27.53125 21.699219 C 27.53125 21.070312 27.335938 20.507812 26.953125 20.019531 C 26.566406 19.527344 25.820312 18.957031 24.703125 18.304688 C 23.742188 17.734375 23.117188 17.273438 22.832031 16.914062 C 22.542969 16.554688 22.394531 16.15625 22.394531 15.71875 C 22.394531 15.246094 22.570312 14.867188 22.917969 14.585938 C 23.269531 14.300781 23.722656 14.160156 24.292969 14.160156 C 24.9375 14.160156 25.472656 14.347656 25.898438 14.726562 C 26.320312 15.105469 26.566406 15.628906 26.636719 16.300781 L 26.953125 16.300781 L 26.953125 13.867188 L 26.660156 13.867188 C 26.621094 13.992188 26.589844 14.070312 26.558594 14.105469 C 26.53125 14.144531 26.472656 14.160156 26.386719 14.160156 C 26.285156 14.160156 26.105469 14.121094 25.847656 14.035156 C 25.292969 13.855469 24.785156 13.761719 24.316406 13.761719 Z M 34.605469 13.761719 C 33.570312 13.761719 32.625 14 31.773438 14.480469 C 30.921875 14.960938 30.246094 15.628906 29.746094 16.480469 C 29.25 17.328125 29 18.230469 29 19.191406 C 29 20.484375 29.429688 21.636719 30.296875 22.644531 C 31.167969 23.652344 32.207031 24.28125 33.414062 24.523438 C 33.691406 24.664062 34.085938 25.03125 34.601562 25.621094 C 35.183594 26.285156 35.675781 26.765625 36.082031 27.054688 C 36.476562 27.332031 36.917969 27.546875 37.386719 27.6875 C 37.847656 27.828125 38.347656 27.894531 38.886719 27.894531 C 39.542969 27.894531 40.128906 27.78125 40.644531 27.550781 L 40.527344 27.269531 C 40.230469 27.375 39.910156 27.425781 39.574219 27.425781 C 39.117188 27.425781 38.65625 27.28125 38.191406 26.980469 C 37.730469 26.683594 37.152344 26.117188 36.464844 25.277344 C 36.140625 24.875 35.914062 24.621094 35.789062 24.523438 C 37.109375 24.269531 38.195312 23.640625 39.042969 22.632812 C 39.890625 21.628906 40.3125 20.480469 40.3125 19.191406 C 40.3125 17.664062 39.757812 16.382812 38.660156 15.332031 C 37.5625 14.285156 36.210938 13.761719 34.605469 13.761719 Z M 41.03125 13.761719 L 41.046875 14.089844 C 41.738281 14.089844 42.125 14.292969 42.214844 14.695312 C 42.246094 14.835938 42.261719 15.101562 42.261719 15.484375 L 42.257812 22.808594 C 42.25 23.355469 42.171875 23.703125 42.019531 23.855469 C 41.867188 24.007812 41.609375 24.101562 41.234375 24.136719 L 41.21875 24.46875 L 48.113281 24.46875 L 48.289062 22.808594 L 47.972656 22.808594 C 47.882812 23.261719 47.679688 23.585938 47.351562 23.769531 C 47.019531 23.953125 46.4375 24.046875 45.597656 24.046875 L 44.945312 24.046875 C 44.191406 24.046875 43.753906 23.777344 43.636719 23.238281 C 43.613281 23.128906 43.605469 23.015625 43.605469 22.890625 L 43.632812 15.484375 C 43.632812 14.941406 43.703125 14.574219 43.847656 14.394531 C 43.996094 14.214844 44.257812 14.117188 44.644531 14.089844 L 44.625 13.761719 Z M 34.71875 14.160156 C 35.890625 14.160156 36.84375 14.613281 37.585938 15.53125 C 38.324219 16.445312 38.6875 17.699219 38.6875 19.285156 C 38.6875 20.789062 38.316406 21.996094 37.574219 22.902344 C 36.828125 23.804688 35.839844 24.257812 34.605469 24.257812 C 33.425781 24.257812 32.464844 23.792969 31.730469 22.855469 C 30.992188 21.921875 30.628906 20.707031 30.628906 19.214844 C 30.628906 17.679688 31 16.453125 31.742188 15.535156 C 32.480469 14.617188 33.476562 14.160156 34.71875 14.160156 Z M 50.570312 15.734375 C 50.402344 15.734375 50.273438 15.792969 50.179688 15.902344 C 50.078125 16.015625 50.050781 16.152344 50.082031 16.316406 C 50.117188 16.476562 50.207031 16.617188 50.355469 16.734375 C 50.5 16.851562 50.65625 16.914062 50.824219 16.914062 C 50.988281 16.914062 51.109375 16.851562 51.199219 16.734375 C 51.289062 16.617188 51.316406 16.476562 51.28125 16.316406 C 51.25 16.152344 51.160156 16.015625 51.023438 15.902344 C 50.882812 15.792969 50.734375 15.734375 50.570312 15.734375 Z M 55.117188 16.859375 C 54.828125 17.9375 54.210938 18.523438 53.261719 18.617188 L 53.269531 18.925781 L 54.382812 18.925781 L 54.359375 22.585938 C 54.359375 23.210938 54.378906 23.628906 54.425781 23.839844 C 54.535156 24.347656 54.871094 24.605469 55.4375 24.605469 C 56.253906 24.605469 57.109375 24.117188 58.003906 23.140625 L 57.734375 22.910156 C 57.085938 23.554688 56.515625 23.878906 56.015625 23.878906 C 55.710938 23.878906 55.519531 23.703125 55.445312 23.363281 C 55.425781 23.277344 55.417969 23.179688 55.417969 23.070312 L 55.429688 18.925781 L 57.125 18.925781 L 57.109375 18.433594 L 55.4375 18.433594 L 55.4375 16.859375 Z M 61.671875 18.238281 C 60.722656 18.238281 59.953125 18.691406 59.351562 19.589844 C 58.753906 20.488281 58.570312 21.488281 58.804688 22.585938 C 58.945312 23.230469 59.21875 23.726562 59.640625 24.078125 C 60.058594 24.429688 60.59375 24.605469 61.230469 24.605469 C 61.824219 24.605469 62.648438 24.457031 62.996094 24.160156 C 63.347656 23.863281 63.667969 23.382812 63.964844 22.722656 L 63.726562 22.476562 C 63.253906 23.332031 62.296875 23.761719 61.578125 23.761719 C 60.589844 23.761719 59.980469 23.230469 59.753906 22.167969 C 59.726562 22.023438 59.703125 21.878906 59.6875 21.734375 C 60.867188 21.550781 61.761719 21.226562 62.363281 20.757812 C 62.964844 20.285156 63.570312 19.789062 63.457031 19.265625 C 63.390625 18.953125 63.222656 18.707031 62.96875 18.519531 C 62.710938 18.335938 62.046875 18.238281 61.671875 18.238281 Z M 51.304688 18.277344 L 49.261719 18.738281 L 49.261719 19.09375 L 49.96875 19.007812 C 50.308594 19.007812 50.511719 19.160156 50.574219 19.464844 C 50.597656 19.566406 50.609375 19.707031 50.613281 19.886719 L 50.59375 23.171875 C 50.585938 23.625 50.535156 23.890625 50.433594 23.96875 C 50.328125 24.050781 50.054688 24.089844 49.609375 24.089844 L 49.597656 24.398438 L 52.839844 24.398438 L 52.835938 24.089844 C 52.382812 24.089844 52.09375 24.054688 51.960938 23.984375 C 51.832031 23.917969 51.746094 23.796875 51.707031 23.605469 C 51.679688 23.46875 51.664062 23.234375 51.664062 22.910156 L 51.675781 18.277344 Z M 61.152344 18.882812 C 61.351562 18.882812 61.539062 18.957031 61.734375 19.105469 C 61.921875 19.253906 62.039062 19.417969 62.074219 19.59375 C 62.261719 20.46875 61.472656 21.070312 59.699219 21.40625 C 59.648438 20.769531 59.761719 20.191406 60.046875 19.671875 C 60.332031 19.148438 60.703125 18.882812 61.152344 18.882812 Z M 61.152344 18.882812 "/>
<path style=" stroke:none;fill-rule:nonzero;fill:rgb(5.882353%,50.196078%,80%);fill-opacity:1;" d="M 19.738281 1.222656 L 2.152344 1.222656 C 0.972656 1.222656 0.0078125 2.171875 0.0078125 3.328125 L 0.0078125 22.390625 C 0.0078125 23.546875 0.972656 24.496094 2.152344 24.496094 L 13.734375 24.496094 C 13.605469 18.832031 15.570312 7.839844 19.738281 1.222656 Z M 19.738281 1.222656 "/>
<path style=" stroke:none;fill-rule:nonzero;fill:url(#linear0);" d="M 19.101562 1.835938 L 2.152344 1.835938 C 1.3125 1.835938 0.632812 2.503906 0.632812 3.328125 L 0.632812 21 C 4.472656 19.550781 10.234375 18.300781 14.214844 18.359375 C 15.015625 14.246094 17.371094 6.183594 19.101562 1.835938 Z M 19.101562 1.835938 "/>
<path style=" stroke:none;fill-rule:nonzero;fill:rgb(0%,23.137255%,34.117647%);fill-opacity:1;" d="M 23.839844 0.597656 C 22.636719 -0.457031 21.179688 -0.0351562 19.738281 1.222656 C 19.527344 1.410156 19.3125 1.617188 19.101562 1.835938 C 16.636719 4.402344 14.351562 9.160156 13.640625 12.789062 C 13.917969 13.339844 14.132812 14.042969 14.277344 14.582031 C 14.3125 14.71875 14.347656 14.847656 14.371094 14.960938 C 14.433594 15.21875 14.46875 15.386719 14.46875 15.386719 C 14.46875 15.386719 14.445312 15.304688 14.355469 15.046875 C 14.339844 15 14.320312 14.945312 14.296875 14.882812 C 14.285156 14.851562 14.273438 14.820312 14.257812 14.789062 C 14.097656 14.421875 13.652344 13.648438 13.457031 13.308594 C 13.304688 13.757812 13.15625 14.207031 13.019531 14.660156 C 13.585938 15.675781 13.929688 17.414062 13.929688 17.414062 C 13.929688 17.414062 13.898438 17.300781 13.757812 16.90625 C 13.628906 16.558594 13.003906 15.480469 12.855469 15.226562 C 12.601562 16.148438 12.5 16.773438 12.589844 16.921875 C 12.765625 17.214844 12.9375 17.722656 13.082031 18.285156 C 13.417969 19.546875 13.648438 21.082031 13.648438 21.082031 C 13.648438 21.082031 13.65625 21.183594 13.671875 21.34375 C 13.625 22.402344 13.652344 23.5 13.734375 24.496094 C 13.847656 25.808594 14.054688 26.941406 14.320312 27.542969 L 14.5 27.449219 C 14.109375 26.257812 13.953125 24.695312 14.019531 22.894531 C 14.125 20.144531 14.769531 16.824219 15.960938 13.363281 C 17.972656 8.140625 20.765625 3.953125 23.320312 1.953125 C 20.992188 4.019531 17.839844 10.707031 16.894531 13.183594 C 15.839844 15.957031 15.089844 18.5625 14.640625 21.054688 C 15.417969 18.71875 17.933594 17.710938 17.933594 17.710938 C 17.933594 17.710938 19.167969 16.214844 20.613281 14.078125 C 19.746094 14.273438 18.328125 14.605469 17.855469 14.800781 C 17.152344 15.089844 16.964844 15.1875 16.964844 15.1875 C 16.964844 15.1875 19.234375 13.828125 21.183594 13.214844 C 23.863281 9.066406 26.78125 3.175781 23.839844 0.597656 "/>
</g>
</svg>
