<?xml version="1.0" encoding="UTF-8"?>
<svg xmlns="http://www.w3.org/2000/svg" xmlns:xlink="http://www.w3.org/1999/xlink" width="64px" height="64px" viewBox="0 0 64 76" version="1.1">
<g id="surface1">
<path style=" stroke:none;fill-rule:nonzero;fill:rgb(100%,24.313725%,0%);fill-opacity:1;" d="M 57.496094 12.476562 C 50.964844 3.25 38.0625 0.515625 28.738281 6.378906 L 12.359375 16.683594 C 11.257812 17.367188 10.230469 18.164062 9.292969 19.058594 C 8.359375 19.949219 7.519531 20.9375 6.789062 22.003906 C 6.0625 23.066406 5.445312 24.203125 4.957031 25.394531 C 4.464844 26.585938 4.101562 27.820312 3.867188 29.085938 C 3.675781 30.148438 3.570312 31.222656 3.554688 32.300781 C 3.539062 33.378906 3.617188 34.457031 3.78125 35.519531 C 3.949219 36.585938 4.203125 37.636719 4.542969 38.664062 C 4.882812 39.6875 5.308594 40.679688 5.816406 41.636719 C 5.464844 42.160156 5.144531 42.699219 4.851562 43.253906 C 4.554688 43.808594 4.292969 44.378906 4.054688 44.960938 C 3.820312 45.542969 3.613281 46.136719 3.4375 46.738281 C 3.265625 47.339844 3.121094 47.953125 3.007812 48.570312 C 2.539062 51.160156 2.601562 53.820312 3.191406 56.386719 C 3.484375 57.667969 3.90625 58.917969 4.449219 60.117188 C 4.992188 61.3125 5.65625 62.457031 6.429688 63.523438 C 12.960938 72.75 25.863281 75.484375 35.1875 69.621094 L 51.566406 59.359375 C 52.667969 58.671875 53.691406 57.878906 54.628906 56.984375 C 55.5625 56.089844 56.402344 55.101562 57.132812 54.035156 C 57.859375 52.972656 58.472656 51.835938 58.964844 50.648438 C 59.457031 49.457031 59.824219 48.21875 60.054688 46.957031 C 60.25 45.894531 60.355469 44.820312 60.367188 43.742188 C 60.382812 42.667969 60.304688 41.589844 60.140625 40.523438 C 59.972656 39.457031 59.71875 38.410156 59.378906 37.382812 C 59.035156 36.363281 58.609375 35.367188 58.105469 34.414062 C 58.453125 33.890625 58.773438 33.347656 59.070312 32.792969 C 59.363281 32.238281 59.628906 31.667969 59.863281 31.085938 C 60.101562 30.503906 60.308594 29.910156 60.484375 29.308594 C 60.65625 28.707031 60.804688 28.097656 60.917969 27.480469 C 61.148438 26.1875 61.25 24.875 61.21875 23.5625 C 61.191406 22.25 61.027344 20.941406 60.734375 19.660156 C 60.441406 18.382812 60.019531 17.132812 59.472656 15.933594 C 58.929688 14.734375 58.265625 13.59375 57.496094 12.523438 "/>
<path style=" stroke:none;fill-rule:nonzero;fill:rgb(100%,100%,100%);fill-opacity:1;" d="M 27.136719 64.417969 C 25.855469 64.746094 24.53125 64.878906 23.207031 64.8125 C 21.886719 64.746094 20.578125 64.480469 19.339844 64.027344 C 18.097656 63.570312 16.933594 62.933594 15.886719 62.132812 C 14.839844 61.332031 13.925781 60.375 13.171875 59.300781 C 12.703125 58.660156 12.304688 57.972656 11.980469 57.253906 C 11.652344 56.53125 11.398438 55.78125 11.222656 55.011719 C 11.046875 54.242188 10.949219 53.457031 10.929688 52.667969 C 10.914062 51.878906 10.976562 51.089844 11.117188 50.308594 C 11.140625 50.183594 11.164062 50.058594 11.191406 49.933594 C 11.21875 49.804688 11.25 49.679688 11.285156 49.558594 C 11.316406 49.433594 11.351562 49.308594 11.386719 49.183594 C 11.425781 49.0625 11.464844 48.9375 11.503906 48.816406 L 11.8125 47.886719 L 12.65625 48.507812 C 13.136719 48.855469 13.636719 49.183594 14.144531 49.488281 C 14.65625 49.792969 15.179688 50.078125 15.714844 50.339844 C 16.246094 50.605469 16.792969 50.847656 17.351562 51.0625 C 17.90625 51.28125 18.46875 51.472656 19.042969 51.644531 L 19.667969 51.824219 L 19.613281 52.445312 C 19.582031 52.867188 19.628906 53.289062 19.746094 53.695312 C 19.800781 53.898438 19.878906 54.097656 19.972656 54.289062 C 20.0625 54.476562 20.171875 54.660156 20.296875 54.832031 C 20.523438 55.152344 20.800781 55.441406 21.117188 55.683594 C 21.433594 55.921875 21.78125 56.117188 22.15625 56.253906 C 22.53125 56.390625 22.921875 56.46875 23.320312 56.488281 C 23.71875 56.507812 24.117188 56.46875 24.503906 56.367188 C 24.59375 56.34375 24.679688 56.320312 24.769531 56.289062 C 24.855469 56.257812 24.941406 56.226562 25.023438 56.1875 C 25.109375 56.152344 25.191406 56.113281 25.273438 56.070312 C 25.351562 56.027344 25.433594 55.984375 25.507812 55.933594 L 41.863281 45.628906 C 42.0625 45.503906 42.25 45.359375 42.421875 45.199219 C 42.589844 45.035156 42.742188 44.855469 42.875 44.660156 C 43.007812 44.46875 43.117188 44.261719 43.207031 44.042969 C 43.292969 43.828125 43.359375 43.601562 43.402344 43.375 C 43.445312 43.136719 43.460938 42.898438 43.457031 42.660156 C 43.449219 42.425781 43.417969 42.1875 43.363281 41.953125 C 43.3125 41.722656 43.234375 41.496094 43.136719 41.277344 C 43.035156 41.0625 42.914062 40.855469 42.773438 40.664062 C 42.546875 40.339844 42.269531 40.054688 41.953125 39.8125 C 41.640625 39.570312 41.289062 39.378906 40.914062 39.242188 C 40.539062 39.105469 40.148438 39.027344 39.75 39.003906 C 39.351562 38.984375 38.953125 39.027344 38.566406 39.125 C 38.476562 39.148438 38.390625 39.175781 38.304688 39.207031 C 38.214844 39.234375 38.132812 39.269531 38.046875 39.304688 C 37.960938 39.339844 37.878906 39.378906 37.800781 39.421875 C 37.71875 39.464844 37.636719 39.511719 37.5625 39.558594 L 31.28125 43.496094 C 31.027344 43.65625 30.761719 43.808594 30.496094 43.949219 C 30.226562 44.089844 29.953125 44.21875 29.675781 44.339844 C 29.398438 44.460938 29.113281 44.570312 28.828125 44.667969 C 28.542969 44.769531 28.253906 44.859375 27.960938 44.933594 C 26.679688 45.261719 25.355469 45.394531 24.035156 45.328125 C 22.714844 45.257812 21.414062 44.996094 20.175781 44.542969 C 18.9375 44.085938 17.777344 43.449219 16.730469 42.648438 C 15.6875 41.847656 14.773438 40.898438 14.015625 39.828125 C 13.554688 39.183594 13.15625 38.496094 12.832031 37.773438 C 12.503906 37.054688 12.253906 36.304688 12.078125 35.535156 C 11.902344 34.761719 11.808594 33.976562 11.789062 33.1875 C 11.773438 32.402344 11.835938 31.613281 11.976562 30.835938 C 12.253906 29.308594 12.851562 27.851562 13.730469 26.5625 C 14.609375 25.277344 15.75 24.183594 17.082031 23.355469 L 33.484375 13.050781 C 33.742188 12.890625 34 12.742188 34.265625 12.601562 C 34.535156 12.460938 34.804688 12.328125 35.082031 12.207031 C 35.359375 12.089844 35.640625 11.976562 35.925781 11.878906 C 36.207031 11.78125 36.496094 11.691406 36.789062 11.613281 C 38.070312 11.285156 39.394531 11.152344 40.714844 11.214844 C 42.039062 11.285156 43.34375 11.546875 44.582031 12.003906 C 45.824219 12.457031 46.988281 13.097656 48.035156 13.898438 C 49.082031 14.699219 49.996094 15.65625 50.75 16.730469 C 51.214844 17.371094 51.613281 18.058594 51.941406 18.777344 C 52.269531 19.5 52.523438 20.246094 52.699219 21.019531 C 52.875 21.789062 52.976562 22.574219 52.992188 23.363281 C 53.011719 24.152344 52.949219 24.941406 52.808594 25.71875 C 52.785156 25.847656 52.757812 25.972656 52.730469 26.101562 C 52.703125 26.226562 52.671875 26.351562 52.636719 26.480469 C 52.605469 26.605469 52.570312 26.730469 52.535156 26.855469 C 52.5 26.980469 52.460938 27.101562 52.417969 27.226562 L 52.105469 28.15625 L 51.269531 27.535156 C 50.789062 27.183594 50.289062 26.855469 49.777344 26.546875 C 49.265625 26.238281 48.738281 25.953125 48.203125 25.6875 C 47.128906 25.15625 46.011719 24.71875 44.867188 24.375 L 44.238281 24.195312 L 44.292969 23.574219 C 44.3125 23.363281 44.308594 23.148438 44.289062 22.9375 C 44.273438 22.726562 44.234375 22.519531 44.175781 22.3125 C 44.121094 22.109375 44.046875 21.910156 43.953125 21.71875 C 43.859375 21.523438 43.753906 21.34375 43.628906 21.167969 C 43.398438 20.851562 43.121094 20.570312 42.808594 20.332031 C 42.492188 20.097656 42.144531 19.910156 41.773438 19.777344 C 41.027344 19.511719 40.214844 19.472656 39.445312 19.675781 C 39.355469 19.699219 39.269531 19.722656 39.183594 19.753906 C 39.097656 19.785156 39.011719 19.816406 38.925781 19.851562 C 38.84375 19.890625 38.757812 19.929688 38.679688 19.972656 C 38.597656 20.015625 38.515625 20.058594 38.441406 20.109375 L 22.054688 30.394531 C 21.855469 30.519531 21.671875 30.664062 21.5 30.828125 C 21.332031 30.988281 21.179688 31.167969 21.046875 31.359375 C 20.914062 31.554688 20.804688 31.761719 20.714844 31.976562 C 20.625 32.191406 20.558594 32.414062 20.519531 32.644531 C 20.476562 32.878906 20.460938 33.121094 20.464844 33.359375 C 20.480469 33.835938 20.589844 34.304688 20.785156 34.742188 C 20.886719 34.960938 21.003906 35.167969 21.144531 35.363281 C 21.371094 35.679688 21.648438 35.964844 21.960938 36.207031 C 22.273438 36.445312 22.621094 36.636719 22.992188 36.773438 C 23.738281 37.046875 24.550781 37.089844 25.320312 36.898438 C 25.410156 36.875 25.496094 36.847656 25.585938 36.816406 C 25.671875 36.789062 25.753906 36.753906 25.839844 36.71875 C 25.925781 36.683594 26.007812 36.644531 26.089844 36.601562 C 26.167969 36.558594 26.25 36.511719 26.324219 36.464844 L 32.605469 32.535156 C 32.863281 32.371094 33.125 32.21875 33.394531 32.078125 C 33.660156 31.933594 33.933594 31.804688 34.214844 31.683594 C 34.492188 31.5625 34.773438 31.453125 35.0625 31.351562 C 35.347656 31.253906 35.640625 31.164062 35.933594 31.089844 C 37.214844 30.761719 38.539062 30.625 39.863281 30.691406 C 41.183594 30.757812 42.488281 31.019531 43.730469 31.476562 C 44.96875 31.929688 46.132812 32.566406 47.179688 33.371094 C 48.226562 34.171875 49.140625 35.125 49.894531 36.199219 C 50.359375 36.839844 50.757812 37.527344 51.085938 38.246094 C 51.414062 38.96875 51.667969 39.71875 51.84375 40.488281 C 52.019531 41.257812 52.121094 42.042969 52.136719 42.832031 C 52.15625 43.625 52.09375 44.414062 51.957031 45.1875 C 51.816406 45.949219 51.597656 46.695312 51.304688 47.414062 C 51.007812 48.132812 50.640625 48.816406 50.199219 49.460938 C 49.761719 50.101562 49.257812 50.699219 48.695312 51.238281 C 48.132812 51.773438 47.515625 52.253906 46.851562 52.667969 L 30.464844 62.972656 C 30.207031 63.132812 29.945312 63.285156 29.675781 63.425781 C 29.410156 63.566406 29.136719 63.699219 28.855469 63.820312 C 28.578125 63.941406 28.296875 64.050781 28.007812 64.152344 C 27.722656 64.25 27.429688 64.339844 27.136719 64.417969 "/>
</g>
</svg>
