<?xml version="1.0" encoding="UTF-8"?>
<svg xmlns="http://www.w3.org/2000/svg" xmlns:xlink="http://www.w3.org/1999/xlink" width="64px" height="64px" viewBox="0 0 64 64" version="1.1">
<defs>
<linearGradient id="swift-linear0" gradientUnits="userSpaceOnUse" x1="-1845.501" y1="1255.639" x2="-1797.134" y2="981.338" gradientTransform="matrix(-0.25,0.000000000000000031,-0.000000000000000031,-0.25,-423.3025,311.626)">
<stop offset="0" style="stop-color:rgb(98.039216%,68.235294%,25.882353%);stop-opacity:1;"/>
<stop offset="1" style="stop-color:rgb(93.72549%,24.313725%,19.215686%);stop-opacity:1;"/>
</linearGradient>
<linearGradient id="swift-linear1" gradientUnits="userSpaceOnUse" x1="130.612" y1="4.136" x2="95.213" y2="204.893" gradientTransform="matrix(0.25,0,0,0.25,0,0)">
<stop offset="0" style="stop-color:rgb(89.019608%,62.352941%,22.745098%);stop-opacity:1;"/>
<stop offset="1" style="stop-color:rgb(82.745098%,22.352941%,16.078431%);stop-opacity:1;"/>
</linearGradient>
</defs>
<g id="surface1">
<path style=" stroke:none;fill-rule:nonzero;fill:url(#swift-linear0);" d="M 14.226562 0 L 49.675781 0 C 51.398438 0 53.074219 0.273438 54.699219 0.851562 C 57.050781 1.699219 59.175781 3.199219 60.773438 5.148438 C 62.398438 7.101562 63.476562 9.5 63.851562 12 C 64 12.925781 64.023438 13.851562 64.023438 14.773438 L 64.023438 49.351562 C 64.023438 50.449219 63.976562 51.574219 63.75 52.648438 C 63.25 55.125 62.074219 57.449219 60.375 59.324219 C 58.699219 61.199219 56.5 62.601562 54.125 63.351562 C 52.675781 63.800781 51.175781 64 49.648438 64 C 48.976562 64 14.125 64 13.601562 63.976562 C 11.050781 63.851562 8.523438 63.023438 6.398438 61.601562 C 4.324219 60.199219 2.625 58.25 1.523438 56 C 0.574219 54.074219 0.101562 51.925781 0.101562 49.773438 L 0.101562 14.226562 C 0.0507812 12.101562 0.5 10 1.425781 8.101562 C 2.5 5.851562 4.175781 3.875 6.25 2.476562 C 8.375 1.023438 10.875 0.175781 13.425781 0.0507812 C 13.675781 0 13.949219 0 14.226562 0 Z M 14.226562 0 "/>
<path style=" stroke:none;fill-rule:nonzero;fill:url(#swift-linear1);" d="M 54 52.351562 C 53.773438 52 53.523438 51.648438 53.25 51.324219 C 52.625 50.574219 51.898438 49.925781 51.101562 49.375 C 50.101562 48.699219 48.925781 48.273438 47.726562 48.226562 C 46.875 48.175781 46.023438 48.324219 45.226562 48.625 C 44.425781 48.898438 43.648438 49.300781 42.898438 49.699219 C 42.023438 50.148438 41.148438 50.601562 40.226562 50.976562 C 39.125 51.425781 37.976562 51.773438 36.800781 52.023438 C 35.324219 52.300781 33.824219 52.398438 32.351562 52.375 C 29.675781 52.324219 27 51.925781 24.449219 51.175781 C 22.199219 50.5 20.050781 49.574219 18.023438 48.398438 C 16.25 47.375 14.601562 46.199219 13.050781 44.875 C 11.773438 43.773438 10.601562 42.601562 9.5 41.351562 C 8.75 40.476562 8.023438 39.550781 7.351562 38.601562 C 7.074219 38.226562 6.824219 37.824219 6.601562 37.425781 L 0 30.300781 L 0 14.175781 C 0 6.351562 6.324219 0 14.148438 0 L 26.773438 0 L 36.125 9.5 C 57.226562 23.851562 50.398438 39.675781 50.398438 39.675781 C 50.398438 39.675781 56.398438 46.425781 54 52.351562 Z M 54 52.351562 "/>
<path style=" stroke:none;fill-rule:nonzero;fill:rgb(100%,100%,100%);fill-opacity:1;" d="M 36.175781 9.5 C 57.273438 23.851562 50.449219 39.675781 50.449219 39.675781 C 50.449219 39.675781 56.449219 46.449219 54.023438 52.375 C 54.023438 52.375 51.550781 48.226562 47.398438 48.226562 C 43.398438 48.226562 41.050781 52.375 33 52.375 C 15.074219 52.375 6.601562 37.398438 6.601562 37.398438 C 22.75 48.023438 33.773438 40.5 33.773438 40.5 C 26.5 36.273438 11.023438 16.074219 11.023438 16.074219 C 24.5 27.550781 30.324219 30.574219 30.324219 30.574219 C 26.851562 27.699219 17.101562 13.648438 17.101562 13.648438 C 24.898438 21.550781 40.398438 32.574219 40.398438 32.574219 C 44.800781 20.375 36.175781 9.5 36.175781 9.5 Z M 36.175781 9.5 "/>
</g>
</svg>
