<?xml version="1.0" encoding="UTF-8"?>
<svg xmlns="http://www.w3.org/2000/svg" xmlns:xlink="http://www.w3.org/1999/xlink" width="64px" height="64px" viewBox="0 0 64 38" version="1.1">
<defs>
<linearGradient id="linear0" gradientUnits="userSpaceOnUse" x1="-0.02778" y1="0.32" x2="1" y2="0.67556" gradientTransform="matrix(64,0,0,37.898438,0,0.0507813)">
<stop offset="0" style="stop-color:rgb(13.333333%,59.607843%,74.117647%);stop-opacity:1;"/>
<stop offset="1" style="stop-color:rgb(5.490196%,84.313725%,70.980392%);stop-opacity:1;"/>
</linearGradient>
</defs>
<g id="surface1">
<path style=" stroke:none;fill-rule:nonzero;fill:url(#linear0);" d="M 32 0.0507812 C 23.464844 0.0507812 18.132812 4.261719 16 12.683594 C 19.199219 8.472656 22.933594 6.894531 27.199219 7.945312 C 29.632812 8.546875 31.375 10.289062 33.300781 12.21875 C 36.4375 15.363281 40.070312 19 48 19 C 56.535156 19 61.867188 14.789062 64 6.367188 C 60.800781 10.578125 57.066406 12.15625 52.800781 11.105469 C 50.367188 10.503906 48.625 8.761719 46.699219 6.832031 C 43.5625 3.6875 39.929688 0.0507812 32 0.0507812 Z M 16 19 C 7.464844 19 2.132812 23.210938 0 31.632812 C 3.199219 27.421875 6.933594 25.84375 11.199219 26.894531 C 13.632812 27.496094 15.375 29.238281 17.300781 31.167969 C 20.4375 34.3125 24.070312 37.949219 32 37.949219 C 40.535156 37.949219 45.867188 33.738281 48 25.316406 C 44.800781 29.527344 41.066406 31.105469 36.800781 30.054688 C 34.367188 29.453125 32.625 27.710938 30.699219 25.78125 C 27.5625 22.636719 23.929688 19 16 19 Z M 16 19 "/>
</g>
</svg>
